<?xml version="1.0" standalone="no"?>
<!DOCTYPE svg PUBLIC "-//W3C//DTD SVG 1.1//EN" "http://www.w3.org/Graphics/SVG/1.1/DTD/svg11.dtd" >
<svg xmlns="http://www.w3.org/2000/svg" xmlns:xlink="http://www.w3.org/1999/xlink" version="1.1">
<metadata></metadata>
<defs>
<font id="quantifybold" horiz-adv-x="491" >
<font-face units-per-em="2048" ascent="1638" descent="-410" />
<missing-glyph horiz-adv-x="409" />
<glyph horiz-adv-x="0" />
<glyph unicode="&#xd;" horiz-adv-x="1024" />
<glyph horiz-adv-x="0" />
<glyph horiz-adv-x="0" />
<glyph unicode=" "  horiz-adv-x="409" />
<glyph unicode="&#x09;" horiz-adv-x="409" />
<glyph unicode="&#xa0;" horiz-adv-x="409" />
<glyph unicode="!" d="M123 0v246h246v-246h-246zM123 410v1024h246v-1024h-246z" />
<glyph unicode="&#x22;" horiz-adv-x="940" d="M184 1434h246l-41 -486h-164zM510 1434h246l-41 -486h-164z" />
<glyph unicode="#" horiz-adv-x="1583" d="M102 383l45 246h287l35 190h-289l45 246h287l51 287h246l-51 -287h190l51 287h246l-51 -287h287l-45 -246h-287l-35 -190h289l-45 -246h-287l-51 -287h-246l51 287h-190l-51 -287h-246l51 287h-287zM680 629h188l35 190h-188z" />
<glyph unicode="$" horiz-adv-x="1234" d="M102 1034q0 119 41 201t106.5 134t145.5 75.5t160 25.5v181h123v-187q104 -12 177 -40.5t120 -57.5q31 -18 52.5 -35.5t37.5 -32.5l-176 -176q-51 53 -111 84q-49 23 -100 35v-395q41 -12 111.5 -42t144.5 -79q199 -131 199 -309q0 -98 -32 -178t-91.5 -137.5t-143.5 -88 t-188 -32.5v-181h-123v187q-129 16 -233.5 65t-176.5 107l170 170q33 -31 71 -54.5t79 -40.5q49 -18 90 -24v395q-47 16 -121 46t-145 77q-186 125 -187 307zM354 1065q0 -55 37 -94q14 -16 31.5 -30t42.5 -26q47 -23 90 -34v364q-31 -4 -59.5 -13t-51.5 -22 q-90 -55 -90 -145zM678 203q80 8 133 47q70 51 70 135q0 51 -37 92q-29 33 -74 53q-41 23 -92 37v-364z" />
<glyph unicode="%" horiz-adv-x="2082" d="M82 1049q0 86 32.5 160.5t88 130t130.5 87t161 31.5q84 0 158.5 -31.5t130 -87t88 -130t32.5 -160.5t-32.5 -161t-88 -130.5t-130 -88t-158.5 -32.5q-86 0 -161 32.5t-130.5 88t-88 130.5t-32.5 161zM287 1049q0 -41 15 -79t44 -67q61 -61 148 -61q84 0 145 61 q59 59 59 146q0 86 -59 145q-29 29 -66.5 44t-78.5 15q-88 0 -148 -59q-29 -29 -44 -66.5t-15 -78.5zM389 -4l1049 1434h254l-1049 -1434h-254zM1180 377q0 86 32.5 160.5t88 130t130 88t160.5 32.5q84 0 159 -32.5t130 -88t88 -130t33 -160.5q0 -84 -33 -159t-88 -130 t-130 -88t-159 -33q-86 0 -160.5 33t-130 88t-88 130t-32.5 159zM1384 377q0 -41 15.5 -79t44.5 -67q59 -59 147 -59q41 0 79 15t67 44t44 67t15 79q0 88 -59 147q-29 29 -67 44.5t-79 15.5q-88 0 -147 -60q-29 -29 -44.5 -67.5t-15.5 -79.5z" />
<glyph unicode="&#x26;" horiz-adv-x="1394" d="M123 451q0 156 110 266q20 18 42 34.5t44 30.5q-55 66 -92 136.5t-37 154.5q0 82 32 154.5t86 127t127 86.5t155 32t155.5 -32t127 -86.5t85 -127t31.5 -154.5h-246q0 63 -44 108.5t-109 45.5q-63 0 -108.5 -45t-45.5 -109q0 -27 15.5 -55.5t41 -58t56.5 -58.5t61 -55 q31 -27 64 -53.5t69 -55.5q49 -41 105 -86q10 23 19.5 43.5t23.5 40.5q92 145 280 207l76 -235q-182 -57 -188 -246q84 -84 145.5 -167t108.5 -171l-219 -113q-47 90 -117 176q-25 -37 -55 -67q-66 -66 -152 -101.5t-180 -35.5t-179 35.5t-151 101.5q-68 66 -102.5 151.5 t-34.5 180.5zM369 451q0 -47 17 -87t47 -71t70 -48.5t87 -17.5q72 0 128 40t81 104q-53 47 -105.5 90t-103.5 84q-20 16 -40 31.5t-38 31.5q-90 -45 -116.5 -80.5t-26.5 -76.5z" />
<glyph unicode="'" d="M123 1434h246l-41 -486h-164z" />
<glyph unicode="(" horiz-adv-x="677" d="M82 735q2 135 24.5 264t63.5 246q92 250 264 426l174 -174q-133 -133 -205.5 -331.5t-74.5 -432.5q-2 -238 73.5 -455t214.5 -380l-188 -160q-174 205 -262 471q-84 256 -84 526z" />
<glyph unicode=")" horiz-adv-x="677" d="M61 -102q139 164 215 381t74 454q-2 233 -74.5 432t-205.5 332l174 174q172 -176 264 -426q41 -117 63.5 -246t24.5 -264q0 -270 -84 -526q-88 -266 -262 -471z" />
<glyph unicode="*" horiz-adv-x="620" d="M102 1096v164l199 -48l-139 150l141 82l59 -197l60 197l141 -82l-141 -150l199 48v-164l-199 47l141 -148l-141 -82l-60 195l-59 -195l-141 82l139 148z" />
<glyph unicode="+" horiz-adv-x="1185" d="M102 702v246h367v367h246v-367h368v-246h-368v-368h-246v368h-367z" />
<glyph unicode="," d="M123 0v246h246v-246h-246zM143 -156q53 14 73 59.5t20 96.5h133q0 -82 -57.5 -139.5t-139.5 -57.5q-20 0 -29 2v39z" />
<glyph unicode="-" horiz-adv-x="1042" d="M123 614v246h797v-246h-797z" />
<glyph unicode="." d="M123 0v246h246v-246h-246z" />
<glyph unicode="/" horiz-adv-x="1411" d="M61 -188l1035 1921h233l-1034 -1921h-234z" />
<glyph unicode="0" horiz-adv-x="1175" d="M82 717q0 154 24.5 290t83 237.5t156 159.5t242.5 58q137 0 234.5 -58t156.5 -159.5t87 -238t28 -289.5q0 -154 -26 -290t-85 -236.5t-155.5 -159t-239.5 -58.5t-239.5 58.5t-156 160t-85 236.5t-25.5 289zM328 717q0 -68 5 -128.5t15 -113.5q23 -100 58 -160 q29 -49 65 -71q45 -25 117 -25q74 0 117 25q39 20 67 71q37 62 55 160q10 53 15.5 113.5t5.5 128.5q0 139 -21 241q-10 47 -24.5 88t-34.5 72q-31 51 -68 74q-47 25 -112 25q-76 0 -119 -25q-37 -20 -66 -70q-27 -45 -51 -140t-24 -265z" />
<glyph unicode="1" horiz-adv-x="819" d="M61 1096l338 338h297v-1434h-245v1139l-215 -217z" />
<glyph unicode="2" horiz-adv-x="1107" d="M82 0v172l47 43q51 49 107 102q47 47 106 107.5t123 130.5q117 125 180.5 209t93 135t35.5 72.5t6 23.5q0 45 -17.5 86t-48 71t-71.5 47.5t-86 17.5q-47 0 -87 -17.5t-70.5 -47.5t-48 -71t-17.5 -86h-246q0 94 36 179.5t101 150.5q66 68 152 102.5t180 34.5t180 -34.5 t152 -102.5q66 -66 101.5 -150.5t35.5 -179.5q0 -61 -31.5 -135t-99.5 -170q-92 -133 -248 -301q-35 -39 -68.5 -73.5t-66.5 -69.5h473v-246h-903z" />
<glyph unicode="3" horiz-adv-x="1112" d="M82 440h246q0 -47 17 -87t48 -70.5t71 -48t87 -17.5q45 0 86 17.5t71.5 48t48 70.5t17.5 87q0 45 -17.5 86t-48 72t-71.5 48.5t-86 17.5h-80v213h-6l254 311h-576v246h887v-252l-264 -326q63 -31 117 -84q66 -66 101.5 -151.5t35.5 -180.5q0 -94 -36 -179t-101 -152 q-68 -66 -153 -102t-179 -36t-180 36t-152 102q-66 68 -101.5 152.5t-35.5 178.5z" />
<glyph unicode="4" horiz-adv-x="1257" d="M61 348v211l588 875h297l-565 -840h344v283h246v-283h205v-246h-205v-348h-246v348h-664z" />
<glyph unicode="5" horiz-adv-x="1099" d="M82 440h246q0 -47 17 -87t48 -70.5t71 -48t87 -17.5q45 0 86 17.5t70.5 48t47 70.5t17.5 87q0 45 -17.5 86t-47 72t-70.5 48.5t-86 17.5h-303l-160 159l191 611h718v-246h-538l-86 -279h178q94 0 179 -35.5t151 -101.5q68 -66 102.5 -151.5t34.5 -180.5q0 -94 -35 -179 t-102 -152q-66 -66 -151 -102t-179 -36t-180 36t-152 102q-66 68 -101.5 152.5t-35.5 178.5z" />
<glyph unicode="6" horiz-adv-x="1081" d="M61 440q0 135 70 246l440 748h285l-309 -525q90 -4 169.5 -39t145.5 -98q66 -66 101.5 -151.5t35.5 -180.5q0 -94 -35.5 -179t-101.5 -152q-68 -66 -152.5 -102t-179.5 -36q-94 0 -180 36t-151 102q-66 68 -102 152.5t-36 178.5zM307 440q0 -47 17.5 -87t48 -70.5 t70.5 -48t87 -17.5q45 0 86 17.5t72 48t48.5 70.5t17.5 87q0 45 -17.5 86t-48.5 72t-72 48.5t-86 17.5q-47 0 -87 -17.5t-70.5 -48.5t-48 -72t-17.5 -86z" />
<glyph unicode="7" horiz-adv-x="1073" d="M41 1188v246h846l145 -146l-708 -1288h-281l653 1188h-655z" />
<glyph unicode="8" horiz-adv-x="1081" d="M82 442q0 94 36 180.5t101 151.5q8 8 15.5 14.5t15.5 14.5q-47 53 -72.5 119.5t-25.5 142.5q0 82 31.5 155.5t85 127t126 85t156.5 31.5q82 0 155.5 -31.5t127 -85t85 -127t31.5 -155.5q0 -76 -25.5 -142.5t-72.5 -119.5q8 -8 15.5 -14.5t15.5 -14.5q66 -66 101.5 -151.5 t35.5 -180.5q0 -94 -36 -179t-101 -152q-66 -66 -152 -102t-180 -36t-179 36t-153 102q-66 68 -101.5 152.5t-35.5 178.5zM328 442q0 -47 17 -87t48 -70.5t71 -48t87 -17.5q45 0 86 17.5t71.5 48t48 70.5t17.5 87q0 45 -17.5 86t-48 72t-71.5 48.5t-86 17.5q-47 0 -87 -17.5 t-71 -48.5t-48 -72t-17 -86zM397 1065q0 -63 45 -108.5t109 -45.5q63 0 108.5 45t45.5 109q0 63 -45.5 108.5t-108.5 45.5t-108.5 -45.5t-45.5 -108.5z" />
<glyph unicode="9" horiz-adv-x="1081" d="M82 993q0 94 36 179t101 153q66 66 152 101.5t180 35.5t179 -35.5t153 -101.5q66 -68 101.5 -153t35.5 -179q0 -137 -72 -245l-438 -748h-287l309 524q-88 4 -168.5 39t-144.5 99q-66 66 -101.5 151.5t-35.5 179.5zM328 993q0 -47 17 -87t48 -70.5t71 -48t87 -17.5 q45 0 86 17.5t71.5 48t48 70.5t17.5 87q0 45 -17.5 86t-48 72t-71.5 48.5t-86 17.5q-47 0 -87 -17.5t-71 -48.5t-48 -72t-17 -86z" />
<glyph unicode=":" d="M123 0v246h246v-246h-246zM123 778v246h246v-246h-246z" />
<glyph unicode=";" d="M123 0v246h246v-246h-246zM123 778v246h246v-246h-246zM143 -156q53 14 73 59.5t20 96.5h133q0 -82 -57.5 -139.5t-139.5 -57.5q-20 0 -29 2v39z" />
<glyph unicode="&#x3c;" horiz-adv-x="935" d="M102 643v281l752 325v-280l-498 -185l498 -184v-281z" />
<glyph unicode="=" horiz-adv-x="1245" d="M82 340v246h1081v-246h-1081zM82 778v246h1081v-246h-1081z" />
<glyph unicode="&#x3e;" horiz-adv-x="935" d="M82 319v281l498 184l-498 185v280l752 -325v-281z" />
<glyph unicode="?" horiz-adv-x="1099" d="M61 993q0 94 36 180.5t102 151.5q66 66 151.5 101.5t179.5 35.5t179 -35.5t151 -101.5q68 -66 102.5 -152t34.5 -180q0 -127 -63.5 -235.5t-173.5 -171.5q-49 -29 -78 -78t-29 -105h-245q0 123 61 229.5t170 166.5q53 31 83 83t30 111q0 45 -17.5 86t-47.5 72t-71 48.5 t-86 17.5q-47 0 -87 -17.5t-70.5 -48.5t-48 -72t-17.5 -86h-246zM408 0v246h245v-246h-245z" />
<glyph unicode="@" horiz-adv-x="1701" d="M125 557q0 143 54 273.5t155 232.5q100 104 229 158.5t273 58.5q154 4 288 -51q137 -57 236 -156q53 -49 92 -107t68 -124q59 -137 59 -287q0 -47 -5 -92t-18 -90q-18 -76 -79.5 -123t-139.5 -47q-63 0 -118.5 23.5t-97.5 65.5t-65.5 97t-23.5 119v45q0 78 -61 133 q-49 45 -111 45q-41 4 -76.5 -12.5t-64.5 -44.5q-43 -47 -47 -113q-4 -84 59 -141q23 -20 51.5 -32.5t59.5 -14.5q43 0 78 14l53 -135q-29 -12 -61.5 -20.5t-71.5 -8.5q-68 0 -126.5 25.5t-101.5 71t-66.5 105.5t-23.5 128t23.5 128t66.5 105t101.5 71t126.5 26 q59 0 107 -19.5t85 -48.5v49h150v-424q0 -66 45 -110.5t110 -44.5q49 0 89 29.5t53 78.5q18 76 18 162q0 131 -50 250t-144 211t-213 139t-252 43t-248 -54t-200 -137t-134 -203t-49 -247q-2 -131 47 -247.5t134 -205t199.5 -141.5t246.5 -55q180 -6 333 82v-92 q-150 -72 -315 -72h-21q-143 4 -272 60.5t-229 160.5t-153.5 235.5t-51.5 274.5z" />
<glyph unicode="A" horiz-adv-x="1605" d="M20 0l648 1434h270l647 -1434h-270l-111 246l-110 246l-291 643l-291 -643h373l110 -246h-594l-110 -246h-271z" />
<glyph unicode="B" horiz-adv-x="1298" d="M72 0v594v246v594h647q86 0 162.5 -33t133 -90.5t89.5 -133t33 -161.5v-4q0 -70 -21.5 -132.5t-58.5 -113.5q82 -57 131 -147.5t49 -196.5v-4q0 -86 -33 -163t-90 -133t-133 -89t-162 -33h-407l98 246h309q72 0 122 50t50 122v4q0 72 -50 122t-122 50h-100h-402v-348 v-246h-245zM317 840h402q72 0 122 50t50 122v4q0 72 -50 122t-122 50h-402v-348z" />
<glyph unicode="C" horiz-adv-x="1335" d="M41 719q0 154 58.5 290t159.5 237.5t237.5 159.5t289.5 58q156 0 291 -58t238 -161l-174 -174q-72 72 -162 110t-193 38q-100 0 -190 -38t-162 -110t-109.5 -162t-37.5 -190t37.5 -191.5t109.5 -162.5q72 -72 162 -109t190 -37q102 0 192.5 37t162.5 109l174 -172 q-102 -102 -237.5 -161t-291.5 -59q-154 0 -290 58.5t-237 160t-159.5 237.5t-58.5 290z" />
<glyph unicode="D" horiz-adv-x="1433" d="M72 0v1434h594q147 0 278 -56.5t228.5 -154t153.5 -228.5t56 -278t-56 -278.5t-153.5 -228.5t-228.5 -153.5t-278 -56.5h-254l100 246h154q94 0 180 35.5t153 101.5q66 68 102 153t36 181q0 94 -36 180t-102 154q-68 66 -153.5 101.5t-179.5 35.5h-349v-594v-348v-246 h-245z" />
<glyph unicode="E" horiz-adv-x="1097" d="M72 0v1434h964v-246h-719v-348h535l61 -246h-596v-348h719v-246h-964z" />
<glyph unicode="F" horiz-adv-x="1056" d="M72 0v1434h964v-246h-719v-348h535l61 -246h-596v-594h-245z" />
<glyph unicode="G" horiz-adv-x="1593" d="M51 719q0 154 58.5 290t160 237.5t237.5 159.5t290 58q156 0 291 -58t235 -161l-172 -174q-72 72 -163 110t-191 38t-190.5 -38t-162.5 -110t-109.5 -162t-37.5 -190t38 -191.5t109 -162.5q72 -72 162 -109t191 -37q100 0 191 37t163 109q96 100 131 231h-664l62 246h852 q4 -31 7 -61.5t3 -61.5q0 -154 -58.5 -290t-159.5 -237.5t-237.5 -160t-289.5 -58.5q-154 0 -290 58.5t-237.5 160t-160 237.5t-58.5 290z" />
<glyph unicode="H" horiz-adv-x="1230" d="M72 0v1434h245v-594h596v594h246v-1434h-246v594h-596v-594h-245z" />
<glyph unicode="I" horiz-adv-x="409" d="M82 0v1432h246v-1432h-246z" />
<glyph unicode="J" horiz-adv-x="1110" d="M20 147l175 175q104 -104 249 -105q150 0 254 105q51 51 78 115.5t27 135.5v861h246v-861q0 -125 -47.5 -234.5t-129 -191t-192.5 -129t-236 -47.5t-233.5 47.5t-190.5 128.5z" />
<glyph unicode="K" horiz-adv-x="1230" d="M72 0v1432h245v-543l541 541h348l-714 -715l718 -719h-348l-545 545v-541h-245z" />
<glyph unicode="L" horiz-adv-x="921" d="M72 0v246v1186h245v-1186h564v-246h-564h-245z" />
<glyph unicode="M" horiz-adv-x="1579" d="M72 2v1434h268l448 -697l451 697h268v-1434h-245v1016l-474 -731l-471 731v-1016h-245z" />
<glyph unicode="N" horiz-adv-x="1230" d="M72 2v1434h266l575 -981v981h246v-1434h-266l-576 981v-981h-245z" />
<glyph unicode="O" horiz-adv-x="1593" d="M51 719q0 154 58.5 290t160 237.5t237.5 159.5t290 58t290 -58t237 -159.5t159.5 -238t58.5 -289.5q0 -154 -58.5 -290t-159.5 -237.5t-237.5 -160t-289.5 -58.5q-154 0 -290 58.5t-237.5 160t-160 237.5t-58.5 290zM297 719q0 -100 38 -191.5t109 -162.5 q72 -72 162 -109t191 -37q100 0 191 37t163 109t108.5 162.5t36.5 191.5q0 100 -36.5 190t-108.5 162t-163 110t-191 38t-190.5 -38t-162.5 -110t-109.5 -162t-37.5 -190z" />
<glyph unicode="P" horiz-adv-x="1173" d="M72 0v1434h534q106 0 200.5 -41t164 -111t110.5 -163t41 -199t-41 -200.5t-110.5 -164.5t-163.5 -111t-201 -41h-205l101 246h104q111 0 191 80t80 191q0 113 -80 188q-80 80 -191 80h-289v-1188h-245z" />
<glyph unicode="Q" horiz-adv-x="1632" d="M51 719q0 154 58.5 290t159 237.5t236.5 159.5t290 58q156 0 291 -58t236 -159.5t159.5 -237.5t58.5 -290q0 -119 -33.5 -225.5t-95.5 -196.5l129 -131v-348l-745 745v348l438 -436q61 111 61 244q0 100 -36.5 190t-108.5 162t-162 110t-192 38q-100 0 -190.5 -38 t-162.5 -110t-108.5 -162t-36.5 -190t37 -191.5t108 -162.5q72 -72 162 -109t191 -37q27 0 52 3t50 7l195 -194q-68 -29 -143 -45.5t-154 -16.5q-154 0 -290 58.5t-236.5 160t-159 237.5t-58.5 290z" />
<glyph unicode="R" horiz-adv-x="1183" d="M72 0v403v650v381h536q106 0 199.5 -41t163 -111t110.5 -163t41 -199q0 -78 -21.5 -149t-59 -130t-92 -107.5t-120.5 -78.5l293 -455h-293l-260 403h-168l101 246h106q111 0 191 80q37 39 57.5 88t20.5 103q0 53 -20.5 102t-57.5 86q-80 80 -191 80h-291v-135v-404v-246 v-403h-245z" />
<glyph unicode="S" horiz-adv-x="1132" d="M51 1028q0 121 42 204t109.5 135t150.5 74.5t163 22.5q147 0 247.5 -34.5t160.5 -69.5q31 -18 52 -35.5t38 -32.5l-174 -176q-55 55 -113 84q-86 41 -180 41q-41 0 -82 -10t-72 -27q-90 -55 -90 -145q0 -55 37 -94q27 -31 74 -56q39 -20 82 -32.5t79 -22.5l25 -6 q10 -4 39 -12.5t67.5 -24.5t85 -38.5t91.5 -53.5q198 -131 198 -309q0 -100 -32.5 -181.5t-93 -137.5t-146.5 -87t-193 -31q-170 0 -303 54.5t-219 124.5l170 170q68 -61 152 -95q51 -20 96 -26t74 -6q53 0 97 13t77 36q69 50 69 133q0 53 -36 94q-29 33 -74 53 q-37 20 -78 32.5t-74 23.5q-10 4 -18 5t-14 5q-4 0 -13 4q-43 12 -124 43t-160 84q-186 125 -187 307z" />
<glyph unicode="T" horiz-adv-x="1169" d="M41 1188v246h422h246h419v-246h-419v-1188h-246v1188h-422z" />
<glyph unicode="U" horiz-adv-x="1327" d="M61 573v861h246v-861q0 -72 26.5 -136t78.5 -115q51 -51 115.5 -78t136.5 -27q147 0 251 105q51 51 78 115.5t27 135.5v861h246v-861q0 -125 -47.5 -234.5t-129 -191t-191.5 -129t-234 -47.5q-125 0 -235 47.5t-191.5 129t-129 191.5t-47.5 234z" />
<glyph unicode="V" horiz-adv-x="1411" d="M20 1434h267l436 -1092l405 1092h263l-533 -1434h-264z" />
<glyph unicode="W" horiz-adv-x="2033" d="M20 1434h259l317 -1010l293 1010h258l317 -1010l293 1010h256l-418 -1434h-256l-317 1010l-295 -1010h-256z" />
<glyph unicode="X" horiz-adv-x="1437" d="M20 0l545 717l-545 717h308l391 -514l391 514h307l-545 -717l545 -717h-307l-391 514l-391 -514h-308z" />
<glyph unicode="Y" horiz-adv-x="1437" d="M20 1434h291l408 -650l407 650h291l-553 -881l-22 -35v-33v-485h-246v518z" />
<glyph unicode="Z" horiz-adv-x="1175" d="M41 0v201l750 987h-750v246h938h156v-201l-750 -987h750v-246h-938h-156z" />
<glyph unicode="[" horiz-adv-x="659" d="M123 -244v1905h455v-246h-209v-1413h209v-246h-455z" />
<glyph unicode="\" horiz-adv-x="1390" d="M61 1733h234l1034 -1921h-233z" />
<glyph unicode="]" horiz-adv-x="659" d="M82 2h209v1413h-209v246h455v-1905h-455v246z" />
<glyph unicode="^" horiz-adv-x="1136" d="M102 846l326 588h281l325 -588h-280l-185 334l-184 -334h-283z" />
<glyph unicode="_" horiz-adv-x="1476" d="M102 -121h1272v-246h-1272v246z" />
<glyph unicode="`" horiz-adv-x="645" d="M123 1495h246l153 -358h-170z" />
<glyph unicode="a" horiz-adv-x="1193" d="M41 512q0 113 39 211t108.5 172t165 116t207.5 42q100 0 178 -31t138 -78v82h245v-1026h-245v512q0 123 -86 209t-209 86q-59 0 -113.5 -22.5t-95.5 -63.5q-86 -86 -86 -209q0 -121 86 -207q41 -43 95 -64.5t114 -21.5q61 0 110 21l88 -220q-94 -47 -219 -47 q-113 0 -208 42t-164.5 116t-108.5 172t-39 209z" />
<glyph unicode="b" horiz-adv-x="1193" d="M72 -2v1436h245v-492q59 47 137.5 78t178.5 31q113 0 208 -42t164.5 -116t108.5 -172t39 -211q0 -111 -39 -209t-108.5 -172t-165 -116t-207.5 -42q-121 0 -219 47l88 220q49 -20 110 -21q125 0 209 86q86 86 86 207q0 123 -86 209t-209 86q-119 0 -209 -86 q-86 -86 -86 -209v-430v-82h-245z" />
<glyph unicode="c" horiz-adv-x="964" d="M41 512q0 113 42 211t115.5 172t172 116t211.5 42t211 -42t172 -116l-174 -174q-86 86 -209 86q-119 0 -209 -86q-86 -86 -86 -209q0 -121 86 -207q43 -43 96 -64.5t113 -21.5q125 0 209 86l174 -174q-74 -74 -172.5 -116t-210.5 -42q-113 0 -211.5 42t-172 116 t-115.5 172t-42 209z" />
<glyph unicode="d" horiz-adv-x="1191" d="M41 512q0 113 39 211t108.5 172t165 116t207.5 42q98 0 176 -31t137 -78v492h246v-1436h-246v512q0 125 -86 209q-86 86 -206 86q-123 0 -209 -86t-86 -209q0 -121 86 -207q41 -43 95 -64.5t114 -21.5q59 0 108 21l88 -220q-94 -47 -217 -47q-113 0 -208 42t-164.5 116 t-108.5 172t-39 209z" />
<glyph unicode="e" horiz-adv-x="1163" d="M41 512q0 113 42 211t115.5 172t172 116t211.5 42t211 -42t171.5 -116t115.5 -172t42 -211q0 -66 -14 -123h-258h-537q20 -47 60 -84q43 -43 96 -64.5t113 -21.5q84 0 149 39l256 -102q-74 -86 -178 -134.5t-227 -48.5q-113 0 -211.5 42t-172 116t-115.5 172t-42 209z M313 635h537q-20 47 -59 86q-86 86 -209 86q-119 0 -209 -86q-39 -39 -60 -86z" />
<glyph unicode="f" horiz-adv-x="565" d="M51 0v698v244v2q2 98 39 187.5t107 158.5q70 70 159.5 107t188.5 37v-246q-51 0 -95 -19.5t-78 -52.5t-54.5 -77t-20.5 -95h145l62 -246h-207v-698h-246z" />
<glyph unicode="g" horiz-adv-x="1173" d="M41 514q0 113 37 211t103.5 172t159.5 116t204 42q106 0 188 -32t144 -79v80h245v-922q0 -111 -42 -209t-115.5 -171.5t-172 -116.5t-210.5 -43q-92 0 -174 28.5t-152 81.5l178 176q66 -41 148 -41q125 0 209 89q86 86 86 206v412q0 119 -86 209q-86 86 -209 86 q-119 0 -209 -86q-86 -90 -86 -209q0 -123 86 -209q90 -86 209 -86q61 0 110 21l92 -230q-92 -37 -198 -37h-4q-111 0 -209.5 42t-172 116t-116.5 172t-43 211z" />
<glyph unicode="h" horiz-adv-x="1093" d="M72 0v1434h245v-492q55 49 125 80t156 31q100 0 182 -38t140.5 -104.5t90 -154.5t31.5 -189v-567h-245v567q0 49 -18.5 92t-53.5 78q-70 70 -168 70q-100 0 -170 -70t-70 -170v-567h-245z" />
<glyph unicode="i" horiz-adv-x="389" d="M72 0v1024h245v-1024h-245zM72 1188v246h245v-246h-245z" />
<glyph unicode="j" horiz-adv-x="378" d="M-176 -162q51 0 96 19.5t79 53.5t53.5 79t19.5 96v940h245v-940q0 -98 -37.5 -188.5t-107.5 -159.5q-70 -72 -160 -109t-188 -37v246zM70 1190v246h245v-246h-245z" />
<glyph unicode="k" horiz-adv-x="1013" d="M72 0v1434h245v-748l338 338h349l-512 -512l512 -512h-347l-340 340v-340h-245z" />
<glyph unicode="l" horiz-adv-x="389" d="M72 0v1434h245v-1434h-245z" />
<glyph unicode="m" horiz-adv-x="1558" d="M61 0v1024h246v-90q59 51 125 85t133 34q92 0 151.5 -37t106.5 -103q55 59 143.5 99.5t192.5 40.5q86 0 150.5 -33t105.5 -90.5t61.5 -133t20.5 -163.5v-633h-246v633q0 72 -51 123q-49 51 -123 51t-123 -51q-51 -51 -51 -123v-633h-246v633q0 72 -51 123 q-25 27 -56.5 39t-66.5 12q-76 0 -125 -51q-51 -51 -51 -123v-633h-246z" />
<glyph unicode="n" horiz-adv-x="1083" d="M61 0v1024h246v-78q55 47 125 77t156 30q100 0 182 -38t140.5 -104.5t90 -154.5t31.5 -189v-567h-246v567q0 102 -71 170q-70 70 -168 70q-100 0 -170 -70t-70 -170v-567h-246z" />
<glyph unicode="o" horiz-adv-x="1163" d="M41 512q0 113 42 211t115.5 172t172 116t211.5 42t211 -42t171.5 -116t115.5 -172t42 -211q0 -111 -42 -209t-115.5 -172t-172 -116t-210.5 -42q-113 0 -211.5 42t-172 116t-115.5 172t-42 209zM287 512q0 -121 86 -207q41 -43 95 -64.5t114 -21.5q59 0 112.5 21.5 t96.5 64.5q86 86 86 207q0 123 -86 209q-90 86 -209 86q-123 0 -209 -86t-86 -209z" />
<glyph unicode="p" horiz-adv-x="1193" d="M72 -410v1436h245v-82q59 47 137.5 78t178.5 31q113 0 208 -42t164.5 -116t108.5 -172t39 -211q0 -111 -39 -209t-108.5 -172t-165 -116t-207.5 -42q-125 0 -219 47l88 220q49 -20 110 -21q59 0 112.5 21.5t96.5 64.5q86 86 86 207q0 123 -86 209q-90 86 -209 86 q-123 0 -209 -86t-86 -209v-430v-492h-245z" />
<glyph unicode="q" horiz-adv-x="1193" d="M41 512q0 113 39 211t108.5 172t165 116t207.5 42q100 0 178 -31t138 -78v82h245v-1436h-245v492v430q0 123 -86 209q-90 86 -209 86q-123 0 -209 -86t-86 -209q0 -121 86 -207q41 -43 95 -64.5t114 -21.5q61 0 110 21l88 -220q-98 -47 -219 -47q-113 0 -208 42 t-164.5 116t-108.5 172t-39 209z" />
<glyph unicode="r" horiz-adv-x="653" d="M72 0v514v512h245v-80q57 47 130 78t165 31v-246q-123 0 -209 -86q-86 -90 -86 -209v-514h-245z" />
<glyph unicode="s" horiz-adv-x="872" d="M51 719q0 86 30 148.5t79 103.5t112.5 60.5t130.5 19.5q104 0 177 -25t120 -53q53 -35 91 -78l-173 -172q-41 53 -90 77.5t-104 24.5q-43 0 -85 -20.5t-42 -65.5q0 -25 18.5 -42t45 -28.5t56 -19.5t54.5 -14t82 -28.5t117.5 -62.5t105.5 -99.5t45 -141.5 q0 -72 -23.5 -131t-68.5 -104t-110.5 -70t-147.5 -25q-125 0 -232.5 45t-172.5 111l170 170q53 -63 113.5 -81.5t101.5 -18.5q63 0 93.5 24.5t30.5 59.5q0 25 -20 43t-48 30.5t-56.5 19.5t-47.5 13q-25 8 -83 28.5t-118.5 59.5t-105.5 98.5t-45 143.5z" />
<glyph unicode="t" horiz-adv-x="622" d="M51 338v893l246 61v-391h143l62 -246h-205v-317q0 -39 26.5 -65.5t63.5 -26.5h164l61 -246h-225q-70 0 -131 26.5t-106.5 72.5t-72 107.5t-26.5 131.5z" />
<glyph unicode="u" horiz-adv-x="1083" d="M51 455v569h246v-569q0 -96 72 -168q70 -70 168 -70q100 0 170 70t69 168v569h246v-1024h-246v78q-55 -47 -124.5 -77t-155.5 -30q-100 0 -182.5 38t-140.5 103.5t-90 153.5t-32 189z" />
<glyph unicode="v" horiz-adv-x="1241" d="M10 1024h271l340 -733l340 733h270l-475 -1024h-271z" />
<glyph unicode="w" horiz-adv-x="1665" d="M10 1024h258l217 -662l217 662h261l217 -662l217 662h258l-346 -1024h-260l-218 659l-217 -659h-258z" />
<glyph unicode="x" horiz-adv-x="1204" d="M10 1022h316l276 -360l277 360h315l-434 -537l393 -485h-315l-236 311l-235 -311h-316l393 485z" />
<glyph unicode="y" horiz-adv-x="1241" d="M10 1024h271l340 -733l340 733h270l-475 -1024l-64 -139q-57 -125 -171.5 -199t-254.5 -74h-108l61 246h60q59 0 110 33t76 88l20 45z" />
<glyph unicode="z" horiz-adv-x="933" d="M31 0v166l493 612h-450v246h655v-2h174v-166l-493 -610h469v-246h-668h-180z" />
<glyph unicode="{" horiz-adv-x="595" d="M102 532v246q27 0 54.5 5t40.5 24q16 20 16 78.5t-35 156.5q-43 129 -43 238q0 127 66 217q16 25 42.5 49.5t64.5 45t89.5 33.5t116.5 13v-245q-29 0 -63.5 -7.5t-51.5 -31.5q-18 -25 -18 -78q0 -63 29 -154q23 -63 34 -121.5t13 -111.5q6 -135 -60 -225q-2 -2 -3 -4.5 t-3 -4.5q2 -4 6 -8q66 -94 60 -227q-2 -53 -13.5 -110.5t-33.5 -123.5q-29 -90 -29 -153q0 -51 18 -76q16 -25 51 -32t64 -7v-246q-66 0 -117 13.5t-89 33t-64.5 45t-42.5 50.5q-66 90 -66 217q0 109 43 235q35 98 35 157.5t-16 80.5q-12 16 -40 22t-55 6z" />
<glyph unicode="|" horiz-adv-x="450" d="M123 -270v1921h205v-1921h-205z" />
<glyph unicode="}" horiz-adv-x="595" d="M82 -82q29 0 63.5 7t51.5 32q18 25 18 76q0 63 -29 153q-23 66 -34 123.5t-13 110.5q-6 133 60 227q4 4 6 8q-2 2 -3 4.5t-3 4.5q-66 90 -60 225q2 53 13.5 111.5t33.5 121.5q29 90 29 154q0 53 -18 78q-16 25 -51 32t-64 7v245q66 0 117 -13t89 -33.5t64.5 -45 t42.5 -49.5q66 -90 66 -217q0 -109 -43 -238q-35 -98 -35 -156.5t16 -78.5q12 -18 40 -23.5t55 -5.5v-246q-27 0 -54.5 -6t-40.5 -22q-16 -20 -16 -79.5t35 -158.5q43 -127 43 -235q0 -127 -66 -217q-16 -25 -42.5 -50.5t-64.5 -45t-89.5 -33t-116.5 -13.5v246z" />
<glyph unicode="~" horiz-adv-x="1269" d="M82 668q0 104 37 182q41 86 119 129q90 51 209.5 36.5t250.5 -91.5q86 -51 142.5 -58.5t77.5 2.5q16 10 20 40t4 46h246q0 -96 -35 -176q-41 -84 -115 -123q-71 -41 -159 -41q-70 0 -148 25t-160 74q-37 23 -73.5 37t-69.5 20q-23 4 -41 3t-29 -7q-20 -12 -25 -46t-5 -52 h-246z" />
<glyph unicode="&#xa1;" horiz-adv-x="450" d="M103 -406h246v1024h-246v-1024zM103 782h246v246h-246v-246z" />
<glyph unicode="&#xa2;" horiz-adv-x="1107" d="M82 520q0 113 43 211t116.5 172t172 116t209.5 42q41 0 77 -6l80 188h138l-95 -221q102 -39 183 -119l-175 -174q-43 45 -102 68l-229 -545q63 -27 123 -27q123 0 208 86l175 -172q-74 -74 -172.5 -116.5t-210.5 -42.5q-115 0 -220 47l-96 -228h-135l123 293 q-98 74 -155.5 185.5t-57.5 242.5zM328 520q0 -106 69 -188l203 483q-109 -10 -184 -86q-88 -84 -88 -209z" />
<glyph unicode="&#xa3;" horiz-adv-x="1419" d="M102 0v246h179v266h-179v246h179v174q0 111 42 207t113.5 167.5t167.5 112.5t205 41q133 0 244.5 -59.5t183.5 -157.5l-170 -192q-20 43 -57 82q-82 82 -201 81q-117 0 -199 -81q-41 -41 -62.5 -92.5t-21.5 -108.5v-174h387v-246h-387v-266h432h125h9h245v-246h-254h-802 h-179z" />
<glyph unicode="&#xa5;" horiz-adv-x="1519" d="M61 1434h291l408 -650l407 650h291l-459 -732h203v-194h-319v-23v-129h319v-194h-319v-162h-246v162h-320v194h320v152h-320v194h203z" />
<glyph unicode="&#xa7;" horiz-adv-x="931" d="M82 535q0 82 26.5 143t73.5 102q-43 37 -71.5 88.5t-28.5 118.5q0 84 28.5 146.5t78 103.5t113 60.5t130.5 19.5q104 0 177 -24.5t120 -53.5q53 -35 90 -78l-172 -172q-41 53 -90 78t-104 25q-43 0 -84 -20.5t-41 -63.5q0 -25 18.5 -42.5t44 -29.5t55 -20.5t54.5 -14.5 t82 -28.5t117.5 -62.5t105.5 -99.5t45 -141.5q-1 -155 -105 -247q45 -39 75 -89.5t30 -115.5q0 -72 -23.5 -131.5t-68.5 -104.5t-110.5 -69.5t-147.5 -24.5q-125 0 -232.5 45t-173.5 111l170 170q53 -63 113.5 -82t101.5 -19q63 0 94 24.5t31 59.5q0 25 -20.5 43.5t-48 30.5 t-56 19.5t-47.5 13.5q-25 8 -83 29.5t-117.5 59.5t-104.5 97.5t-45 145.5zM328 555q0 -33 28.5 -52.5t65.5 -31.5q16 -4 30.5 -5t26.5 -1q63 0 94 24.5t31 59.5q0 33 -31.5 52.5t-68.5 33.5q-12 2 -24.5 3t-26.5 1q-43 0 -84 -20.5t-41 -63.5z" />
<glyph unicode="&#xa9;" horiz-adv-x="1587" d="M82 668q0 147 55.5 276t152.5 226.5t226.5 152.5t276.5 55t277 -55t226.5 -152.5t152.5 -226.5t56 -276t-56 -277.5t-152.5 -226.5t-226.5 -152.5t-277 -56.5t-276.5 56.5t-226.5 152.5t-152.5 226t-55.5 278zM164 668q0 -129 49 -246q47 -115 135 -201q84 -84 199 -135 q117 -49 246 -49t245 49q111 47 201 135q86 86 135 201q49 117 49 246t-49 245q-51 115 -135 199q-90 90 -201 135q-117 49 -245 49q-129 0 -246 -49q-115 -47 -199 -135q-88 -84 -135 -199q-49 -117 -49 -245zM352 668q0 92 35 172t94.5 139t139 94t172.5 35q92 0 173 -35 t140 -94l-143 -141q-70 70 -170 69q-100 0 -170 -69q-70 -70 -70 -170t70 -170q35 -35 79 -53.5t91 -18.5q102 0 170 72l143 -144q-59 -59 -140 -94t-173 -35t-172 35t-139.5 95.5t-94.5 140t-35 172.5z" />
<glyph unicode="&#xad;" horiz-adv-x="1042" d="M123 614v246h797v-246h-797z" />
<glyph unicode="&#xae;" horiz-adv-x="862" d="M123 1128q0 63 24.5 120t66.5 97.5t98.5 65.5t119.5 25t119.5 -25t97.5 -65.5t65.5 -97t24.5 -120.5q0 -63 -24.5 -119.5t-65.5 -98.5t-97 -66.5t-120 -24.5q-63 0 -119.5 24.5t-98.5 66.5t-66.5 98.5t-24.5 119.5zM158 1128q0 -55 22 -106q23 -51 60 -88q35 -35 86 -57 q51 -23 106 -23q51 0 107 23q51 22 86 57q39 43 59 88q20 47 21 106q0 57 -21 107q-20 47 -59 86t-86 59q-49 20 -107 21q-59 0 -106 -21q-47 -20 -86 -59q-37 -33 -60 -86q-23 -55 -22 -107zM311 952v101v157v93h131q53 0 89 -36t36 -89q0 -39 -19.5 -69t-51.5 -44l71 -113 h-71l-64 101h-41l25 59h26q27 0 45 18q20 20 21 48q0 25 -21 45q-20 20 -45 20h-71v-33v-98v-59v-101h-60z" />
<glyph unicode="&#x2000;" horiz-adv-x="866" />
<glyph unicode="&#x2001;" horiz-adv-x="1733" />
<glyph unicode="&#x2002;" horiz-adv-x="866" />
<glyph unicode="&#x2003;" horiz-adv-x="1733" />
<glyph unicode="&#x2004;" horiz-adv-x="577" />
<glyph unicode="&#x2005;" horiz-adv-x="433" />
<glyph unicode="&#x2006;" horiz-adv-x="288" />
<glyph unicode="&#x2007;" horiz-adv-x="288" />
<glyph unicode="&#x2008;" horiz-adv-x="216" />
<glyph unicode="&#x2009;" horiz-adv-x="346" />
<glyph unicode="&#x200a;" horiz-adv-x="96" />
<glyph unicode="&#x2010;" horiz-adv-x="1042" d="M123 614v246h797v-246h-797z" />
<glyph unicode="&#x2011;" horiz-adv-x="1042" d="M123 614v246h797v-246h-797z" />
<glyph unicode="&#x2012;" horiz-adv-x="1042" d="M123 614v246h797v-246h-797z" />
<glyph unicode="&#x2013;" horiz-adv-x="1269" d="M123 614v246h1024v-246h-1024z" />
<glyph unicode="&#x2014;" horiz-adv-x="2293" d="M123 614v246h2048v-246h-2048z" />
<glyph unicode="&#x2026;" horiz-adv-x="1705" />
<glyph unicode="&#x202f;" horiz-adv-x="346" />
<glyph unicode="&#x205f;" horiz-adv-x="433" />
<glyph unicode="&#x25fc;" horiz-adv-x="1024" d="M0 0v1024h1024v-1024h-1024z" />
</font>
</defs>
</svg>
