<?xml version="1.0" standalone="no"?>
<!DOCTYPE svg PUBLIC "-//W3C//DTD SVG 1.1//EN" "http://www.w3.org/Graphics/SVG/1.1/DTD/svg11.dtd" >
<svg xmlns="http://www.w3.org/2000/svg" xmlns:xlink="http://www.w3.org/1999/xlink" version="1.1">
<metadata>
Created by FontForge 20190801 at Wed Apr 27 11:36:36 1994
 By www-data
URW Software, Copyright 1994 by URW
</metadata>
<defs>
<font id="Splendid" horiz-adv-x="1024" >
  <font-face 
    font-family="Splendid"
    font-weight="400"
    font-stretch="normal"
    units-per-em="2048"
    panose-1="0 0 0 0 0 0 0 0 0 0"
    ascent="1491"
    descent="-557"
    x-height="912"
    cap-height="1365"
    bbox="-385 -567 2231 1786"
    underline-thickness="86"
    underline-position="-266"
    unicode-range="U+0020-2219"
  />
<missing-glyph horiz-adv-x="512" 
d="M51 0v1365h410v-1365h-410zM410 51v1263h-308v-1263h308z" />
    <glyph glyph-name=".notdef" horiz-adv-x="512" 
d="M51 0v1365h410v-1365h-410zM410 51v1263h-308v-1263h308z" />
    <glyph glyph-name="glyph1" horiz-adv-x="0" 
 />
    <glyph glyph-name="glyph2" horiz-adv-x="512" 
 />
    <glyph glyph-name="space" unicode=" " horiz-adv-x="512" 
 />
    <glyph glyph-name="exclam" unicode="!" horiz-adv-x="572" 
d="M241 227q46 0 79 -33.5t33 -79.5q0 -47 -33 -80.5t-81 -33.5q-47 0 -80 33.5t-33 80.5t33.5 80t81.5 33zM330 419h-27q56 300 66.5 378t16.5 258q8 226 21 272q11 38 39.5 62t64.5 24q40 0 71 -31t31 -72q0 -47 -19.5 -105.5t-122.5 -321.5q-95 -250 -141 -464z" />
    <glyph glyph-name="quotedbl" unicode="&#x22;" horiz-adv-x="655" 
d="M216 883l-18 4l34 402q5 64 7.5 77.5t10.5 27.5q21 37 61 37q30 0 51 -20t21 -49q0 -16 -25 -86zM448 883l-18 4l34 402q5 64 7.5 77.5t10.5 27.5q21 37 61 37q30 0 51 -20t21 -49q0 -17 -25 -86z" />
    <glyph glyph-name="numbersign" unicode="#" 
d="M740 464l-138 -464h-54l137 464h-371l-137 -464h-55l137 464h-232l16 55h232l106 354h-233l17 55h232l129 437h55l-130 -437h372l129 437h55l-130 -437h233l-16 -55h-233l-105 -354h233l-17 -55h-232zM702 519l105 354h-372l-105 -354h372z" />
    <glyph glyph-name="dollar" unicode="$" 
d="M400 8l122 574q-27 22 -89 73q-87 73 -114 109q-60 79 -60 178q0 133 95 225q104 102 314 105l32 148h34l-32 -148q73 -12 114 -31q64 -28 105 -85q44 -63 44 -130q0 -54 -33 -92.5t-79 -38.5q-42 0 -70 28t-28 69t29 70.5t70 29.5q39 0 77 -37q-10 78 -74 128t-162 56
l-106 -499q123 -95 167 -142q45 -48 73 -116.5t28 -128.5q0 -115 -80 -219q-56 -73 -141.5 -113.5t-183.5 -40.5q-5 0 -24 1l-32 -151h-34l31 148q-101 12 -169 42q-72 32 -121 97q-44 61 -44 131q0 53 36 93q32 36 79 36q41 0 70.5 -28.5t29.5 -68.5q0 -41 -27 -68t-67 -27
q-37 0 -87 38q11 -90 93 -147.5t214 -67.5zM661 1237q-108 -5 -170 -64q-75 -70 -75 -175q0 -89 61 -155q14 -16 83 -80zM435 12q66 11 98.5 24t64.5 41q101 91 101 229q0 71 -34 129t-114 125z" />
    <glyph glyph-name="percent" unicode="%" horiz-adv-x="1517" 
d="M1107 1229h61l-684 -1229h-61zM450 1242q102 0 165 -79q53 -66 53 -188q0 -115 -31 -224.5t-85 -183.5q-38 -54 -100 -85.5t-127 -31.5q-114 0 -172 86q-44 65 -44 180q0 120 35.5 238t91.5 183q91 105 214 105zM445 1210q-81 0 -136 -130q-42 -101 -68.5 -226.5
t-26.5 -222.5q0 -69 27 -108q30 -42 85 -42q48 0 84 37.5t71 123.5q34 83 57.5 192.5t23.5 185.5q0 188 -117 190zM1269 779q102 0 165 -80q53 -66 53 -187q0 -115 -31 -225t-85 -184q-38 -53 -100 -85t-127 -32q-114 0 -172 86q-44 65 -44 180q0 121 35.5 239t91.5 183
q90 105 214 105zM1264 747q-82 0 -136 -130q-42 -101 -68.5 -227t-26.5 -222q0 -70 27 -108q30 -43 85 -43q48 0 84 37.5t71 124.5q34 82 57.5 192t23.5 186q0 188 -117 190z" />
    <glyph glyph-name="ampersand" unicode="&#x26;" horiz-adv-x="1315" 
d="M172 -154l26 14q46 -84 96 -125q90 -73 210 -73q158 0 263 123q53 62 77 137t29 195q-106 -55 -181 -76t-166 -21q-190 0 -327 102q-65 48 -102 118.5t-37 146.5q0 206 236 349q113 69 310 140q-37 137 -37 218q0 117 54 191q73 100 195 100q90 0 153 -60q64 -60 64 -149
q0 -63 -36.5 -120.5t-101.5 -95.5q-79 -46 -242 -104l29 -61l34 -72q135 2 173 2h168q137 0 174.5 8.5t67.5 48.5q-26 -6 -41 -6q-39 0 -69 30t-30 71q0 39 29.5 66.5t71.5 27.5q45 0 76 -31.5t31 -76.5q0 -76 -77 -130q-50 -36 -191 -36l-25 1l-185 4q77 -43 112 -91
q60 -81 60 -175q0 -90 -75 -212q17 -70 17 -125q0 -223 -153 -357q-134 -117 -314 -117q-248 0 -366 221zM620 839q-195 -72 -289 -173q-94 -102 -94 -251q0 -160 110 -258q46 -41 114 -65.5t136 -24.5q112 0 276 82q-12 135 -30.5 190t-149.5 352q-91 -23 -138 -63
q-66 -58 -66 -139q0 -30 16 -67q22 94 101 94q42 0 71 -30t29 -72q0 -44 -30 -73.5t-75 -29.5q-58 0 -101 47q-46 52 -46 119q0 104 87 180q50 43 135 61q-30 63 -56 121zM974 264q55 84 55 164q0 125 -87 204q-40 37 -85 51t-123 15q34 -54 105 -161q81 -122 135 -273z
M639 886q193 71 253 114q109 78 109 176q0 71 -55 123t-129 52q-76 0 -135 -57q-79 -77 -79 -196q0 -66 36 -212z" />
    <glyph glyph-name="quotesingle" unicode="'" horiz-adv-x="389" 
d="M226 883l-18 4l34 402q5 64 7.5 77.5t10.5 27.5q21 37 61 37q30 0 51 -20t21 -49q0 -16 -25 -86z" />
    <glyph glyph-name="parenleft" unicode="(" horiz-adv-x="425" 
d="M546 1502h41q-135 -192 -204.5 -318.5t-119.5 -273.5q-114 -335 -114 -703q0 -218 66 -480h-35q-46 127 -66 251.5t-20 289.5q0 366 110 666.5t342 567.5z" />
    <glyph glyph-name="parenright" unicode=")" horiz-adv-x="438" 
d="M-44 -273h-41q136 193 205 319t120 273q114 335 114 703q0 216 -66 480h34q47 -127 67 -251t20 -291q0 -365 -110 -665t-343 -568z" />
    <glyph glyph-name="asterisk" unicode="*" horiz-adv-x="616" 
d="M356 1087l-219 126l25 44l219 -126l53 247l50 -10l-53 -247l251 26l6 -51l-251 -26l102 -231l-46 -21l-103 231l-188 -169l-34 38z" />
    <glyph glyph-name="plus" unicode="+" 
d="M525 669l72 341h82l-72 -341h341l-17 -82h-342l-72 -341h-82l72 341h-341l17 82h342z" />
    <glyph glyph-name="comma" unicode="," horiz-adv-x="420" 
d="M184 10q-30 -14 -53 -14q-48 0 -80.5 33t-32.5 82q0 47 31.5 79t77.5 32q53 0 84.5 -35.5t31.5 -94.5q0 -106 -74 -207.5t-194 -158.5l-16 38q88 48 145 110.5t80 135.5z" />
    <glyph glyph-name="hyphen" unicode="-" horiz-adv-x="471" 
d="M36 587h471l-21 -100h-471z" />
    <glyph glyph-name="period" unicode="." horiz-adv-x="360" 
d="M121 220q45 0 77.5 -33t32.5 -79t-33 -79t-79 -33q-47 0 -79.5 33t-32.5 80q0 46 33 78.5t81 32.5z" />
    <glyph glyph-name="slash" unicode="/" horiz-adv-x="838" 
d="M1043 1532l53 -38l-1322 -1837l-53 39z" />
    <glyph glyph-name="zero" unicode="0" 
d="M659 1270q160 0 260 -122q90 -111 90 -315q0 -146 -47 -323.5t-117 -292.5q-143 -237 -383 -237q-141 0 -237 90q-123 114 -123 348q0 239 90 460q91 225 245 323q105 67 222 69zM668 1236q-167 0 -273 -264q-49 -123 -93.5 -345t-44.5 -342q0 -122 54.5 -196.5
t142.5 -74.5q101 0 168 81q50 61 96.5 185t83.5 297q56 258 56 381q0 275 -190 278z" />
    <glyph glyph-name="one" unicode="1" 
d="M800 1250l-237 -1216h167l-8 -34h-498l7 34h166l220 1084l-289 -166l-21 27l468 271h25z" />
    <glyph glyph-name="two" unicode="2" 
d="M904 356h27q-23 -191 -77 -274q-68 -102 -217 -102q-110 0 -272 83q-87 44 -125.5 57.5t-76.5 13.5q-53 0 -88.5 -33.5t-73.5 -118.5h-30q50 153 81 217q50 103 125.5 174t228.5 158q203 116 259 173q50 50 79 119.5t29 139.5q0 111 -78.5 187t-193.5 76q-71 0 -136 -29
t-107 -79q-37 -43 -46 -114q49 36 86 36q41 0 71 -30t30 -73t-30 -72.5t-74 -29.5q-51 0 -83 38.5t-32 100.5q0 124 97 203q114 93 278 93q174 0 289 -97q102 -87 102 -233q0 -181 -158 -300q-64 -49 -112 -70t-271 -98q-267 -93 -364 -353q87 62 183 62q50 0 153 -24
q159 -37 246 -37q151 0 221 66q46 44 60 170z" />
    <glyph glyph-name="three" unicode="3" 
d="M436 672l14 23q134 15 205 53q139 74 139 232q0 111 -65 181q-67 73 -182 73q-109 0 -189 -58t-104 -155q40 35 78 35q39 0 67 -28t28 -67q0 -40 -28 -68t-68 -28q-47 0 -77 34t-30 87q0 137 126 219q101 65 255 65q169 0 266 -84q94 -81 94 -201q0 -151 -155 -239
q-54 -31 -112.5 -45.5t-159.5 -21.5q108 -20 159.5 -38t91.5 -51q105 -85 105 -230q0 -134 -85 -234q-56 -67 -153.5 -106.5t-204.5 -39.5q-84 0 -166.5 27t-134.5 71q-40 34 -65 89.5t-25 110.5q0 82 49 137q44 49 104 49q42 0 72.5 -31.5t30.5 -76.5q0 -42 -30 -71
t-74 -29q-81 0 -106 81q-8 -37 -8 -62q0 -108 73 -177q80 -76 224 -76q132 0 211 81q53 54 84 127.5t31 143.5q0 72 -27 139t-69 100q-58 45 -189 59z" />
    <glyph glyph-name="four" unicode="4" 
d="M729 358l-69 -324h184l-7 -34h-519l7 34h174l69 324h-579q234 312 408.5 487.5t481.5 406.5h40l-167 -784q80 0 117 8t111 41q-46 -96 -96 -127.5t-155 -31.5zM592 468l131 620q-154 -112 -315 -275t-297 -345h481z" />
    <glyph glyph-name="five" unicode="5" 
d="M176 673l158 543q72 19 122 19q68 0 184 -16q96 -13 161 -13q76 0 178 40q-34 -91 -75.5 -126t-114.5 -35q-65 0 -162 12q-96 11 -168 11q-53 0 -125 -17l-122 -381q150 91 294 91q155 0 271 -89q143 -109 143 -286q0 -199 -164 -336q-133 -110 -316 -110q-146 0 -247 67
q-126 84 -126 232q0 87 48 141q48 52 110 52q41 0 70.5 -29.5t29.5 -71.5q0 -47 -30.5 -80.5t-73.5 -33.5q-77 0 -107 89q-16 -41 -16 -75q0 -114 94 -185q93 -71 209 -71q136 0 232 114q120 142 120 326q0 149 -87 234q-77 74 -190 74q-128 0 -264 -90h-36z" />
    <glyph glyph-name="six" unicode="6" 
d="M298 627q66 91 124 128q90 57 196 57q143 0 243 -101q97 -98 97 -258q0 -209 -134 -347q-124 -126 -311 -126q-195 0 -305 127q-107 124 -107 325q0 238 107 469q99 213 261 303q119 66 249 66q127 0 208 -64q84 -66 84 -160q0 -55 -32 -91.5t-80 -36.5q-43 0 -73.5 31.5
t-30.5 75.5q0 42 30 70t76 28q35 0 69 -22q-45 131 -209 131q-190 0 -306 -183q-67 -107 -156 -422zM587 775q-64 0 -124.5 -32.5t-105.5 -91.5q-87 -113 -87 -298q0 -158 60 -247q62 -92 167 -92q133 0 213 148q85 159 85 332q0 137 -60 212q-52 66 -148 69z" />
    <glyph glyph-name="seven" unicode="7" 
d="M115 880l73 379h34l-34 -175q55 75 98 109q97 77 221 77q49 0 85.5 -11t140.5 -56q129 -56 219 -56q124 0 162 112h41q-57 -134 -149 -242.5t-367 -365.5q-158 -148 -234.5 -242.5t-130.5 -209.5q40 17 67 17q50 0 82.5 -34t32.5 -85q0 -49 -35 -83t-85 -34q-54 0 -89 37
t-35 95q0 98 104 246t302 331q180 167 247 235t141 160q-112 -51 -201 -51q-54 0 -97.5 12t-119.5 48q-112 53 -191 53q-127 0 -191 -89q-21 -30 -42 -111q-12 -49 -17 -66h-32z" />
    <glyph glyph-name="eight" unicode="8" 
d="M681 699q102 -63 145 -108q95 -101 95 -246q0 -156 -125 -258q-129 -107 -330 -107q-176 0 -285 84q-124 95 -124 250q0 168 131 269q47 36 95.5 55.5t135.5 37.5q-71 51 -104 90q-73 86 -73 193q0 129 91 210q115 101 294 101q141 0 238 -68q106 -73 106 -202
q0 -218 -290 -301zM646 724q125 37 185 92q85 78 85 187q0 102 -77 168q-76 65 -184 65q-103 0 -173 -56q-39 -31 -62.5 -79t-23.5 -96q0 -95 106 -182q42 -35 92 -66q51 -33 52 -33zM450 653q-121 -21 -201 -83q-128 -98 -128 -249q0 -65 24.5 -126.5t66.5 -100.5
q85 -80 226 -80q150 0 244 105q71 80 71 187q0 117 -87 200q-66 62 -153 112q-61 35 -63 35z" />
    <glyph glyph-name="nine" unicode="9" 
d="M812 629q-70 -92 -131 -133q-92 -62 -199 -62q-139 0 -238 103q-104 108 -104 260q0 141 75 265q67 109 183 164q94 44 195 44q194 0 310 -142q99 -122 99 -327q0 -150 -42 -299t-115 -258q-177 -264 -446 -264q-122 0 -206 59q-86 59 -86 157q0 58 34 95q36 41 85 41
q42 0 71.5 -30t29.5 -74q0 -47 -31 -79.5t-76 -32.5q-33 0 -81 36q14 -44 39 -69q70 -68 186 -68q97 0 166.5 49.5t132.5 162.5q55 98 87.5 187t61.5 215zM600 1236q-114 0 -184 -113q-46 -76 -75 -179t-29 -195q0 -143 67 -217q57 -63 134 -63q65 0 134.5 38.5t113.5 99.5
q77 106 77 292q0 150 -57 234q-68 101 -181 103z" />
    <glyph glyph-name="colon" unicode=":" horiz-adv-x="516" 
d="M338 894q45 0 77.5 -33t32.5 -79t-32.5 -79t-79.5 -33t-79.5 33t-32.5 80q0 46 33 78.5t81 32.5zM182 196q45 0 77.5 -33t32.5 -79t-33 -79t-79 -33q-47 0 -79.5 33t-32.5 80q0 46 33 78.5t81 32.5z" />
    <glyph glyph-name="semicolon" unicode=";" horiz-adv-x="461" 
d="M303 894q45 0 77.5 -33t32.5 -79t-32.5 -79t-79.5 -33t-79.5 33t-32.5 80q0 46 33 78.5t81 32.5zM211 10q-30 -14 -53 -14q-48 0 -80.5 33t-32.5 82q0 47 31.5 79t77.5 32q53 0 84.5 -35.5t31.5 -94.5q0 -106 -74 -207.5t-194 -158.5l-16 38q88 48 145 110.5t80 135.5z
" />
    <glyph glyph-name="less" unicode="&#x3c;" 
d="M936 1254v-76l-642 -418l642 -428v-202l-848 566v13z" />
    <glyph glyph-name="equal" unicode="=" 
d="M944 778l-18 -82h-710l18 82h710zM897 560l-17 -82h-710l17 82h710z" />
    <glyph glyph-name="greater" unicode="&#x3e;" 
d="M184 130v76l641 418l-641 429v201l848 -566v-13z" />
    <glyph glyph-name="question" unicode="?" horiz-adv-x="942" 
d="M443 403h-28q9 102 39 174q28 63 63.5 100.5t119.5 93.5q111 73 155 143.5t44 176.5q0 113 -61 186q-80 96 -199 96t-208 -92q-39 -40 -56.5 -69.5t-30.5 -79.5q44 36 85 36q42 0 70 -29t28 -73q0 -43 -29.5 -72.5t-71.5 -29.5q-46 0 -74 26q-40 38 -40 101
q0 62 31.5 125t84.5 107q101 84 260 84q171 0 280 -94q110 -95 110 -252q0 -177 -151 -290q-47 -35 -78.5 -50t-164.5 -66q-83 -31 -119 -82t-59 -170zM359 210q45 0 77.5 -33t32.5 -79t-33 -79t-79 -33q-47 0 -79.5 33t-32.5 80q0 46 33 78.5t81 32.5z" />
    <glyph glyph-name="at" unicode="@" horiz-adv-x="1570" 
d="M1231 151l14 -31q-225 -154 -466 -154q-109 0 -217.5 33.5t-192.5 92.5q-120 86 -191 221q-75 144 -75 310q0 199 107 378q158 264 461 357q135 41 287 41q192 0 353 -69q140 -60 214 -183t74 -298q0 -101 -23 -189q-37 -138 -136 -233q-118 -114 -286 -114
q-91 0 -144.5 38t-53.5 102q0 39 39 222q-69 -156 -122 -230q-87 -121 -204 -121q-89 0 -146 76q-52 71 -52 165q0 146 91 282q86 130 250 189q103 37 205 37q83 0 179 -34l-96 -447q-30 -139 -30 -175q0 -75 83 -75q80 0 148 56.5t112 157.5q60 142 60 314q0 178 -78 294
q-56 84 -148 134q-124 67 -270 67q-141 0 -287 -57q-227 -87 -355 -295q-115 -185 -115 -396q0 -222 125 -389q86 -117 221 -177q116 -51 232 -51q206 0 433 151zM1072 1044q-34 3 -50 3q-102 0 -201 -62q-114 -71 -175 -216q-49 -115 -49 -234q0 -74 28 -117q15 -23 40 -38
t49 -15q94 0 199 185q44 77 81 178t54 187z" />
    <glyph glyph-name="A" unicode="A" horiz-adv-x="1753" 
d="M1698 1332l-276 -1298h204l-8 -34h-576l7 34h205q11 107 11 151q0 165 -70 288t-208 202q-45 -98 -111 -237q-110 -230 -157.5 -320t-122.5 -212q113 -69 288 -104l-6 -33q-190 39 -299 109q-105 -148 -191 -223q-176 -155 -359 -155q-123 0 -207 68q-95 77 -95 192
q0 82 53 139t130 57q49 0 81.5 -29.5t32.5 -73.5q0 -42 -30 -72t-72 -30t-72 30t-30 71q0 20 13 52q-72 -55 -72 -144q0 -96 78 -162q76 -64 188 -64q256 0 506 371q-221 181 -221 411q0 187 138 315q131 122 321 122q74 0 189 -30q126 209 187 291.5t151 163.5
q214 194 476 194q29 0 89 -4l-7 -34q-59 4 -74 4q-26 0 -84 -6zM1520 1285q-106 -52 -177.5 -112.5t-150.5 -165.5q-96 -127 -188 -302q136 -78 207.5 -194.5t84.5 -280.5zM549 -65q49 82 137 264l76 150l60 118l63 117q42 80 58 108q-101 27 -168 27q-178 0 -298 -109
q-131 -118 -131 -295q0 -210 203 -380z" />
    <glyph glyph-name="B" unicode="B" horiz-adv-x="1342" 
d="M368 34l71 337q-113 36 -190 108q-140 132 -140 328q0 238 197 416q201 182 503 186q114 121 251 200l13 -19q-116 -102 -171 -185q409 -39 409 -324q0 -160 -126 -248q-46 -33 -97.5 -50t-147.5 -33q159 -35 225 -85q56 -41 88 -109.5t32 -145.5q0 -122 -78 -217
q-126 -153 -349 -177q-142 -16 -249 -16h-447l8 34h198zM446 404l102 480q64 301 233 494q-146 -5 -274 -63q-174 -78 -276 -228q-89 -131 -89 -282q0 -145 79 -249t225 -152zM881 1371q-55 -97 -89.5 -195t-68.5 -258l-32 -151h32h25q166 0 260 68q125 91 125 256
q0 111 -65.5 184t-186.5 96zM684 734l-76 -359q37 -3 54 -3q94 0 244 66l14 -31q-157 -69 -258 -69q-24 0 -61 3l-66 -307h74q115 0 208 27.5t147 77.5q61 57 95.5 134.5t34.5 158.5q0 158 -117 240q-89 63 -244 63q-15 0 -49 -1z" />
    <glyph glyph-name="C" unicode="C" horiz-adv-x="1260" 
d="M1208 338l25 -13q-56 -103 -107 -161t-127 -105q-149 -93 -342 -93q-199 0 -344 119q-113 91 -160 211q-44 113 -44 260q0 303 173 534q111 150 259 231t310 81q197 0 315 -99q57 -49 90.5 -120t33.5 -146q0 -71 -37 -115.5t-95 -44.5q-40 0 -68.5 31t-28.5 75t28.5 75
t68.5 31q75 0 100 -91q6 39 6 57q0 107 -81 195q-48 52 -122 82t-155 30q-150 0 -286 -102q-135 -101 -222 -284q-98 -205 -98 -423q0 -251 126 -406q52 -64 129.5 -99.5t165.5 -35.5q133 0 256 73q75 45 125 99.5t106 153.5z" />
    <glyph glyph-name="D" unicode="D" horiz-adv-x="1559" 
d="M880 1387q136 -11 259 -58q215 -82 323 -243q101 -150 101 -339q0 -248 -160 -451q-119 -152 -302 -224t-449 -72h-510l7 34h198l71 336q-119 43 -194 118q-129 129 -129 314q0 175 110 322q90 121 239 189t340 75q56 67 121 123.5t134 100.5l20 -20q-107 -86 -179 -205z
M860 1352q-66 -119 -101 -227.5t-86 -345.5l-86 -406q27 -1 39 -1q175 0 315 107l21 -27q-152 -113 -341 -113q-16 0 -41 1l-65 -306q143 0 214.5 9.5t161.5 40.5q263 92 376 308q101 193 101 392q0 171 -72 304t-201 201q-106 56 -235 63zM426 404l77 366q79 369 251 582
q-140 -8 -250 -49q-176 -65 -276 -202q-99 -138 -99 -298q0 -141 77.5 -245t219.5 -154z" />
    <glyph glyph-name="E" unicode="E" horiz-adv-x="921" 
d="M859 789v-34h-82q-212 0 -331 -58q-116 -57 -175 -159q-50 -85 -50 -186q0 -155 113 -253q90 -78 213 -78q141 0 253 98q76 66 141 200l26 -12q-73 -152 -157 -222q-135 -112 -325 -112q-155 0 -277 72q-78 46 -124 128q-43 78 -43 174q0 141 91 255q131 164 429 187
q-77 23 -117.5 43.5t-76.5 54.5q-85 81 -85 197q0 136 109 226q113 91 279 91q137 0 223 -69q83 -66 83 -162q0 -63 -37.5 -104.5t-94.5 -41.5q-46 0 -75 28.5t-29 71.5t29 73t70 30q40 0 67.5 -29.5t27.5 -72.5q0 -8 -1 -21q15 30 15 60q0 84 -68 141q-69 58 -165 58
q-116 0 -191 -84.5t-75 -214.5q0 -80 29 -132t96 -89q96 -54 203 -54h82z" />
    <glyph glyph-name="F" unicode="F" horiz-adv-x="1360" 
d="M1620 1365l-64 -318h-35l25 115q7 31 7 55q0 75 -65 102q-28 12 -110 12h-271q-69 -155 -97 -257t-57 -303h122q93 0 132.5 12.5t65.5 49.5q22 32 38 107l13 60h34l-111 -521h-34l23 106q11 51 11 69q0 45 -46 68q-21 10 -41.5 12.5t-83.5 2.5h-128q-23 -125 -38 -182.5
t-51 -155.5q58 -22 135 -36l-9 -33q-73 13 -142 39q-48 -97 -90.5 -154t-108.5 -113q-169 -142 -390 -142q-151 0 -236 72q-86 73 -86 180q0 80 50 138.5t118 58.5q46 0 78.5 -29.5t32.5 -72.5q0 -41 -32 -70.5t-76 -29.5q-63 0 -89 56q-8 15 -9 56q-39 -48 -39 -115
q0 -76 60 -134q81 -80 200 -80q147 0 271 102q66 54 110.5 127t96.5 210q-268 171 -268 426q0 164 107 291q88 103 202.5 156.5t269.5 62.5q88 106 136 147.5t157 104.5l16 -22q-74 -46 -116.5 -94t-86.5 -136h499zM1001 1331q-187 -15 -326 -115q-205 -146 -205 -362
q0 -229 244 -393q30 107 64 276q39 197 92 338t131 256z" />
    <glyph glyph-name="G" unicode="G" horiz-adv-x="1424" 
d="M775 509h652l-7 -34h-154l-101 -456q-41 55 -85 55q-32 0 -115 -38q-86 -39 -150.5 -54.5t-142.5 -15.5q-231 0 -384 121q-203 162 -203 478q0 304 177 529q143 180 350 255q118 43 251 43q190 0 318 -83q142 -92 142 -256q0 -80 -37 -130.5t-95 -50.5q-44 0 -74.5 31
t-30.5 75t30.5 75.5t72.5 31.5q59 0 99 -66q3 29 3 48q0 57 -34 116t-89 98q-93 65 -238 65q-243 0 -396 -154q-109 -110 -177 -269q-88 -206 -88 -415q0 -239 123 -382q110 -129 306 -129q114 0 209 48q67 34 101.5 88t57.5 163l38 179h-336z" />
    <glyph glyph-name="H" unicode="H" horiz-adv-x="1804" 
d="M708 745h759l124 586h-205l8 34h570l-7 -34h-198l-276 -1297h198l-7 -34h-571l8 34h205l143 677h-759l-116 -548q-42 -196 -91 -306q-97 -216 -256 -319q-147 -95 -313 -95q-144 0 -231 80q-78 73 -78 180q0 84 49 144t117 60q47 0 78.5 -31.5t31.5 -78.5q0 -43 -30 -73
t-73 -30q-46 0 -74 31t-29 84q-36 -49 -36 -106q0 -100 72.5 -163t188.5 -63q266 0 402 293q25 56 41.5 118t62.5 275l248 1168h-205l8 34h570l-7 -34h-198z" />
    <glyph glyph-name="I" unicode="I" horiz-adv-x="646" 
d="M601 1331l-276 -1297h198l-7 -34h-564l7 34h198l276 1297h-198l7 34h564l-7 -34h-198z" />
    <glyph glyph-name="J" unicode="J" horiz-adv-x="764" 
d="M740 1331l-279 -1315q-37 -175 -74 -253q-75 -159 -209 -241q-111 -68 -241 -68q-132 0 -223 65q-97 68 -97 187q0 92 63 160q51 55 109 55q44 0 75 -29.5t31 -71.5q0 -43 -31 -74t-75 -31q-29 0 -55 15t-37 38q-1 2 -11 25q-2 6 -8 18q-27 -43 -27 -93q0 -103 75 -164
q82 -68 189 -68q173 0 268 176q57 105 110 354l279 1315h-218l7 34h605l-7 -34h-219z" />
    <glyph glyph-name="K" unicode="K" horiz-adv-x="1930" 
d="M1097 1331l-124 -581l545 498q131 120 237 120q71 0 119.5 -48t48.5 -119q0 -57 -34.5 -95t-86.5 -38q-41 0 -69.5 27.5t-28.5 68.5q0 39 28 67t67 28q43 0 91 -45q-4 44 -25 70q-41 50 -114 50q-86 0 -211 -112l-438 -393l307 -549q83 -148 139 -201t130 -53
q84 0 135 56.5t80 179.5l33 -9q-34 -135 -87 -194q-89 -100 -234 -100q-100 0 -181 55q-44 30 -71 64t-82 128l-303 520l-24 -114q-26 -123 -87 -248t-132 -203q-183 -199 -418 -199q-151 0 -255 87q-93 78 -93 204q0 121 82 205q75 77 181 77q90 0 150 -53q65 -57 65 -147
q0 -62 -34.5 -103.5t-87.5 -41.5q-44 0 -76 32.5t-32 77.5q0 43 30.5 73t74.5 30q78 0 100 -78q1 7 1 10q0 66 -57.5 116t-133.5 50q-93 0 -159 -68q-70 -72 -70 -178q0 -112 84 -184q83 -71 188 -71q119 0 219 70t170 202q84 159 125 354l150 705h-231l8 34h581l-7 -34
h-183z" />
    <glyph glyph-name="L" unicode="L" horiz-adv-x="1019" 
d="M1688 -71l14 -6q-33 -93 -75 -141q-96 -109 -258 -109q-143 0 -369 107q-99 47 -449 250q-71 41 -174 85q-156 -141 -315 -141q-62 0 -102 24q-56 33 -56 87q0 53 55 88t140 35q82 0 229 -42q32 88 42 139t45 290q47 323 129 493q77 160 190 243q101 75 222 75
q106 0 169 -56q62 -56 62 -144q0 -83 -54 -137q-52 -52 -124 -52q-48 0 -78.5 28.5t-30.5 72.5q0 43 30 73t71 30q40 0 67.5 -29t27.5 -72q0 -25 -17 -60q76 53 76 140q0 79 -51 125q-52 47 -134 47q-144 0 -224 -142q-27 -48 -44.5 -107t-49.5 -213q-75 -357 -157 -588
q-24 -66 -35 -86.5t-62 -89.5q121 -54 394 -183q381 -181 607 -181q129 0 214 56q42 27 75 91zM314 137q-137 37 -208 37q-72 0 -120 -24t-48 -61q0 -35 34.5 -58t87.5 -23q95 0 169 49q27 17 85 80z" />
    <glyph glyph-name="M" unicode="M" horiz-adv-x="1850" 
d="M1805 1331l-276 -1297h198l-7 -34h-564l7 34h198l273 1282l-680 -711q61 -149 61 -278q0 -158 -69 -263q-30 -45 -77 -72.5t-94 -27.5q-66 0 -110 49t-44 122q0 161 212 380l-362 775l-267 -1256h198l-8 -34h-442l7 34h198l276 1297h-198l7 34h376l322 -730l695 730h375
l-7 -34h-198zM847 484q-192 -202 -192 -353q0 -54 34 -93.5t81 -39.5q63 0 105.5 59t42.5 145q0 116 -71 282z" />
    <glyph glyph-name="N" unicode="N" horiz-adv-x="1723" 
d="M932 1250l-129 -552q-50 -215 -78 -297q-84 -249 -236 -360q-119 -86 -259 -86q-125 0 -207 66q-91 73 -91 189q0 91 59 150q55 54 130 54q46 0 76.5 -29.5t30.5 -73.5q0 -43 -31.5 -74.5t-75.5 -31.5q-41 0 -71.5 31t-30.5 73q0 12 3 32q-56 -70 -56 -136
q0 -94 74 -156.5t185 -62.5q226 0 378 234q74 114 121 296q6 26 40 182l141 633h-212l7 34h361l383 -1045l188 811q33 144 50 199t47 120q66 143 164 210q77 53 157 53q76 0 128 -44q53 -46 53 -113q0 -58 -36 -98.5t-88 -40.5q-45 0 -75.5 29.5t-30.5 72.5q0 42 30 72
t72 30q73 0 94 -77q2 13 2 22q0 45 -45.5 79t-105.5 34q-108 0 -194 -97q-68 -77 -106.5 -170.5t-81.5 -287.5l-261 -1166z" />
    <glyph glyph-name="O" unicode="O" horiz-adv-x="1560" 
d="M904 1399q196 0 354 -84q174 -92 246 -275q47 -117 47 -266q0 -216 -119 -421q-122 -209 -320 -310q-152 -77 -356 -77q-265 0 -442 144q-199 162 -199 444q0 260 136 484q127 208 340 298q143 61 313 63zM931 1365q-170 0 -315 -118q-140 -114 -228 -324
q-87 -208 -87 -424q0 -225 118 -363q115 -136 305 -136q318 0 496 317q68 122 106 260q39 143 39 262q0 240 -121 384q-117 139 -313 142z" />
    <glyph glyph-name="P" unicode="P" horiz-adv-x="1281" 
d="M1050 1610l17 -19q-107 -107 -161 -181q130 -7 224 -38q110 -37 171.5 -118.5t61.5 -189.5q0 -183 -141 -295q-157 -125 -403 -125q-57 0 -156 13l-61 -285q157 0 286 72l19 -32q-163 -74 -291 -74h-21l-65 -304h256l-8 -34h-625l7 34h202l71 330q-91 29 -151 73
q-82 60 -127.5 156t-45.5 210q0 250 189 419q93 83 223.5 132t278.5 57q87 87 250 199zM439 396l107 501q66 303 222 479q-128 -11 -244 -59q-176 -72 -277 -206q-104 -138 -104 -309q0 -151 77 -256t219 -150zM882 1375q-68 -104 -99 -195.5t-77 -320.5l-37 -174
q50 -6 74 -6q189 0 301 96q135 116 135 308q0 261 -297 292z" />
    <glyph glyph-name="Q" unicode="Q" horiz-adv-x="1553" 
d="M833 -31q127 -35 207 -64.5t295 -121.5q212 -90 339.5 -125t243.5 -35q86 0 138.5 33.5t96.5 116.5l24 -11q-36 -108 -97 -167q-93 -88 -215 -88q-97 0 -216 45.5t-330 164.5q-444 250 -680 250q-71 0 -147 -29t-127 -76q-67 -61 -82 -182l-33 7q17 162 163 250
q63 37 140 52q-139 40 -238 121q-199 163 -199 444q0 258 137 484q125 207 339 298q147 63 316 63q196 0 352 -83q173 -91 246 -275q46 -117 46 -255q0 -266 -155 -490q-105 -151 -242 -231t-322 -96zM932 1369q-170 0 -315 -118q-140 -115 -228 -326q-87 -209 -87 -426
q0 -228 118 -363q59 -68 143 -106.5t174 -38.5q196 0 362 166q137 136 212 366q55 171 55 317q0 241 -121 386q-117 140 -313 143z" />
    <glyph glyph-name="R" unicode="R" horiz-adv-x="1217" 
d="M977 1611l19 -18q-116 -89 -188 -205q104 -3 191 -30q132 -40 193 -134q47 -72 47 -158q0 -161 -138 -258q-77 -54 -228 -93q64 -45 97.5 -113.5t119.5 -324.5q78 -232 115 -318t83 -134q74 -81 169 -81q38 0 70.5 13.5t97.5 56.5l18 -25q-138 -106 -262 -106
q-123 0 -226 81q-68 54 -114.5 144t-112.5 299q-94 294 -134 388q-27 61 -50 77.5t-83 16.5h-74l-64 -304q58 -20 126 -33l-5 -33q-70 13 -128 33l-68 -318h212l-7 -34h-578l7 34h198l83 389q-259 161 -259 419q0 199 142 351q85 91 195 137t269 57q102 119 267 224z
M370 458l47 219q51 242 113 397.5t155 280.5q-121 -9 -224 -54q-176 -76 -258 -226q-65 -116 -65 -236q0 -233 232 -381zM788 1353q-58 -106 -89 -195t-62 -237l-43 -201q140 4 225 30q128 39 193 143q51 82 51 180q0 121 -69.5 192t-205.5 88z" />
    <glyph glyph-name="S" unicode="S" horiz-adv-x="992" 
d="M1060 1371l-80 -377h-34l17 78q10 48 10 82q0 92 -82 158q-73 58 -172 58q-110 0 -180 -73q-67 -69 -67 -172q0 -75 37 -136t152 -173q152 -149 196 -214q71 -106 71 -223q0 -179 -150 -300q-139 -113 -336 -113q-172 0 -288 89q-123 95 -123 245q0 120 73 198
q64 68 159 68q64 0 107.5 -40.5t43.5 -100.5q0 -49 -30 -83.5t-73 -34.5q-42 0 -72 30t-30 72t29.5 72.5t70.5 30.5q8 0 25 -3q-33 23 -69 23q-81 0 -137 -59q-63 -67 -63 -171q0 -137 110 -224q98 -77 250 -77q149 0 239 87q101 99 101 237q0 90 -46 166.5t-173 195.5
q-116 109 -158 174q-62 99 -62 202q0 147 116 244q110 92 257 92q136 0 312 -100l15 72h34z" />
    <glyph glyph-name="T" unicode="T" horiz-adv-x="1064" 
d="M963 1277l-264 -1246h243l-7 -31h-614l6 31h202l271 1256q-93 5 -141 5q-226 0 -345 -77q-78 -49 -121.5 -122.5t-43.5 -154.5q0 -66 23 -114.5t75 -90.5q-14 37 -14 59q0 39 30 67.5t71 28.5q43 0 73.5 -29.5t30.5 -70.5q0 -45 -33.5 -75.5t-81.5 -30.5q-83 0 -143 70
q-65 76 -65 187q0 151 127 264q102 91 244.5 128.5t387.5 37.5q73 0 193 -2q73 -2 107 -2q138 0 207 37.5t98 127.5l32 -9q-33 -99 -63 -144t-80 -71q-77 -39 -225 -39q-59 0 -180 10z" />
    <glyph glyph-name="U" unicode="U" horiz-adv-x="1757" 
d="M567 432q-119 16 -213 60q-122 57 -189 155.5t-67 218.5q0 185 131 319q175 180 526 180h347l-8 -34h-170l-185 -866q173 23 290 116q131 103 131 279q0 17 -2 52l34 5q1 -40 1 -58q0 -207 -168 -323q-101 -71 -231 -96q-51 -9 -62 -12q-1 -33 -1 -53q0 -111 36 -184
q87 -180 322 -180q199 0 317 141q82 98 129 316l183 863h-191l7 34h432l-7 -34h-192l-186 -876q-28 -133 -66 -214.5t-99 -139.5q-143 -138 -366 -138q-135 0 -239 38.5t-160 109.5q-86 108 -86 266q0 17 2 55zM572 465l184 866q-165 -1 -292 -40q-147 -46 -239 -164
q-93 -119 -93 -260q0 -157 119.5 -266.5t320.5 -135.5z" />
    <glyph glyph-name="V" unicode="V" horiz-adv-x="1294" 
d="M354 1331h-180l7 34h505l-7 -34h-157l147 -1160l513 584q160 183 160 341q0 139 -101 224q-88 75 -221 75q-111 0 -193.5 -49t-114.5 -134q42 25 77 25q49 0 83 -34.5t34 -83.5q0 -45 -31 -75t-77 -30q-56 0 -92.5 36t-36.5 91q0 120 99.5 204t242.5 84q148 0 247 -81
q118 -97 118 -253q0 -167 -167 -359l-687 -787z" />
    <glyph glyph-name="W" unicode="W" horiz-adv-x="1915" 
d="M2009 1331l-682 -1384l-242 845l-600 -845l-109 1384h-182l7 34h557l-8 -34h-207l90 -1116l441 611q-86 299 -86 412q0 138 96 220q69 59 149 59q66 0 116 -48q49 -48 49 -120q0 -56 -18 -105t-66 -127q-16 -26 -101 -153l210 -749l543 1116h-222l7 34h454l-7 -34h-189z
M1201 1000q106 161 133.5 219.5t27.5 122.5q0 59 -32 96t-83 37q-55 0 -87 -44q-33 -47 -33 -106q0 -83 74 -325z" />
    <glyph glyph-name="X" unicode="X" horiz-adv-x="1686" 
d="M795 674l-282 657h-177l8 34h532l-7 -34h-181l224 -521l452 521h-174l7 34h396l-7 -34h-177l-482 -557l318 -740h171l-7 -34h-536l7 34h189l-258 602l-370 -422q-116 -132 -184 -178q-103 -71 -220 -71q-116 0 -191 66q-86 76 -86 207q0 127 84 210q81 81 191 81
q86 0 148 -54q68 -60 68 -146q0 -61 -39.5 -104.5t-94.5 -43.5q-45 0 -75 31t-30 79q0 46 28.5 75t73.5 29q66 0 106 -67q1 13 1 20q0 25 -17 54q-56 94 -160 94q-112 0 -185 -78q-65 -70 -65 -180q0 -123 82 -185q70 -54 163 -54q91 0 179 55.5t199 184.5z" />
    <glyph glyph-name="Y" unicode="Y" horiz-adv-x="1331" 
d="M657 2l-292 1329h-156l8 34h519l-8 -34h-193l259 -1184q289 328 422.5 552.5t133.5 384.5q0 129 -76 212q-74 81 -205 81q-110 0 -181 -59q-81 -67 -81 -174q0 -55 32 -137l-30 -16q-36 92 -36 152q0 129 98 205q80 63 199 63q131 0 215 -79q46 -44 72.5 -109.5
t26.5 -135.5q0 -117 -58.5 -250.5t-190.5 -319.5q-116 -162 -190.5 -251t-263.5 -288q-110 -117 -150 -154.5t-109 -87.5q-180 -129 -331 -129q-97 0 -161.5 54t-64.5 134q0 63 36.5 104.5t91.5 41.5q48 0 80 -31.5t32 -77.5q0 -45 -32 -77t-77 -32q-57 0 -94 52
q18 -134 179 -134q131 0 263 83t313 278z" />
    <glyph glyph-name="Z" unicode="Z" horiz-adv-x="1563" 
d="M1424 1365l-846 -1079q82 -44 244 -150q209 -136 357 -136q123 0 201 76q78 75 78 178q0 147 -162 260l20 28q176 -122 176 -286q0 -113 -84 -197q-92 -93 -222 -93q-88 0 -178.5 34t-209.5 113q-126 82 -242 147q-101 -118 -185 -181q-140 -106 -283 -106q-71 0 -117 34
q-60 43 -60 117q0 58 34.5 111.5t92.5 84.5q91 50 200 50q74 0 187 -29l781 990h-508q-116 0 -159.5 -4.5t-73.5 -20.5q-40 -20 -57 -53.5t-40 -136.5l-15 -70h-35l67 319h1039zM405 313q-108 23 -174 23q-102 0 -177 -47q-51 -32 -80 -77.5t-29 -92.5q0 -44 34.5 -75
t84.5 -31q69 0 137 59.5t204 240.5z" />
    <glyph glyph-name="bracketleft" unicode="[" horiz-adv-x="437" 
d="M387 1502h256l-7 -34h-188l-362 -1707h187l-7 -34h-256z" />
    <glyph glyph-name="backslash" unicode="\" horiz-adv-x="839" 
d="M800 -320l-68 -24l-498 1871l68 25z" />
    <glyph glyph-name="bracketright" unicode="]" horiz-adv-x="437" 
d="M130 -273h-256l7 34h188l363 1707h-188l7 34h256z" />
    <glyph glyph-name="asciicircum" unicode="^" 
d="M1074 586h-76l-418 642l-428 -642h-202l566 848h13z" />
    <glyph glyph-name="underscore" unicode="_" 
d="M-89 -180h930v-86h-930v86z" />
    <glyph glyph-name="grave" unicode="`" 
d="M465 1291l289 -239l-36 -39l-285 237z" />
    <glyph glyph-name="a" unicode="a" horiz-adv-x="1068" 
d="M947 873l-121 -559q-37 -174 -37 -215q0 -68 58 -68q43 0 75 45t69 157l25 -9q-32 -96 -56 -144q-52 -100 -156 -100q-65 0 -111.5 47.5t-46.5 113.5q0 50 49 277q-86 -196 -153 -288q-51 -72 -118 -111.5t-137 -39.5q-96 0 -162 72q-85 93 -85 230q0 182 113 352
q108 162 313 236q128 46 256 46q104 0 225 -42zM791 879q-43 4 -63 4q-126 0 -251 -78q-142 -89 -219 -270q-61 -144 -61 -293q0 -93 35 -146q18 -28 50 -47t61 -19q118 0 250 231q67 117 110 250q44 136 58 207z" />
    <glyph glyph-name="b" unicode="b" horiz-adv-x="1011" 
d="M500 1436l-201 -918q109 198 169 272q98 118 236 118q117 0 193 -74q40 -39 63 -100.5t23 -128.5q0 -174 -96 -337q-162 -275 -482 -275q-87 0 -163 19.5t-188 70.5l288 1306l-171 -25v25zM191 64q108 -37 182 -37q145 0 242 93q99 96 157 245q50 129 50 266
q0 112 -44 172t-122 60q-69 0 -126.5 -49t-129.5 -170q-69 -116 -103.5 -199t-63.5 -204z" />
    <glyph glyph-name="c" unicode="c" horiz-adv-x="807" 
d="M775 734q-2 67 -47.5 107t-118.5 40q-70 0 -130.5 -41.5t-123.5 -133.5q-66 -95 -106 -215t-40 -224q0 -107 60 -185q48 -63 141 -63q83 0 151.5 46t146.5 155l24 -14q-153 -231 -367 -231q-127 0 -211 79q-99 92 -99 240q0 174 96 345q104 183 255 242q86 34 167 34
q105 0 167 -48q67 -52 67 -142q0 -57 -33 -96.5t-81 -39.5q-39 0 -67 28t-28 68q0 39 28 67t67 28q51 0 82 -46z" />
    <glyph glyph-name="d" unicode="d" horiz-adv-x="1114" 
d="M1107 1413l-246 -1155q-4 -22 -13 -83.5t-9 -72.5q0 -32 16 -51.5t41 -19.5q60 0 95 73q19 39 50 128l26 -7q-29 -94 -57 -145q-53 -100 -155 -100q-69 0 -113 47.5t-44 121.5q0 67 52 269q-83 -191 -145 -279q-116 -163 -281 -163q-137 0 -209 100q-60 84 -60 206
q0 185 115 346q119 164 324 238q122 43 251 43q32 0 110 -8l99 466l-187 -24l3 26zM849 875q-57 7 -80 7q-183 0 -335 -131q-98 -83 -160.5 -222t-62.5 -273q0 -84 35 -148q46 -81 134 -81q134 0 253 209q129 226 175 447z" />
    <glyph glyph-name="e" unicode="e" horiz-adv-x="795" 
d="M704 214l22 -16q-72 -89 -118 -129q-109 -93 -247 -93q-151 0 -239 109q-68 84 -68 221q0 188 102 352q75 122 181 189.5t222 67.5q99 0 160 -47q80 -62 80 -169q0 -99 -77 -190q-66 -78 -160.5 -112.5t-243.5 -34.5l-33 1h-66q-9 -63 -9 -105q0 -94 40 -159
q53 -85 149 -85q78 0 144.5 43.5t160.5 156.5zM222 392h63q101 0 167.5 15.5t131.5 55.5q75 46 118 114.5t43 142.5q0 75 -39.5 118.5t-107.5 43.5q-120 0 -216 -125.5t-160 -364.5z" />
    <glyph glyph-name="f" unicode="f" horiz-adv-x="560" 
d="M286 806h-142v34h149l33 158q31 150 50 197q53 134 162 198q83 49 172 49q82 0 130 -35.5t48 -96.5q0 -41 -27.5 -69.5t-67.5 -28.5t-68 28t-28 68q0 67 69 92q-27 9 -47 9q-96 0 -143 -69q-24 -34 -34.5 -64.5t-33.5 -133.5q-36 -160 -37 -165l-24 -137h170v-34h-178
l-113 -555q-51 -251 -98.5 -395t-107.5 -231q-122 -175 -290 -175q-63 0 -107 31q-51 36 -51 100q0 41 27.5 69.5t67.5 28.5t68 -28t28 -67q0 -71 -78 -94q21 -13 48 -13q78 0 123.5 43t83.5 152q30 86 86 361z" />
    <glyph glyph-name="g" unicode="g" horiz-adv-x="1063" 
d="M304 263q-85 43 -123 96q-55 77 -55 179q0 129 82 232q55 68 141 106.5t184 38.5q119 0 207 -62q36 -26 58.5 -55.5t49.5 -86.5q25 92 58 130q41 47 107 47q49 0 82.5 -31t33.5 -77q0 -37 -27 -64t-65 -27q-37 0 -61 25.5t-24 64.5q0 28 21 74q-33 -18 -44 -29t-24 -38
q-16 -35 -22 -64.5t-13 -108.5q-17 -200 -139 -301q-106 -87 -273 -87q-39 0 -90 5q-53 5 -81 5q-55 0 -94.5 -28t-39.5 -67q0 -67 86 -81q29 -5 195 -10q143 -3 207.5 -11.5t113.5 -28.5q60 -24 96 -80t36 -123q0 -72 -34.5 -141t-93.5 -115q-122 -93 -347 -93
q-220 0 -370 83q-61 34 -99.5 90.5t-38.5 111.5q0 44 24.5 87t64.5 71q52 37 168 62q-45 26 -62.5 53t-17.5 67q0 81 61 131q49 41 162 50zM561 890q-99 0 -171 -85q-58 -68 -91 -158.5t-33 -179.5q0 -92 49.5 -152.5t124.5 -60.5q62 0 119 45q71 56 113 157t42 215
q0 216 -153 219zM243 -72q-61 0 -119 -16.5t-86 -42.5q-50 -45 -50 -116q0 -114 107 -177q128 -75 336 -75q196 0 308 78q100 71 100 179q0 107 -116 139q-39 10 -215.5 21.5t-264.5 9.5z" />
    <glyph glyph-name="h" unicode="h" horiz-adv-x="1122" 
d="M499 1413l-211 -1020q91 207 170 321q132 191 295 191q82 0 139 -43q77 -59 77 -162q0 -47 -8.5 -86.5t-52.5 -199.5q-64 -233 -64 -312q0 -72 57 -72q59 0 94 73q19 40 50 128l26 -7q-30 -95 -56 -145q-25 -46 -66 -73t-86 -27q-67 0 -114.5 47.5t-47.5 116.5
q0 83 66 308q59 200 59 272q0 58 -36 98t-87 40q-82 0 -168 -94.5t-166 -271.5q-38 -83 -54 -128t-56 -177q-31 -103 -60 -190h-144l290 1365l-180 -27v27z" />
    <glyph glyph-name="i" unicode="i" horiz-adv-x="495" 
d="M413 912q-51 -223 -140 -568q-51 -197 -51 -232q0 -81 61 -81q43 0 73.5 42.5t69.5 158.5l26 -7q-29 -95 -56 -145q-25 -46 -66 -73t-86 -27q-67 0 -114.5 48t-47.5 116q0 77 67 308q71 249 110 409l-177 -27v27zM397 1327q39 0 66.5 -28t27.5 -67q0 -40 -28 -68t-68 -28
q-39 0 -67 28t-28 68t28 67.5t69 27.5z" />
    <glyph glyph-name="j" unicode="j" horiz-adv-x="470" 
d="M404 1327q39 0 66.5 -28t27.5 -67q0 -40 -28 -68t-67 -28q-41 0 -68.5 28t-27.5 68t28 67.5t69 27.5zM415 899l-236 -1108q-32 -146 -44 -185.5t-31 -68.5q-57 -86 -164 -86q-77 0 -122.5 42t-45.5 113q0 40 25 144l26 -4q-3 -21 -16 -87q-5 -26 -5 -52q0 -47 24.5 -77.5
t61.5 -30.5q68 0 100 109q11 39 37 163l230 1078l-172 -22v28z" />
    <glyph glyph-name="k" unicode="k" horiz-adv-x="1035" 
d="M327 510l-108 -510h-144l290 1364l-180 -26v27l334 48l-188 -884h7l394 317q81 65 138 65q37 0 64 -29.5t27 -70.5q0 -43 -27 -72t-67 -29q-41 0 -70.5 30t-29.5 72q0 10 1 25l-312 -259l251 -404q18 -30 42 -69q44 -74 87 -74q38 0 63 36t69 152l24 -11
q-22 -71 -37 -107q-55 -134 -183 -134q-59 0 -105 35t-100 122z" />
    <glyph glyph-name="l" unicode="l" horiz-adv-x="535" 
d="M529 1413l-248 -1113q-29 -120 -34 -145t-5 -56t15.5 -49.5t40.5 -18.5q60 0 95 73q19 39 50 128l26 -7q-29 -94 -56 -145q-54 -100 -155 -100q-70 0 -114.5 44t-44.5 113q0 52 28 175l240 1050l-172 -24v26z" />
    <glyph glyph-name="m" unicode="m" horiz-adv-x="1728" 
d="M410 899l-105 -505q111 235 174 328q124 183 300 183q104 0 158 -66q40 -50 40 -115q0 -48 -39 -226l-23 -104q112 262 191 360q121 151 275 151q106 0 163 -65q44 -51 44 -118q0 -45 -13 -107t-54 -208q-67 -237 -67 -302q0 -74 57 -74q45 0 74 40t70 161l26 -7
q-30 -95 -56 -145q-25 -46 -66 -73t-86 -27q-67 0 -114.5 47.5t-47.5 115.5q0 64 19 140t102 348q17 56 17 114q0 55 -32 87t-85 32q-139 0 -275.5 -234.5t-228.5 -629.5h-144l114 552q32 155 32 192q0 50 -30 82.5t-76 32.5q-84 0 -169.5 -91.5t-167.5 -269.5
q-52 -111 -74 -177.5t-91 -320.5h-144l181 851l-177 -28v28z" />
    <glyph glyph-name="n" unicode="n" horiz-adv-x="1168" 
d="M422 912l-108 -506q125 267 219 376q105 123 250 123q108 0 175 -56t67 -146q0 -47 -9.5 -89t-60.5 -216q-60 -209 -60 -299q0 -31 15.5 -49.5t41.5 -18.5q59 0 94 73q20 39 50 128l26 -7q-29 -95 -56 -145q-25 -46 -66 -73t-85 -27q-69 0 -116 48t-47 117q0 47 5.5 75.5
t36.5 140.5q64 233 74.5 279t10.5 89q0 56 -26 90q-36 48 -98 48q-87 0 -163.5 -69t-164.5 -227q-106 -189 -199 -571h-143l183 862l-180 -25v27z" />
    <glyph glyph-name="o" unicode="o" horiz-adv-x="998" 
d="M568 915q151 0 247 -83q60 -51 94 -134t34 -178q0 -124 -64 -256q-140 -289 -433 -289q-179 0 -285 105q-102 101 -102 265q0 165 88 320q140 247 421 250zM579 881q-160 0 -254 -181q-42 -83 -75.5 -219.5t-33.5 -229.5q0 -107 59.5 -174.5t153.5 -67.5q86 0 144 45
t108 149q47 99 76 211.5t29 195.5q0 132 -53 201t-154 70z" />
    <glyph glyph-name="p" unicode="p" horiz-adv-x="1076" 
d="M423 912l-85 -403q93 168 120 211t63 80q99 101 228 101q125 0 199 -73q87 -85 87 -226q0 -166 -91 -326q-78 -138 -210.5 -217.5t-282.5 -79.5q-98 0 -218 38l-105 -495h-154l284 1339l-168 -26v26zM241 55q94 -42 177 -42q109 0 183.5 44.5t140.5 148.5
q132 208 132 415q0 96 -41 156q-52 73 -132 73q-73 0 -135.5 -53t-129.5 -171q-117 -206 -162 -415z" />
    <glyph glyph-name="q" unicode="q" horiz-adv-x="1050" 
d="M994 885l-290 -1363h-143l188 906q-50 -125 -83 -187t-79 -120q-53 -66 -123.5 -103.5t-142.5 -37.5q-111 0 -181 81q-85 98 -85 242q0 133 78 278q100 184 293 270q146 64 317 64q95 0 251 -30zM850 884q-54 4 -79 4q-139 0 -266 -71q-158 -88 -243 -302
q-50 -126 -50 -240q0 -104 40 -171q18 -30 53 -50t71 -20q147 0 277 247q50 95 98.5 230t71.5 245z" />
    <glyph glyph-name="r" unicode="r" horiz-adv-x="701" 
d="M391 912l-110 -520q120 266 209 380q112 145 209 145q46 0 78.5 -32.5t32.5 -78.5q0 -44 -29.5 -72.5t-75.5 -28.5q-47 0 -78 31t-31 79q0 13 5 39q-142 -140 -239 -348t-160 -506h-147l183 862l-181 -25v27z" />
    <glyph glyph-name="s" unicode="s" horiz-adv-x="767" 
d="M46 164q46 -156 227 -156q97 0 164 54q72 59 72 139q0 76 -59 129q-23 21 -115 72q-114 64 -162 123.5t-48 138.5q0 98 80 168q96 83 234 83q103 0 181 -43q100 -56 100 -165q0 -50 -28 -81t-72 -31q-39 0 -67 28t-28 68t28 68t68 28q37 0 65 -30q-20 59 -73 91t-130 32
q-84 0 -139 -37q-35 -24 -56.5 -62t-21.5 -77q0 -61 40 -103.5t153 -101.5q110 -57 150 -106q50 -59 50 -143q0 -122 -98 -196q-104 -79 -259 -79q-126 0 -206 55q-86 60 -86 171q0 60 31 99.5t78 39.5q41 0 71 -30.5t30 -72.5q0 -40 -30 -71t-70 -31q-29 0 -74 29z" />
    <glyph glyph-name="t" unicode="t" horiz-adv-x="512" 
d="M365 806l-100 -470l-12 -59q-29 -124 -29 -178q0 -68 56 -68q60 0 95 73q19 39 50 128l24 -7q-32 -101 -54 -145q-23 -44 -65 -72t-86 -28q-66 0 -114.5 47t-48.5 110q0 48 21 134q7 28 36 162l79 373h-131l7 34h131l54 255h148l-54 -255h181l-7 -34h-181z" />
    <glyph glyph-name="u" unicode="u" horiz-adv-x="1152" 
d="M892 891h149l-117 -546q-39 -206 -39 -247q0 -30 15.5 -48.5t41.5 -18.5q59 0 94 73q19 39 50 128l26 -7q-29 -94 -56 -145q-54 -100 -156 -100q-64 0 -110 46q-48 46 -48 112q0 47 21 133q15 59 38 177q-101 -217 -171 -316q-108 -152 -264 -152q-95 0 -163 56
q-69 56 -69 143q0 55 10 110.5t72 331.5q32 145 46 242l-160 -26l5 25l316 50q-18 -117 -28.5 -169t-75.5 -331q-34 -149 -34 -212q0 -77 37.5 -121t103.5 -44t121.5 45.5t117.5 150.5q134 229 199 533z" />
    <glyph glyph-name="v" unicode="v" horiz-adv-x="932" 
d="M349 912l-4 -66q-23 -334 -23 -400q0 -161 28 -361q290 210 412.5 350t122.5 261q0 86 -51.5 139.5t-135.5 53.5q-77 0 -136 -61q24 8 39 8q39 0 67 -28t28 -68t-28.5 -67.5t-70.5 -27.5q-43 0 -69 28.5t-26 75.5q0 72 57.5 122.5t139.5 50.5q91 0 153 -58
q67 -62 67 -164q0 -101 -64 -199t-215 -231q-201 -177 -413 -301q-28 148 -36 229.5t-8 203.5q0 185 19 465l-134 -23v23z" />
    <glyph glyph-name="w" unicode="w" horiz-adv-x="1484" 
d="M348 912q-26 -269 -26 -423q0 -236 23 -379q183 169 308 382q63 106 83.5 175t25.5 194l-143 -19v31l293 39q-4 -72 -18 -277q-8 -121 -8 -200q0 -138 21 -347q207 147 362 295q90 86 128.5 156.5t38.5 147.5q0 87 -48.5 139t-128.5 52q-62 0 -118 -45h16q47 0 76.5 -27
t29.5 -70q0 -41 -31.5 -71.5t-73.5 -30.5q-41 0 -69.5 30.5t-28.5 72.5q0 67 61.5 121t138.5 54q97 0 157 -71q53 -62 53 -156q0 -98 -58.5 -187.5t-204.5 -216.5q-128 -111 -210 -171t-220 -143q-34 165 -34 489q0 46 3 144q-66 -138 -134 -236.5t-177 -212.5
q-61 -63 -104.5 -98.5t-122.5 -85.5q-33 205 -33 420q0 211 18 474l-139 -19v31z" />
    <glyph glyph-name="x" unicode="x" horiz-adv-x="1026" 
d="M452 406l-41 204q-22 106 -34 146q-30 94 -98 94q-53 0 -89 -46t-71 -157l-26 6q34 119 78 170q71 84 170 84q43 0 84 -20t64 -52q36 -52 70 -188l28 -110l144 211q60 89 113.5 128t113.5 39t100 -43t40 -106q0 -57 -32 -93q-30 -34 -80 -34q-42 0 -73 28.5t-31 67.5
q0 38 31.5 68t72.5 30q35 0 79 -41q-27 89 -103 89q-54 0 -96 -31t-103 -117l-168 -234l47 -250q40 -214 131 -214q52 0 94.5 56t66.5 158l26 -7q-59 -267 -246 -267q-87 0 -138.5 57t-78.5 184l-31 146l-117 -169q-73 -105 -115 -149q-68 -69 -160 -69q-63 0 -105 32
q-58 45 -58 125q0 53 30.5 88t76.5 35q41 0 70 -28.5t29 -69.5t-29 -68.5t-73 -27.5q-22 0 -55 13q11 -34 37 -49.5t71 -15.5q68 0 116.5 40t136.5 167z" />
    <glyph glyph-name="y" unicode="y" horiz-adv-x="1117" 
d="M416 912l-110 -515q-29 -138 -29 -204q0 -67 30 -106q39 -52 116 -52q138 0 258 208q55 96 110.5 241.5t74.5 243.5l30 152h151l-168 -788q-63 -299 -194 -463q-148 -186 -375 -186q-121 0 -202 55q-50 35 -80 88t-30 109q0 66 41.5 112.5t99.5 46.5q39 0 65.5 -26.5
t26.5 -65.5t-30.5 -69t-70.5 -30q-53 0 -87 76q-13 -22 -13 -47q0 -45 25.5 -91t66.5 -75q70 -51 165 -51q189 0 307 219q91 171 136 379l80 379q-70 -157 -107 -223t-90 -131q-98 -117 -248 -117q-107 0 -174 64q-64 62 -64 158q0 39 4 63.5t28 130.5l97 459l-172 -26v26z
" />
    <glyph glyph-name="z" unicode="z" horiz-adv-x="899" 
d="M877 915l22 -17l-775 -816q118 40 172 40q76 0 210 -65q121 -58 188 -58q65 0 112.5 58.5t47.5 138.5q0 82 -53 163l24 13q55 -92 55 -184q0 -115 -87 -203q-90 -90 -205 -90q-94 0 -218 80q-75 48 -115.5 64t-85.5 16q-39 0 -57.5 -9.5t-88.5 -65.5l-23 20l732 762
q-92 -52 -180 -52q-50 0 -96 14.5t-139 60.5q-28 13 -55 13q-37 0 -73.5 -23.5t-55.5 -59.5q-18 -34 -49 -133h-24q48 151 71 196q72 136 182 136q50 0 172 -57q116 -55 188 -55q109 0 204 113z" />
    <glyph glyph-name="braceleft" unicode="{" horiz-adv-x="437" 
d="M116 661l6 30q76 7 107 54t67 210q60 274 92 372t73 133q33 28 48 31.5t138 10.5l-8 -34q-110 -3 -150 -57.5t-90 -271.5l-31 -130q-44 -193 -71.5 -249t-88.5 -81l-1 -6q46 -21 46 -94q0 -70 -71 -385q-63 -280 -63 -354q0 -43 35 -60.5t123 -18.5l-8 -34q-100 0 -135 7
q-80 16 -80 113q0 85 101 523q38 163 38 207q0 42 -17 61t-60 23z" />
    <glyph glyph-name="bar" unicode="|" 
d="M458 1365h108v-1706h-108v1706z" />
    <glyph glyph-name="braceright" unicode="}" horiz-adv-x="437" 
d="M409 568l-7 -30q-76 -7 -106.5 -54t-66.5 -211q-60 -273 -92 -371t-74 -133q-32 -28 -47.5 -31.5t-137.5 -10.5l7 34q111 3 151 57.5t90 271.5l30 130q45 193 72 249t88 80l2 7q-46 21 -46 94q0 69 70 384q63 281 63 355q0 43 -35 60.5t-122 18.5l7 34h42
q100 0 136.5 -25.5t36.5 -94.5q0 -85 -100 -523q-38 -164 -38 -207q0 -42 17 -61t60 -23z" />
    <glyph glyph-name="asciitilde" unicode="~" horiz-adv-x="1365" 
d="M1249 1502l29 -18q-49 -87 -126.5 -141.5t-152.5 -54.5q-43 0 -128 28q-109 37 -154 48t-86 11q-54 0 -88.5 -22t-97.5 -97l-29 18q122 198 284 198q55 0 184 -44q111 -38 163 -38q112 0 202 112z" />
    <glyph glyph-name="nbspace" unicode="&#xa0;" horiz-adv-x="512" 
 />
    <glyph glyph-name="exclamdown" unicode="&#xa1;" horiz-adv-x="572" 
d="M329 908q47 0 80 -33.5t33 -80.5t-33.5 -80t-81.5 -33q-46 0 -79 33.5t-33 79.5q0 48 33 80.5t81 33.5zM238 489h27q-56 -301 -66.5 -378.5t-16.5 -257.5q-8 -226 -21 -272q-11 -39 -39.5 -62.5t-64.5 -23.5q-40 0 -71 31t-31 72q0 47 19.5 105t122.5 322q95 251 141 464
z" />
    <glyph glyph-name="cent" unicode="&#xa2;" 
d="M690 1096l-183 -862q12 -1 16 -1q79 0 147.5 47t145.5 154l25 -14q-148 -219 -343 -229l-41 -191h-34l41 190q-95 4 -162 48q-65 42 -102 114t-37 157q0 174 96 344q146 257 404 275l36 168h34l-36 -167q77 -7 128 -33q42 -22 66.5 -65t24.5 -94q0 -58 -32 -96.5
t-80 -38.5q-39 0 -65.5 27.5t-26.5 67.5q0 41 26.5 68.5t66.5 27.5q44 0 79 -45q-6 62 -37 96q-48 53 -129 53q-9 0 -28 -1zM655 1089q-100 -34 -192 -168q-66 -95 -105.5 -215.5t-39.5 -223.5q0 -107 60 -186q34 -45 96 -59z" />
    <glyph glyph-name="sterling" unicode="&#xa3;" horiz-adv-x="1092" 
d="M874 659l-8 -40h-352q-37 -170 -67.5 -253.5t-94.5 -188.5q231 -73 440 -73q134 0 209 49.5t122 168.5l27 -5q-40 -147 -111 -236q-82 -101 -232 -101q-143 0 -315 80q-112 52 -176 77q-49 -65 -101 -98q-93 -59 -186 -59q-65 0 -112.5 35.5t-47.5 83.5q0 58 52 95.5
t131 37.5q104 0 198 -30q49 124 56 151t46 266h-346l8 40h344q51 309 161 444q141 173 354 173q121 0 195 -64q68 -60 68 -154q0 -76 -41 -116q-35 -35 -81 -35q-40 0 -66.5 27.5t-26.5 68.5q0 42 28 71t68 29q60 0 90 -59q0 80 -42 130q-57 68 -165 68q-102 0 -175 -59
t-121 -182q-43 -107 -85 -342h355zM239 164q-111 33 -193 33q-68 0 -101 -26q-41 -32 -41 -78q0 -34 33.5 -58.5t80.5 -24.5q86 0 162 75q16 17 59 79z" />
    <glyph glyph-name="currency" unicode="&#xa4;" 
d="M230 997l-86 95l66 60l83 -92q147 113 320 113q171 0 297 -115l95 87l60 -66l-98 -88q75 -115 75 -250q0 -190 -144 -348l96 -106l-65 -60l-97 107q-138 -102 -302 -102q-155 0 -285 103l-110 -100l-60 66l109 97q-86 110 -86 259q0 86 35 176.5t97 163.5zM602 1139
q-146 0 -260 -129q-126 -144 -126 -345q0 -156 83 -271q93 -128 243 -128q146 0 259 129q126 143 126 343q0 160 -81 272q-93 127 -244 129z" />
    <glyph glyph-name="yen" unicode="&#xa5;" 
d="M639 569h293l-8 -35h-293l-106 -500h183l-8 -34h-521l7 34h182l106 500h-309l8 35h305l-26 116h-255l7 35h240l-116 502h-143l7 34h452l-7 -34h-153l109 -499l352 499h-178l5 34h440l-5 -34h-106l-367 -502h229l-7 -35h-248l-63 -88z" />
    <glyph glyph-name="brokenbar" unicode="&#xa6;" 
d="M458 1365h108v-684h-108v684zM458 314h108v-655h-108v655z" />
    <glyph glyph-name="section" unicode="&#xa7;" 
d="M709 163q79 -105 79 -221q0 -146 -108 -245q-115 -105 -301 -105q-166 0 -258 85q-79 73 -79 186q0 74 40.5 124.5t100.5 50.5q44 0 75 -30t31 -72q0 -40 -29 -68t-71 -28q-80 0 -103 97q-10 -50 -10 -76q0 -91 67 -156q80 -79 204 -79q129 0 212 88q76 80 76 182
q0 75 -42 140.5t-149 157.5q-138 119 -188 197t-50 176q0 126 80 214q33 37 111 89q-46 66 -61.5 106.5t-15.5 93.5q0 139 100 233q103 96 267 96q149 0 232 -85q65 -68 65 -155q0 -53 -30.5 -89t-75.5 -36q-39 0 -66 29.5t-27 71.5q0 41 27 68t68 27q33 0 72 -23
q-25 71 -69 105q-72 56 -164 56q-98 0 -171 -58q-76 -60 -76 -162q0 -93 79 -194q39 -50 162 -158q85 -76 116 -118q69 -94 69 -213q0 -96 -43.5 -165.5t-145.5 -136.5zM413 849q-88 -57 -123 -108t-35 -122q0 -91 63 -159q40 -45 165 -125q139 -89 209 -149
q72 42 114.5 103.5t42.5 122.5q0 77 -63 152q-45 54 -207 162q-89 59 -166 123z" />
    <glyph glyph-name="dieresis" unicode="&#xa8;" 
d="M483 1258q39 0 67.5 -29t28.5 -69q0 -41 -28.5 -69.5t-69.5 -28.5t-69.5 28.5t-28.5 70.5q0 40 29 68.5t71 28.5zM835 1258q39 0 67.5 -29t28.5 -69q0 -41 -28.5 -69.5t-69.5 -28.5t-69.5 29t-28.5 70q0 40 29 68.5t71 28.5z" />
    <glyph glyph-name="copyright" unicode="&#xa9;" horiz-adv-x="1646" 
d="M910 1392q200 0 365 -104q166 -105 248 -283q61 -135 61 -284q0 -222 -125 -409q-113 -170 -297 -261q-156 -78 -334 -78q-191 0 -357 105q-166 104 -248 283q-61 134 -61 285q0 220 125 408q111 168 297 261q150 75 326 77zM907 1328q-267 0 -467 -189
q-95 -90 -151 -209q-63 -136 -63 -281q0 -248 166 -423q86 -90 203 -140q116 -49 237 -49q275 0 474 189q96 91 151 210q63 135 63 281q0 163 -78 303q-85 153 -246 238q-129 68 -289 70zM1180 506l26 -13q-61 -110 -145 -159q-90 -53 -208 -53q-121 0 -211 67
q-128 97 -128 277q0 167 101 296q67 86 156.5 132t188.5 46q120 0 193 -57q79 -61 79 -155q0 -42 -24 -68.5t-62 -26.5q-26 0 -45 19t-19 46q0 28 19 47.5t46 19.5q29 0 56 -30q-7 66 -49 108q-61 61 -163 61q-129 0 -226 -109q-57 -65 -89.5 -153t-32.5 -176
q0 -144 78 -231q65 -74 173 -74q179 0 286 186z" />
    <glyph glyph-name="ordfeminine" unicode="&#xaa;" horiz-adv-x="686" 
d="M675 1073l-72 -335q-22 -103 -22 -125q0 -36 30 -36q24 0 41 25.5t41 96.5l28 -9q-21 -62 -36 -92q-34 -64 -102 -64q-43 0 -73 29.5t-30 71.5q0 25 17 108q-98 -209 -229 -209q-60 0 -104 44q-54 55 -54 142q0 74 35 149.5t92 126.5q53 47 134 75.5t161 28.5
q66 0 143 -27zM564 1065q-23 3 -31 3q-60 0 -118.5 -28.5t-101.5 -76.5q-42 -49 -67.5 -120.5t-25.5 -142.5q0 -54 21 -85q25 -37 63 -37q68 0 145 132q73 126 99 266z" />
    <glyph glyph-name="guillemotleft" unicode="&#xab;" horiz-adv-x="627" 
d="M482 218h-59l-159 271l269 279h67l-272 -284zM325 218h-59l-173 294l256 256h64l-257 -259z" />
    <glyph glyph-name="logicalnot" unicode="&#xac;" 
d="M762 0v464h-689v82h878v-546h-189z" />
    <glyph glyph-name="sfthyphen" unicode="&#xad;" horiz-adv-x="471" 
d="M36 587h471l-21 -100h-471z" />
    <glyph glyph-name="registered" unicode="&#xae;" horiz-adv-x="1646" 
d="M916 1392q200 0 365 -104q166 -105 248 -283q61 -135 61 -284q0 -222 -125 -409q-113 -170 -297 -261q-156 -78 -334 -78q-191 0 -357 105q-166 104 -248 283q-61 134 -61 285q0 220 125 408q111 168 297 261q150 75 326 77zM913 1328q-267 0 -467 -189
q-95 -90 -151 -209q-63 -136 -63 -281q0 -248 166 -423q86 -90 203 -140q116 -49 237 -49q275 0 474 189q96 91 151 210q63 135 63 281q0 163 -78 303q-85 153 -246 238q-129 68 -289 70zM936 1217l21 -17q-65 -48 -110 -109q60 -4 106 -17q70 -20 110 -65.5t40 -105.5
q0 -73 -48.5 -119.5t-157.5 -78.5q25 -20 41.5 -55.5t57.5 -152.5q62 -183 97 -220q35 -38 80 -38q32 0 100 41l18 -23q-90 -66 -166 -66q-65 0 -120 41q-35 27 -59.5 71.5t-60.5 148.5q-54 160 -79 207q-10 20 -21.5 23.5t-70.5 3.5l-34 -158q31 -10 76 -18l-5 -33
q-51 9 -78 18l-34 -162h127l-7 -33h-361l7 33h119l44 207q-158 91 -158 242q0 111 85 198q95 96 279 110q60 67 162 127zM576 575l23 111q48 236 149 372q-115 -15 -190 -67q-53 -37 -83.5 -93t-30.5 -116q0 -125 132 -207zM826 1057q-31 -56 -48.5 -104t-34.5 -130
l-23 -106q72 2 126 16q63 18 100.5 64t37.5 107q0 65 -41.5 105.5t-116.5 47.5z" />
    <glyph glyph-name="overscore" unicode="&#xaf;" 
d="M320 1723h930v-86h-930v86z" />
    <glyph glyph-name="degree" unicode="&#xb0;" horiz-adv-x="683" 
d="M427 1388q115 0 196 -89q69 -76 69 -180q0 -120 -89 -200q-77 -69 -180 -69q-120 0 -200 89q-69 77 -69 182q0 116 89 198q76 69 184 69zM428 1320q-92 0 -153 -66q-53 -57 -53 -132q0 -91 67 -152q58 -52 136 -52q90 0 148 67q51 58 51 135q0 89 -66 149q-53 48 -130 51
z" />
    <glyph glyph-name="plusminus" unicode="&#xb1;" 
d="M545 765l72 341h82l-72 -341h341l-17 -82h-342l-72 -342h-82l72 342h-341l18 82h341zM852 219l-17 -82h-765l17 82h765z" />
    <glyph glyph-name="twosuperior" unicode="&#xb2;" horiz-adv-x="659" 
d="M638 715h30q-14 -121 -49 -171q-44 -64 -137 -64q-69 0 -170 49q-85 42 -121 42q-30 0 -50 -19.5t-43 -70.5h-31q48 148 96 207.5t174 128.5q122 68 156 101q62 60 62 146q0 63 -47 107t-115 44q-62 0 -109.5 -32t-55.5 -79q24 14 44 14q28 0 48 -19.5t20 -46.5
q0 -28 -21 -48t-50 -20q-35 0 -56 24.5t-21 64.5q0 76 61 124q73 57 175 57q108 0 177 -56.5t69 -145.5q0 -110 -99 -182q-40 -29 -69 -41.5t-166 -58.5q-151 -51 -208 -185q44 27 99 27q31 0 95 -14q96 -22 149 -22q87 0 128 36q27 24 35 103z" />
    <glyph glyph-name="threesuperior" unicode="&#xb3;" horiz-adv-x="659" 
d="M346 889l15 26q86 9 126 30q80 41 80 128q0 66 -40.5 106t-106.5 40q-57 0 -100.5 -27t-64.5 -75q20 11 37 11q27 0 46 -18t19 -44q0 -27 -19.5 -45.5t-46.5 -18.5q-32 0 -52 22t-20 57q0 76 67 124.5t172 48.5t167 -51q60 -49 60 -124q0 -70 -60.5 -121t-156.5 -61
q176 -36 176 -186q0 -57 -27.5 -106t-75.5 -78q-77 -47 -174 -47q-115 0 -188 59q-57 47 -57 123q0 49 29.5 83t71.5 34q28 0 48.5 -20.5t20.5 -48.5t-21 -47.5t-51 -19.5q-31 0 -61 30q0 -74 46.5 -114.5t130.5 -40.5q76 0 122 45q66 67 66 153q0 42 -16 80.5t-42 57.5
q-35 27 -120 35z" />
    <glyph glyph-name="acute" unicode="&#xb4;" 
d="M415 1042l386 243l26 -37l-384 -245z" />
    <glyph glyph-name="mu" unicode="&#xb5;" 
d="M954 106l-5 -26l-186 -100q-4 -2 -9 -2q-27 0 -50 25q-20 23 -20 83q0 16 2 64q-106 -85 -157 -117q-103 -63 -200 -63q-166 0 -184 181q-26 -119 -30 -151.5t-15 -188.5q-7 -96 -24 -132q-31 -67 -84 -67q-27 0 -43.5 19t-16.5 49q0 34 43 149q138 382 215 743l62 291
l-160 -26l5 25l308 50l-119 -562q-21 -99 -21 -146q0 -65 38 -102.5t103 -37.5q75 0 142.5 38t146.5 126l141 663h143l-139 -652q-14 -66 -14 -97q0 -59 61 -59q27 0 67 23z" />
    <glyph glyph-name="paragraph" unicode="&#xb6;" horiz-adv-x="1161" 
d="M1339 1365l-7 -34h-188l-334 -1570h188l6 -34h-347l341 1604h-105l-341 -1604h-334l7 34h188l168 788q-71 0 -137 16q-139 35 -212 125q-77 96 -77 228q0 185 137 312q82 76 195 105.5t319 29.5h533zM747 1331q-128 -15 -204 -53q-109 -56 -168 -162q-49 -87 -49 -192
q0 -91 40.5 -166.5t113.5 -120.5q38 -23 112 -36z" />
    <glyph glyph-name="middot" unicode="&#xb7;" horiz-adv-x="360" 
d="M199 589q45 0 77.5 -33t32.5 -79t-33 -79t-79 -33q-47 0 -79.5 33t-32.5 80q0 46 33 78.5t81 32.5z" />
    <glyph glyph-name="cedilla" unicode="&#xb8;" 
d="M446 0h97q146 -40 146 -182q0 -104 -82 -173q-70 -61 -162 -61q-78 0 -139 45q-79 58 -79 146q0 46 30 78.5t73 32.5q41 0 69 -27.5t28 -68.5q0 -39 -28 -67t-68 -28q-29 0 -57 20q45 -99 166 -99q106 0 165 69q51 58 51 134t-48.5 117.5t-161.5 63.5z" />
    <glyph glyph-name="onesuperior" unicode="&#xb9;" horiz-adv-x="659" 
d="M584 1242l-139 -717h102l-7 -34h-318l7 34h102l125 620l-169 -94l-21 26l294 165h24z" />
    <glyph glyph-name="ordmasculine" unicode="&#xba;" horiz-adv-x="643" 
d="M438 1100q93 0 154 -50q81 -68 81 -190q0 -67 -32.5 -139t-83.5 -119q-77 -70 -193 -70q-112 0 -178 63q-65 62 -65 162q0 78 34.5 155t89.5 123q77 64 193 65zM441 1066q-93 0 -146 -102q-25 -48 -44.5 -126.5t-19.5 -133.5q0 -61 35 -99.5t91 -38.5q49 0 82.5 25
t61.5 84q62 128 62 234q0 156 -122 157z" />
    <glyph glyph-name="guillemotright" unicode="&#xbb;" horiz-adv-x="627" 
d="M186 768h59l159 -270l-269 -280h-67l273 284zM343 768h59l173 -294l-256 -256h-64l257 259z" />
    <glyph glyph-name="onequarter" unicode="&#xbc;" horiz-adv-x="1529" 
d="M584 1242l-139 -717h102l-7 -34h-318l7 34h102l125 620l-169 -94l-21 26l294 165h24zM1118 1229h61l-684 -1229h-62zM1303 211l-38 -177h113l-8 -34h-330l7 34h107l37 177h-358q145 190 253 296t299 245h33l-99 -462q45 0 68 5.5t76 29.5q-31 -68 -63 -90.5t-97 -23.5z
M1208 290l73 344q-83 -59 -178.5 -153.5t-169.5 -190.5h275z" />
    <glyph glyph-name="onehalf" unicode="&#xbd;" horiz-adv-x="1529" 
d="M584 1242l-139 -717h102l-7 -34h-318l7 34h102l125 620l-169 -94l-21 26l294 165h24zM1118 1229h61l-684 -1229h-62zM1398 224h31q-14 -121 -49 -172q-44 -64 -137 -64q-69 0 -170 49q-86 42 -122 42q-30 0 -50 -19.5t-42 -70.5h-31q48 148 95.5 207.5t173.5 129.5
q122 68 156 101q62 60 62 145q0 64 -47 108t-115 44q-62 0 -109.5 -32t-55.5 -79q24 14 45 14q28 0 48 -19.5t20 -46.5q0 -28 -20.5 -48t-50.5 -20q-35 0 -56 24.5t-21 63.5q0 77 61 125q72 57 175 57q108 0 176.5 -56.5t68.5 -145.5q0 -110 -98 -182q-40 -29 -69.5 -41.5
t-166.5 -58.5q-150 -50 -207 -185q45 26 99 26q31 0 94 -14q97 -22 150 -22q87 0 128 37q26 23 34 103z" />
    <glyph glyph-name="threequarters" unicode="&#xbe;" horiz-adv-x="1529" 
d="M346 889l15 26q85 9 126 30q80 41 80 128q0 65 -40.5 105.5t-106.5 40.5q-57 0 -100.5 -27t-64.5 -75q21 11 37 11q27 0 46 -18t19 -44q0 -27 -19.5 -45.5t-46.5 -18.5q-32 0 -52 22t-20 56q0 77 67 125.5t172 48.5t167 -51q60 -49 60 -124q0 -70 -60 -121t-157 -61
q176 -36 176 -186q0 -57 -27.5 -106t-75.5 -78q-77 -47 -174 -47q-115 0 -188 59q-57 47 -57 123q0 49 29.5 83t71.5 34q28 0 48.5 -20.5t20.5 -48.5t-20.5 -47.5t-51.5 -19.5t-61 30q0 -74 46.5 -114.5t130.5 -40.5q76 0 122 45q66 67 66 153q0 42 -16 80.5t-42 57.5
q-35 27 -120 35zM1117 1229h62l-684 -1229h-62zM1303 211l-38 -177h113l-8 -34h-330l7 34h107l37 177h-358q145 190 253 296t299 245h33l-99 -462q45 0 68 5.5t76 29.5q-31 -68 -63 -90.5t-97 -23.5zM1208 290l73 344q-83 -59 -178.5 -153.5t-169.5 -190.5h275z" />
    <glyph glyph-name="questiondown" unicode="&#xbf;" horiz-adv-x="942" 
d="M490 491h28q-9 -102 -39 -174q-28 -63 -63.5 -100.5t-119.5 -93.5q-111 -72 -155 -143t-44 -177q0 -113 61 -186q80 -96 199 -96t208 92q39 40 56.5 69.5t30.5 79.5q-44 -36 -85 -36q-42 0 -70 29t-28 73q0 43 29 72.5t72 29.5q46 0 74 -26q40 -38 40 -101
q0 -62 -31.5 -125t-84.5 -107q-101 -84 -260 -84q-171 0 -280 94q-110 95 -110 252q0 177 151 290q47 35 78.5 50t164.5 66q83 31 119 82t59 170zM576 908q47 0 79.5 -33t32.5 -80q0 -46 -33 -78.5t-81 -32.5q-45 0 -77.5 33t-32.5 79t32 78.5t80 33.5z" />
    <glyph glyph-name="Agrave" unicode="&#xc0;" horiz-adv-x="1753" 
d="M1698 1332l-276 -1298h204l-8 -34h-576l7 34h205q11 107 11 151q0 165 -70 288t-208 202q-45 -98 -111 -237q-110 -230 -157.5 -320t-122.5 -212q113 -69 288 -104l-6 -33q-190 39 -299 109q-105 -148 -191 -223q-176 -155 -359 -155q-123 0 -207 68q-95 77 -95 192
q0 82 53 139t130 57q49 0 81.5 -29.5t32.5 -73.5q0 -42 -30 -72t-72 -30t-72 30t-30 71q0 20 13 52q-72 -55 -72 -144q0 -96 78 -162q76 -64 188 -64q256 0 506 371q-221 181 -221 411q0 187 138 315q131 122 321 122q74 0 189 -30q126 209 187 291.5t151 163.5
q214 194 476 194q29 0 89 -4l-7 -34q-59 4 -74 4q-26 0 -84 -6zM1520 1285q-106 -52 -177.5 -112.5t-150.5 -165.5q-96 -127 -188 -302q136 -78 207.5 -194.5t84.5 -280.5zM549 -65q49 82 137 264l76 150l60 118l63 117q42 80 58 108q-101 27 -168 27q-178 0 -298 -109
q-131 -118 -131 -295q0 -210 203 -380zM1438 1761l301 -222l-34 -41l-297 221z" />
    <glyph glyph-name="Aacute" unicode="&#xc1;" horiz-adv-x="1753" 
d="M1698 1332l-276 -1298h204l-8 -34h-576l7 34h205q11 107 11 151q0 165 -70 288t-208 202q-45 -98 -111 -237q-110 -230 -157.5 -320t-122.5 -212q113 -69 288 -104l-6 -33q-190 39 -299 109q-105 -148 -191 -223q-176 -155 -359 -155q-123 0 -207 68q-95 77 -95 192
q0 82 53 139t130 57q49 0 81.5 -29.5t32.5 -73.5q0 -42 -30 -72t-72 -30t-72 30t-30 71q0 20 13 52q-72 -55 -72 -144q0 -96 78 -162q76 -64 188 -64q256 0 506 371q-221 181 -221 411q0 187 138 315q131 122 321 122q74 0 189 -30q126 209 187 291.5t151 163.5
q214 194 476 194q29 0 89 -4l-7 -34q-59 4 -74 4q-26 0 -84 -6zM1520 1285q-106 -52 -177.5 -112.5t-150.5 -165.5q-96 -127 -188 -302q136 -78 207.5 -194.5t84.5 -280.5zM549 -65q49 82 137 264l76 150l60 118l63 117q42 80 58 108q-101 27 -168 27q-178 0 -298 -109
q-131 -118 -131 -295q0 -210 203 -380zM1325 1557l422 173l19 -42l-420 -174z" />
    <glyph glyph-name="Acircumflex" unicode="&#xc2;" horiz-adv-x="1753" 
d="M1698 1332l-276 -1298h204l-8 -34h-576l7 34h205q11 107 11 151q0 165 -70 288t-208 202q-45 -98 -111 -237q-110 -230 -157.5 -320t-122.5 -212q113 -69 288 -104l-6 -33q-190 39 -299 109q-105 -148 -191 -223q-176 -155 -359 -155q-123 0 -207 68q-95 77 -95 192
q0 82 53 139t130 57q49 0 81.5 -29.5t32.5 -73.5q0 -42 -30 -72t-72 -30t-72 30t-30 71q0 20 13 52q-72 -55 -72 -144q0 -96 78 -162q76 -64 188 -64q256 0 506 371q-221 181 -221 411q0 187 138 315q131 122 321 122q74 0 189 -30q126 209 187 291.5t151 163.5
q214 194 476 194q29 0 89 -4l-7 -34q-59 4 -74 4q-26 0 -84 -6zM1520 1285q-106 -52 -177.5 -112.5t-150.5 -165.5q-96 -127 -188 -302q136 -78 207.5 -194.5t84.5 -280.5zM549 -65q49 82 137 264l76 150l60 118l63 117q42 80 58 108q-101 27 -168 27q-178 0 -298 -109
q-131 -118 -131 -295q0 -210 203 -380zM1309 1498l-35 33l304 255l213 -255l-39 -33l-183 215z" />
    <glyph glyph-name="Atilde" unicode="&#xc3;" horiz-adv-x="1753" 
d="M1698 1332l-276 -1298h204l-8 -34h-576l7 34h205q11 107 11 151q0 165 -70 288t-208 202q-45 -98 -111 -237q-110 -230 -157.5 -320t-122.5 -212q113 -69 288 -104l-6 -33q-190 39 -299 109q-105 -148 -191 -223q-176 -155 -359 -155q-123 0 -207 68q-95 77 -95 192
q0 82 53 139t130 57q49 0 81.5 -29.5t32.5 -73.5q0 -42 -30 -72t-72 -30t-72 30t-30 71q0 20 13 52q-72 -55 -72 -144q0 -96 78 -162q76 -64 188 -64q256 0 506 371q-221 181 -221 411q0 187 138 315q131 122 321 122q74 0 189 -30q126 209 187 291.5t151 163.5
q214 194 476 194q29 0 89 -4l-7 -34q-59 4 -74 4q-26 0 -84 -6zM1520 1285q-106 -52 -177.5 -112.5t-150.5 -165.5q-96 -127 -188 -302q136 -78 207.5 -194.5t84.5 -280.5zM549 -65q49 82 137 264l76 150l60 118l63 117q42 80 58 108q-101 27 -168 27q-178 0 -298 -109
q-131 -118 -131 -295q0 -210 203 -380zM1760 1670l40 -25q-61 -96 -133 -96q-44 0 -132 52q-85 50 -117 50q-58 0 -111 -86l-40 21q72 113 151 113q36 0 123 -51t117 -51q42 0 102 73z" />
    <glyph glyph-name="Adieresis" unicode="&#xc4;" horiz-adv-x="1753" 
d="M1698 1332l-276 -1298h204l-8 -34h-576l7 34h205q11 107 11 151q0 165 -70 288t-208 202q-45 -98 -111 -237q-110 -230 -157.5 -320t-122.5 -212q113 -69 288 -104l-6 -33q-190 39 -299 109q-105 -148 -191 -223q-176 -155 -359 -155q-123 0 -207 68q-95 77 -95 192
q0 82 53 139t130 57q49 0 81.5 -29.5t32.5 -73.5q0 -42 -30 -72t-72 -30t-72 30t-30 71q0 20 13 52q-72 -55 -72 -144q0 -96 78 -162q76 -64 188 -64q256 0 506 371q-221 181 -221 411q0 187 138 315q131 122 321 122q74 0 189 -30q126 209 187 291.5t151 163.5
q214 194 476 194q29 0 89 -4l-7 -34q-59 4 -74 4q-26 0 -84 -6zM1520 1285q-106 -52 -177.5 -112.5t-150.5 -165.5q-96 -127 -188 -302q136 -78 207.5 -194.5t84.5 -280.5zM549 -65q49 82 137 264l76 150l60 118l63 117q42 80 58 108q-101 27 -168 27q-178 0 -298 -109
q-131 -118 -131 -295q0 -210 203 -380zM1331 1722q39 0 67.5 -29t28.5 -69q0 -41 -28.5 -69.5t-69.5 -28.5t-69.5 29t-28.5 70q0 40 29 68.5t71 28.5zM1683 1722q39 0 67.5 -29t28.5 -69q0 -41 -28.5 -69.5t-69.5 -28.5t-69.5 29t-28.5 70q0 40 29 68.5t71 28.5z" />
    <glyph glyph-name="Aring" unicode="&#xc5;" horiz-adv-x="1753" 
d="M1698 1332l-276 -1298h204l-8 -34h-576l7 34h205q11 107 11 151q0 165 -70 288t-208 202q-45 -98 -111 -237q-110 -230 -157.5 -320t-122.5 -212q113 -69 288 -104l-6 -33q-190 39 -299 109q-105 -148 -191 -223q-176 -155 -359 -155q-123 0 -207 68q-95 77 -95 192
q0 82 53 139t130 57q49 0 81.5 -29.5t32.5 -73.5q0 -42 -30 -72t-72 -30t-72 30t-30 71q0 20 13 52q-72 -55 -72 -144q0 -96 78 -162q76 -64 188 -64q256 0 506 371q-221 181 -221 411q0 187 138 315q131 122 321 122q74 0 189 -30q126 209 187 291.5t151 163.5
q214 194 476 194q29 0 89 -4l-7 -34q-59 4 -74 4q-26 0 -84 -6zM1520 1285q-106 -52 -177.5 -112.5t-150.5 -165.5q-96 -127 -188 -302q136 -78 207.5 -194.5t84.5 -280.5zM549 -65q49 82 137 264l76 150l60 118l63 117q42 80 58 108q-101 27 -168 27q-178 0 -298 -109
q-131 -118 -131 -295q0 -210 203 -380zM1533 1750q51 0 88 -37.5t37 -89.5q0 -53 -37 -90.5t-90 -37.5t-90 37.5t-37 91.5q0 52 37.5 89t91.5 37zM1531 1699q-34 0 -57 -22.5t-23 -55.5q0 -34 23 -57t56 -23q32 0 55 23t23 56q0 32 -22 55t-55 24z" />
    <glyph glyph-name="AE" unicode="&#xc6;" horiz-adv-x="2166" 
d="M2044 783l-5 -29q-61 3 -88 3q-213 0 -354 -81q-87 -50 -140 -142q-50 -89 -50 -192q0 -142 93 -235q93 -94 226 -94q136 0 258 98q91 72 149 204l21 -8q-38 -88 -71 -136.5t-83 -90.5q-136 -114 -339 -114q-183 0 -305 96q-134 106 -134 267q0 109 75 227h-379
q-164 -302 -225 -382q-163 -212 -378 -212q-125 0 -209 71q-103 86 -103 229q0 136 94 226q82 77 202 77q88 0 143.5 -44t55.5 -113q0 -49 -29 -80.5t-74 -31.5q-43 0 -73 30t-30 72t29.5 72.5t69.5 30.5q12 0 33 -4q-37 42 -118 42q-115 0 -189 -74q-80 -80 -80 -204
q0 -123 86 -198q76 -67 190 -67q105 0 191 58t168 184q41 62 165 304q134 258 220 387.5t193 234.5q135 132 279 186q128 49 288 49q166 0 263 -77q83 -66 83 -155q0 -60 -43.5 -103.5t-102.5 -43.5q-41 0 -69 28.5t-28 69.5t30 70.5t71 29.5q38 0 65 -31t27 -75
q0 -6 -2 -21q24 36 24 71q0 82 -63 137.5t-155 55.5q-142 0 -225 -104q-63 -80 -63 -195q0 -176 158 -237q47 -18 257 -36zM1315 590q135 167 416 185q-104 30 -166 84q-102 88 -102 213q0 92 48.5 157.5t165.5 132.5q-146 -38 -249 -108t-210 -204q-127 -159 -283 -460h380
z" />
    <glyph glyph-name="Ccedilla" unicode="&#xc7;" horiz-adv-x="1260" 
d="M756 -27q79 -59 79 -156q0 -103 -82 -172q-71 -61 -163 -61q-78 0 -139 45q-79 58 -79 146q0 46 30.5 78.5t72.5 32.5t70 -27.5t28 -68.5q0 -39 -28 -67t-68 -28q-30 0 -58 20q45 -99 167 -99q105 0 165 69q51 58 51 134q0 98 -96 149q-29 -2 -48 -2q-200 0 -345 119
q-113 91 -160 211q-44 113 -44 260q0 303 173 534q111 150 259 231t310 81q197 0 315 -99q57 -49 90.5 -120t33.5 -146q0 -71 -37 -115.5t-95 -44.5q-40 0 -68.5 31t-28.5 75t28.5 75t68.5 31q75 0 100 -91q6 39 6 57q0 107 -81 195q-48 52 -122 82t-155 30
q-150 0 -286 -102q-135 -101 -222 -284q-98 -205 -98 -423q0 -251 126 -406q52 -64 129.5 -99.5t165.5 -35.5q133 0 256 73q75 45 125 99.5t106 153.5l25 -13q-156 -305 -477 -352z" />
    <glyph glyph-name="Egrave" unicode="&#xc8;" horiz-adv-x="921" 
d="M859 789v-34h-82q-212 0 -331 -58q-116 -57 -175 -159q-50 -85 -50 -186q0 -155 113 -253q90 -78 213 -78q141 0 253 98q76 66 141 200l26 -12q-73 -152 -157 -222q-135 -112 -325 -112q-155 0 -277 72q-78 46 -124 128q-43 78 -43 174q0 141 91 255q131 164 429 187
q-77 23 -117.5 43.5t-76.5 54.5q-85 81 -85 197q0 136 109 226q113 91 279 91q137 0 223 -69q83 -66 83 -162q0 -63 -37.5 -104.5t-94.5 -41.5q-46 0 -75 28.5t-29 71.5t29 73t70 30q40 0 67.5 -29.5t27.5 -72.5q0 -8 -1 -21q15 30 15 60q0 84 -68 141q-69 58 -165 58
q-116 0 -191 -84.5t-75 -214.5q0 -80 29 -132t96 -89q96 -54 203 -54h82zM585 1761l301 -222l-34 -41l-297 221z" />
    <glyph glyph-name="Eacute" unicode="&#xc9;" horiz-adv-x="921" 
d="M859 789v-34h-82q-212 0 -331 -58q-116 -57 -175 -159q-50 -85 -50 -186q0 -155 113 -253q90 -78 213 -78q141 0 253 98q76 66 141 200l26 -12q-73 -152 -157 -222q-135 -112 -325 -112q-155 0 -277 72q-78 46 -124 128q-43 78 -43 174q0 141 91 255q131 164 429 187
q-77 23 -117.5 43.5t-76.5 54.5q-85 81 -85 197q0 136 109 226q113 91 279 91q137 0 223 -69q83 -66 83 -162q0 -63 -37.5 -104.5t-94.5 -41.5q-46 0 -75 28.5t-29 71.5t29 73t70 30q40 0 67.5 -29.5t27.5 -72.5q0 -8 -1 -21q15 30 15 60q0 84 -68 141q-69 58 -165 58
q-116 0 -191 -84.5t-75 -214.5q0 -80 29 -132t96 -89q96 -54 203 -54h82zM540 1557l422 173l19 -42l-420 -174z" />
    <glyph glyph-name="Ecircumflex" unicode="&#xca;" horiz-adv-x="921" 
d="M859 789v-34h-82q-212 0 -331 -58q-116 -57 -175 -159q-50 -85 -50 -186q0 -155 113 -253q90 -78 213 -78q141 0 253 98q76 66 141 200l26 -12q-73 -152 -157 -222q-135 -112 -325 -112q-155 0 -277 72q-78 46 -124 128q-43 78 -43 174q0 141 91 255q131 164 429 187
q-77 23 -117.5 43.5t-76.5 54.5q-85 81 -85 197q0 136 109 226q113 91 279 91q137 0 223 -69q83 -66 83 -162q0 -63 -37.5 -104.5t-94.5 -41.5q-46 0 -75 28.5t-29 71.5t29 73t70 30q40 0 67.5 -29.5t27.5 -72.5q0 -8 -1 -21q15 30 15 60q0 84 -68 141q-69 58 -165 58
q-116 0 -191 -84.5t-75 -214.5q0 -80 29 -132t96 -89q96 -54 203 -54h82zM510 1498l-35 33l304 255l213 -255l-39 -33l-183 215z" />
    <glyph glyph-name="Edieresis" unicode="&#xcb;" horiz-adv-x="921" 
d="M859 789v-34h-82q-212 0 -331 -58q-116 -57 -175 -159q-50 -85 -50 -186q0 -155 113 -253q90 -78 213 -78q141 0 253 98q76 66 141 200l26 -12q-73 -152 -157 -222q-135 -112 -325 -112q-155 0 -277 72q-78 46 -124 128q-43 78 -43 174q0 141 91 255q131 164 429 187
q-77 23 -117.5 43.5t-76.5 54.5q-85 81 -85 197q0 136 109 226q113 91 279 91q137 0 223 -69q83 -66 83 -162q0 -63 -37.5 -104.5t-94.5 -41.5q-46 0 -75 28.5t-29 71.5t29 73t70 30q40 0 67.5 -29.5t27.5 -72.5q0 -8 -1 -21q15 30 15 60q0 84 -68 141q-69 58 -165 58
q-116 0 -191 -84.5t-75 -214.5q0 -80 29 -132t96 -89q96 -54 203 -54h82zM546 1722q39 0 67.5 -29t28.5 -69q0 -41 -28.5 -69.5t-69.5 -28.5t-69.5 28.5t-28.5 70.5q0 40 29 68.5t71 28.5zM898 1722q39 0 67.5 -29t28.5 -69q0 -41 -28.5 -69.5t-69.5 -28.5t-69.5 28.5
t-28.5 70.5q0 40 29 68.5t71 28.5z" />
    <glyph glyph-name="Igrave" unicode="&#xcc;" horiz-adv-x="646" 
d="M601 1331l-276 -1297h198l-7 -34h-564l7 34h198l276 1297h-198l7 34h564l-7 -34h-198zM433 1761l301 -222l-34 -41l-297 221z" />
    <glyph glyph-name="Iacute" unicode="&#xcd;" horiz-adv-x="646" 
d="M601 1331l-276 -1297h198l-7 -34h-564l7 34h198l276 1297h-198l7 34h564l-7 -34h-198zM361 1557l422 173l19 -42l-420 -174z" />
    <glyph glyph-name="Icircumflex" unicode="&#xce;" horiz-adv-x="646" 
d="M601 1331l-276 -1297h198l-7 -34h-564l7 34h198l276 1297h-198l7 34h564l-7 -34h-198zM331 1498l-35 33l304 255l213 -255l-39 -33l-183 215z" />
    <glyph glyph-name="Idieresis" unicode="&#xcf;" horiz-adv-x="646" 
d="M601 1331l-276 -1297h198l-7 -34h-564l7 34h198l276 1297h-198l7 34h564l-7 -34h-198zM408 1722q39 0 67.5 -29t28.5 -69q0 -41 -28.5 -69.5t-69.5 -28.5t-69.5 29t-28.5 70q0 40 29 68.5t71 28.5zM746 1722q39 0 67.5 -29t28.5 -69q0 -41 -28.5 -69.5t-69.5 -28.5
t-69.5 29t-28.5 70q0 40 29 68.5t71 28.5z" />
    <glyph glyph-name="Eth" unicode="&#xd0;" horiz-adv-x="1559" 
d="M880 1387q136 -10 259 -57q215 -82 323 -244q101 -150 101 -338q0 -248 -160 -452q-119 -152 -302 -224t-449 -72h-510l7 34h198l71 337q-81 28 -138 69q-185 134 -185 363q0 174 110 321q90 122 239 190t340 75q56 66 121 123t134 101l20 -21q-107 -86 -179 -205z
M200 712l8 35h290l5 23q79 370 251 583q-140 -9 -250 -49q-176 -65 -276 -203q-99 -137 -99 -298q0 -140 77.5 -244.5t219.5 -154.5l65 308h-291zM659 712l-72 -338q31 -2 43 -2q95 0 163.5 23.5t147.5 83.5l21 -26q-151 -114 -341 -114q-13 0 -41 1l-65 -306h84
q209 2 389 91q208 103 302 316q78 176 78 343q0 171 -72 304t-201 201q-106 56 -235 64q-66 -120 -101 -228.5t-86 -344.5l-7 -33h437l-7 -35h-437z" />
    <glyph glyph-name="Ntilde" unicode="&#xd1;" horiz-adv-x="1723" 
d="M932 1250l-129 -552q-50 -215 -78 -297q-84 -249 -236 -360q-119 -86 -259 -86q-125 0 -207 66q-91 73 -91 189q0 91 59 150q55 54 130 54q46 0 76.5 -29.5t30.5 -73.5q0 -43 -31.5 -74.5t-75.5 -31.5q-41 0 -71.5 31t-30.5 73q0 12 3 32q-56 -70 -56 -136
q0 -94 74 -156.5t185 -62.5q226 0 378 234q74 114 121 296q6 26 40 182l141 633h-212l7 34h361l383 -1045l188 811q33 144 50 199t47 120q66 143 164 210q77 53 157 53q76 0 128 -44q53 -46 53 -113q0 -58 -36 -98.5t-88 -40.5q-45 0 -75.5 29.5t-30.5 72.5q0 42 30 72
t72 30q73 0 94 -77q2 13 2 22q0 45 -45.5 79t-105.5 34q-108 0 -194 -97q-68 -77 -106.5 -170.5t-81.5 -287.5l-261 -1166zM1608 1670l40 -25q-61 -96 -133 -96q-44 0 -132 52q-85 50 -117 50q-58 0 -111 -86l-40 21q72 113 151 113q36 0 123 -51t117 -51q42 0 102 73z" />
    <glyph glyph-name="Ograve" unicode="&#xd2;" horiz-adv-x="1560" 
d="M904 1399q196 0 354 -84q174 -92 246 -275q47 -117 47 -266q0 -216 -119 -421q-122 -209 -320 -310q-152 -77 -356 -77q-265 0 -442 144q-199 162 -199 444q0 260 136 484q127 208 340 298q143 61 313 63zM931 1365q-170 0 -315 -118q-140 -114 -228 -324
q-87 -208 -87 -424q0 -225 118 -363q115 -136 305 -136q318 0 496 317q68 122 106 260q39 143 39 262q0 240 -121 384q-117 139 -313 142zM795 1761l301 -222l-34 -41l-297 221z" />
    <glyph glyph-name="Oacute" unicode="&#xd3;" horiz-adv-x="1560" 
d="M904 1399q196 0 354 -84q174 -92 246 -275q47 -117 47 -266q0 -216 -119 -421q-122 -209 -320 -310q-152 -77 -356 -77q-265 0 -442 144q-199 162 -199 444q0 260 136 484q127 208 340 298q143 61 313 63zM931 1365q-170 0 -315 -118q-140 -114 -228 -324
q-87 -208 -87 -424q0 -225 118 -363q115 -136 305 -136q318 0 496 317q68 122 106 260q39 143 39 262q0 240 -121 384q-117 139 -313 142zM778 1557l422 173l19 -42l-420 -174z" />
    <glyph glyph-name="Ocircumflex" unicode="&#xd4;" horiz-adv-x="1560" 
d="M904 1399q196 0 354 -84q174 -92 246 -275q47 -117 47 -266q0 -216 -119 -421q-122 -209 -320 -310q-152 -77 -356 -77q-265 0 -442 144q-199 162 -199 444q0 260 136 484q127 208 340 298q143 61 313 63zM931 1365q-170 0 -315 -118q-140 -114 -228 -324
q-87 -208 -87 -424q0 -225 118 -363q115 -136 305 -136q318 0 496 317q68 122 106 260q39 143 39 262q0 240 -121 384q-117 139 -313 142zM734 1498l-35 33l304 255l213 -255l-39 -33l-183 215z" />
    <glyph glyph-name="Otilde" unicode="&#xd5;" horiz-adv-x="1560" 
d="M904 1399q196 0 354 -84q174 -92 246 -275q47 -117 47 -266q0 -216 -119 -421q-122 -209 -320 -310q-152 -77 -356 -77q-265 0 -442 144q-199 162 -199 444q0 260 136 484q127 208 340 298q143 61 313 63zM931 1365q-170 0 -315 -118q-140 -114 -228 -324
q-87 -208 -87 -424q0 -225 118 -363q115 -136 305 -136q318 0 496 317q68 122 106 260q39 143 39 262q0 240 -121 384q-117 139 -313 142zM1172 1670l40 -25q-61 -96 -133 -96q-44 0 -132 52q-85 50 -117 50q-58 0 -111 -86l-40 21q72 113 151 113q36 0 123 -51t117 -51
q42 0 102 73z" />
    <glyph glyph-name="Odieresis" unicode="&#xd6;" horiz-adv-x="1560" 
d="M904 1399q196 0 354 -84q174 -92 246 -275q47 -117 47 -266q0 -216 -119 -421q-122 -209 -320 -310q-152 -77 -356 -77q-265 0 -442 144q-199 162 -199 444q0 260 136 484q127 208 340 298q143 61 313 63zM931 1365q-170 0 -315 -118q-140 -114 -228 -324
q-87 -208 -87 -424q0 -225 118 -363q115 -136 305 -136q318 0 496 317q68 122 106 260q39 143 39 262q0 240 -121 384q-117 139 -313 142zM783 1722q39 0 67.5 -29t28.5 -69q0 -41 -28.5 -69.5t-69.5 -28.5t-69.5 29t-28.5 70q0 40 29 68.5t71 28.5zM1135 1722
q39 0 67.5 -29t28.5 -69q0 -41 -28.5 -69.5t-69.5 -28.5t-69.5 29t-28.5 70q0 40 29 68.5t71 28.5z" />
    <glyph glyph-name="multiply" unicode="&#xd7;" 
d="M493 631l-249 317l70 55l249 -317l395 311l55 -69l-395 -312l249 -316l-69 -55l-250 317l-393 -310l-55 70z" />
    <glyph glyph-name="Oslash" unicode="&#xd8;" horiz-adv-x="1561" 
d="M1658 1408l22 -26l-251 -211q118 -165 118 -388q0 -226 -119 -430q-121 -209 -319 -310q-152 -77 -357 -77q-319 0 -509 208l-242 -203l-22 26l242 203q-110 146 -110 361q0 251 137 477q125 206 339 298q148 63 316 63q156 0 285 -51.5t219 -150.5zM341 256
q33 -71 74 -116q129 -140 316 -140q198 0 363 164q139 138 212 363q55 169 55 335q0 103 -38 220zM1309 1115q-120 250 -380 250q-173 0 -317 -117q-139 -114 -228 -325q-87 -208 -87 -418q0 -109 31 -214z" />
    <glyph glyph-name="Ugrave" unicode="&#xd9;" horiz-adv-x="1757" 
d="M567 432q-119 16 -213 60q-122 57 -189 155.5t-67 218.5q0 185 131 319q175 180 526 180h347l-8 -34h-170l-185 -866q173 23 290 116q131 103 131 279q0 17 -2 52l34 5q1 -40 1 -58q0 -207 -168 -323q-101 -71 -231 -96q-51 -9 -62 -12q-1 -33 -1 -53q0 -111 36 -184
q87 -180 322 -180q199 0 317 141q82 98 129 316l183 863h-191l7 34h432l-7 -34h-192l-186 -876q-28 -133 -66 -214.5t-99 -139.5q-143 -138 -366 -138q-135 0 -239 38.5t-160 109.5q-86 108 -86 266q0 17 2 55zM572 465l184 866q-165 -1 -292 -40q-147 -46 -239 -164
q-93 -119 -93 -260q0 -157 119.5 -266.5t320.5 -135.5zM1153 1761l301 -222l-34 -41l-297 221z" />
    <glyph glyph-name="Uacute" unicode="&#xda;" horiz-adv-x="1757" 
d="M567 432q-119 16 -213 60q-122 57 -189 155.5t-67 218.5q0 185 131 319q175 180 526 180h347l-8 -34h-170l-185 -866q173 23 290 116q131 103 131 279q0 17 -2 52l34 5q1 -40 1 -58q0 -207 -168 -323q-101 -71 -231 -96q-51 -9 -62 -12q-1 -33 -1 -53q0 -111 36 -184
q87 -180 322 -180q199 0 317 141q82 98 129 316l183 863h-191l7 34h432l-7 -34h-192l-186 -876q-28 -133 -66 -214.5t-99 -139.5q-143 -138 -366 -138q-135 0 -239 38.5t-160 109.5q-86 108 -86 266q0 17 2 55zM572 465l184 866q-165 -1 -292 -40q-147 -46 -239 -164
q-93 -119 -93 -260q0 -157 119.5 -266.5t320.5 -135.5zM1122 1557l422 173l19 -42l-420 -174z" />
    <glyph glyph-name="Ucircumflex" unicode="&#xdb;" horiz-adv-x="1757" 
d="M567 432q-119 16 -213 60q-122 57 -189 155.5t-67 218.5q0 185 131 319q175 180 526 180h347l-8 -34h-170l-185 -866q173 23 290 116q131 103 131 279q0 17 -2 52l34 5q1 -40 1 -58q0 -207 -168 -323q-101 -71 -231 -96q-51 -9 -62 -12q-1 -33 -1 -53q0 -111 36 -184
q87 -180 322 -180q199 0 317 141q82 98 129 316l183 863h-191l7 34h432l-7 -34h-192l-186 -876q-28 -133 -66 -214.5t-99 -139.5q-143 -138 -366 -138q-135 0 -239 38.5t-160 109.5q-86 108 -86 266q0 17 2 55zM572 465l184 866q-165 -1 -292 -40q-147 -46 -239 -164
q-93 -119 -93 -260q0 -157 119.5 -266.5t320.5 -135.5zM1092 1498l-35 33l304 255l213 -255l-39 -33l-183 215z" />
    <glyph glyph-name="Udieresis" unicode="&#xdc;" horiz-adv-x="1757" 
d="M567 432q-119 16 -213 60q-122 57 -189 155.5t-67 218.5q0 185 131 319q175 180 526 180h347l-8 -34h-170l-185 -866q173 23 290 116q131 103 131 279q0 17 -2 52l34 5q1 -40 1 -58q0 -207 -168 -323q-101 -71 -231 -96q-51 -9 -62 -12q-1 -33 -1 -53q0 -111 36 -184
q87 -180 322 -180q199 0 317 141q82 98 129 316l183 863h-191l7 34h432l-7 -34h-192l-186 -876q-28 -133 -66 -214.5t-99 -139.5q-143 -138 -366 -138q-135 0 -239 38.5t-160 109.5q-86 108 -86 266q0 17 2 55zM572 465l184 866q-165 -1 -292 -40q-147 -46 -239 -164
q-93 -119 -93 -260q0 -157 119.5 -266.5t320.5 -135.5zM1155 1722q39 0 67.5 -29t28.5 -69q0 -41 -28.5 -69.5t-69.5 -28.5t-69.5 29t-28.5 70q0 40 29 68.5t71 28.5zM1507 1722q39 0 67.5 -29t28.5 -69q0 -41 -28.5 -69.5t-69.5 -28.5t-69.5 29t-28.5 70q0 40 29 68.5
t71 28.5z" />
    <glyph glyph-name="Yacute" unicode="&#xdd;" horiz-adv-x="1331" 
d="M657 2l-292 1329h-156l8 34h519l-8 -34h-193l259 -1184q289 328 422.5 552.5t133.5 384.5q0 129 -76 212q-74 81 -205 81q-110 0 -181 -59q-81 -67 -81 -174q0 -55 32 -137l-30 -16q-36 92 -36 152q0 129 98 205q80 63 199 63q131 0 215 -79q46 -44 72.5 -109.5
t26.5 -135.5q0 -117 -58.5 -250.5t-190.5 -319.5q-116 -162 -190.5 -251t-263.5 -288q-110 -117 -150 -154.5t-109 -87.5q-180 -129 -331 -129q-97 0 -161.5 54t-64.5 134q0 63 36.5 104.5t91.5 41.5q48 0 80 -31.5t32 -77.5q0 -45 -32 -77t-77 -32q-57 0 -94 52
q18 -134 179 -134q131 0 263 83t313 278zM663 1557l422 173l19 -42l-420 -174z" />
    <glyph glyph-name="Thorn" unicode="&#xde;" horiz-adv-x="1281" 
d="M531 34h255l-7 -34h-625l7 34h202l55 259q-152 49 -227 120q-112 109 -112 275q0 157 103 298q96 131 234.5 199.5t350.5 88.5q128 113 255 199l16 -19q-79 -78 -162 -180q459 -34 459 -346q0 -169 -135 -266q-156 -113 -398 -113q-65 0 -159 12l-54 -256q23 -1 37 -1
q114 0 248 72l18 -30q-145 -74 -274 -74h-37zM649 590q85 -4 113 -4q189 0 308 125q82 86 82 224q0 142 -69.5 212t-232.5 92q-58 -85 -92.5 -187.5t-80.5 -328.5zM737 1235q-122 -7 -211 -39q-202 -74 -317 -229q-96 -128 -96 -283q0 -133 74 -219t237 -141l93 437
q33 154 83 262t137 212z" />
    <glyph glyph-name="germandbls" unicode="&#xdf;" horiz-adv-x="1005" 
d="M232 806h-151l8 34h150l38 177q24 114 47 173.5t61 105.5q119 144 314 144q99 0 168 -51q84 -63 84 -167q0 -61 -30 -107t-111 -109q-58 -45 -80.5 -76.5t-22.5 -67.5q0 -38 23 -80.5t95 -133.5q67 -86 93.5 -151t26.5 -146q0 -177 -119 -283q-99 -88 -232 -88
q-119 0 -186 77q-51 59 -51 139q0 54 33 126l23 -15q-26 -57 -26 -106q0 -78 47.5 -127t123.5 -49q98 0 167 87.5t69 210.5q0 102 -58 204q-68 122 -81.5 157.5t-13.5 97.5q0 54 23 100.5t81 110.5q89 97 108 139q25 55 25 109q0 79 -50.5 126t-136.5 47q-143 0 -205 -147
q-11 -25 -32.5 -109t-31.5 -141l-187 -1031q-20 -123 -27 -151.5t-26 -78.5q-126 -323 -373 -323q-70 0 -112 36q-45 38 -45 91q0 42 27.5 72t65.5 30q39 0 68.5 -30t29.5 -71q0 -39 -23 -63t-63 -28q25 -11 46 -11q91 0 144 66q53 64 80.5 155.5t59.5 305.5z" />
    <glyph glyph-name="agrave" unicode="&#xe0;" horiz-adv-x="1068" 
d="M947 873l-121 -559q-37 -174 -37 -215q0 -68 58 -68q43 0 75 45t69 157l25 -9q-32 -96 -56 -144q-52 -100 -156 -100q-65 0 -111.5 47.5t-46.5 113.5q0 50 49 277q-86 -196 -153 -288q-51 -72 -118 -111.5t-137 -39.5q-96 0 -162 72q-85 93 -85 230q0 182 113 352
q108 162 313 236q128 46 256 46q104 0 225 -42zM791 879q-43 4 -63 4q-126 0 -251 -78q-142 -89 -219 -270q-61 -144 -61 -293q0 -93 35 -146q18 -28 50 -47t61 -19q118 0 250 231q67 117 110 250q44 136 58 207zM488 1291l289 -239l-36 -39l-285 237z" />
    <glyph glyph-name="aacute" unicode="&#xe1;" horiz-adv-x="1068" 
d="M947 873l-121 -559q-37 -174 -37 -215q0 -68 58 -68q43 0 75 45t69 157l25 -9q-32 -96 -56 -144q-52 -100 -156 -100q-65 0 -111.5 47.5t-46.5 113.5q0 50 49 277q-86 -196 -153 -288q-51 -72 -118 -111.5t-137 -39.5q-96 0 -162 72q-85 93 -85 230q0 182 113 352
q108 162 313 236q128 46 256 46q104 0 225 -42zM791 879q-43 4 -63 4q-126 0 -251 -78q-142 -89 -219 -270q-61 -144 -61 -293q0 -93 35 -146q18 -28 50 -47t61 -19q118 0 250 231q67 117 110 250q44 136 58 207zM438 1042l386 243l26 -37l-384 -245z" />
    <glyph glyph-name="acircumflex" unicode="&#xe2;" horiz-adv-x="1068" 
d="M947 873l-121 -559q-37 -174 -37 -215q0 -68 58 -68q43 0 75 45t69 157l25 -9q-32 -96 -56 -144q-52 -100 -156 -100q-65 0 -111.5 47.5t-46.5 113.5q0 50 49 277q-86 -196 -153 -288q-51 -72 -118 -111.5t-137 -39.5q-96 0 -162 72q-85 93 -85 230q0 182 113 352
q108 162 313 236q128 46 256 46q104 0 225 -42zM791 879q-43 4 -63 4q-126 0 -251 -78q-142 -89 -219 -270q-61 -144 -61 -293q0 -93 35 -146q18 -28 50 -47t61 -19q118 0 250 231q67 117 110 250q44 136 58 207zM685 1296l218 -245l-38 -37l-187 206l-255 -206l-38 37z" />
    <glyph glyph-name="atilde" unicode="&#xe3;" horiz-adv-x="1068" 
d="M947 873l-121 -559q-37 -174 -37 -215q0 -68 58 -68q43 0 75 45t69 157l25 -9q-32 -96 -56 -144q-52 -100 -156 -100q-65 0 -111.5 47.5t-46.5 113.5q0 50 49 277q-86 -196 -153 -288q-51 -72 -118 -111.5t-137 -39.5q-96 0 -162 72q-85 93 -85 230q0 182 113 352
q108 162 313 236q128 46 256 46q104 0 225 -42zM791 879q-43 4 -63 4q-126 0 -251 -78q-142 -89 -219 -270q-61 -144 -61 -293q0 -93 35 -146q18 -28 50 -47t61 -19q118 0 250 231q67 117 110 250q44 136 58 207zM846 1199l40 -20q-59 -89 -127 -89q-36 0 -71 14t-111 60
q-23 14 -54 14q-58 0 -105 -75l-44 10q71 114 147 114q39 0 118 -49q71 -44 112 -44q27 0 43.5 11.5t51.5 53.5z" />
    <glyph glyph-name="adieresis" unicode="&#xe4;" horiz-adv-x="1068" 
d="M947 873l-121 -559q-37 -174 -37 -215q0 -68 58 -68q43 0 75 45t69 157l25 -9q-32 -96 -56 -144q-52 -100 -156 -100q-65 0 -111.5 47.5t-46.5 113.5q0 50 49 277q-86 -196 -153 -288q-51 -72 -118 -111.5t-137 -39.5q-96 0 -162 72q-85 93 -85 230q0 182 113 352
q108 162 313 236q128 46 256 46q104 0 225 -42zM791 879q-43 4 -63 4q-126 0 -251 -78q-142 -89 -219 -270q-61 -144 -61 -293q0 -93 35 -146q18 -28 50 -47t61 -19q118 0 250 231q67 117 110 250q44 136 58 207zM505 1258q39 0 67.5 -29t28.5 -69q0 -41 -28.5 -69.5
t-69.5 -28.5t-69.5 29t-28.5 70q0 40 29 68.5t71 28.5zM857 1258q39 0 67.5 -29t28.5 -69q0 -41 -28.5 -69.5t-69.5 -28.5t-69.5 29t-28.5 70q0 40 29 68.5t71 28.5z" />
    <glyph glyph-name="aring" unicode="&#xe5;" horiz-adv-x="1068" 
d="M947 873l-121 -559q-37 -174 -37 -215q0 -68 58 -68q43 0 75 45t69 157l25 -9q-32 -96 -56 -144q-52 -100 -156 -100q-65 0 -111.5 47.5t-46.5 113.5q0 50 49 277q-86 -196 -153 -288q-51 -72 -118 -111.5t-137 -39.5q-96 0 -162 72q-85 93 -85 230q0 182 113 352
q108 162 313 236q128 46 256 46q104 0 225 -42zM791 879q-43 4 -63 4q-126 0 -251 -78q-142 -89 -219 -270q-61 -144 -61 -293q0 -93 35 -146q18 -28 50 -47t61 -19q118 0 250 231q67 117 110 250q44 136 58 207zM659 1283q50 0 86 -36.5t36 -87.5t-36.5 -87.5t-87.5 -36.5
q-52 0 -88 36.5t-36 88.5q0 51 37 87t89 36zM658 1235q-34 0 -57.5 -23t-23.5 -56t23 -56.5t57 -23.5q32 0 55.5 23.5t23.5 56.5q0 32 -22.5 55t-55.5 24z" />
    <glyph glyph-name="ae" unicode="&#xe6;" horiz-adv-x="1448" 
d="M1364 221l23 -15q-68 -91 -123 -140q-106 -90 -250 -90q-132 0 -214 82q-90 88 -90 286q-69 -145 -114 -210q-51 -73 -122.5 -115.5t-143.5 -42.5q-121 0 -202 94q-71 82 -71 210q0 183 113 345q113 163 299 238q129 52 285 52q78 0 193 -19l-21 -111q84 75 145 102.5
t143 27.5q103 0 163 -52q70 -60 70 -160q0 -59 -31.5 -120t-85.5 -107q-137 -115 -343 -115q-39 0 -111 6q-7 -64 -7 -102q0 -96 35 -157q24 -40 67.5 -65.5t89.5 -25.5q139 0 303 204zM881 392q55 -5 80 -5q186 0 323 114q50 41 79 100.5t29 120.5q0 72 -39.5 116.5
t-103.5 44.5q-141 0 -261 -194q-39 -63 -59 -119t-48 -178zM803 884q-110 0 -182.5 -19t-137.5 -64q-107 -76 -181 -213q-86 -158 -86 -315q0 -103 38 -169q17 -31 54 -52.5t71 -21.5q169 0 297 314q49 119 75 228t52 312z" />
    <glyph glyph-name="ccedilla" unicode="&#xe7;" horiz-adv-x="807" 
d="M433 -19q94 -59 94 -164q0 -103 -82 -172q-71 -61 -163 -61q-78 0 -139 45q-79 58 -79 146q0 46 30.5 78.5t72.5 32.5t70 -27.5t28 -68.5q0 -39 -28 -67t-68 -28q-30 0 -58 20q45 -99 167 -99q105 0 165 69q51 58 51 134q0 56 -26 92t-89 65q-15 -1 -19 -1
q-121 0 -206 79q-99 92 -99 240q0 174 96 345q104 183 255 242q86 34 167 34q105 0 167 -48q67 -52 67 -142q0 -57 -33 -96.5t-81 -39.5q-39 0 -67 28t-28 67q0 40 28 68t67 28q51 0 82 -46q-2 66 -47.5 106.5t-118.5 40.5q-70 0 -130.5 -41.5t-123.5 -133.5
q-66 -95 -106 -215t-40 -224q0 -107 60 -185q48 -63 141 -63q83 0 151.5 46t146.5 155l24 -14q-65 -98 -138 -153t-161 -72z" />
    <glyph glyph-name="egrave" unicode="&#xe8;" horiz-adv-x="795" 
d="M704 214l22 -16q-72 -89 -118 -129q-109 -93 -247 -93q-151 0 -239 109q-68 84 -68 221q0 188 102 352q75 122 181 189.5t222 67.5q99 0 160 -47q80 -62 80 -169q0 -99 -77 -190q-66 -78 -160.5 -112.5t-243.5 -34.5l-33 1h-66q-9 -63 -9 -105q0 -94 40 -159
q53 -85 149 -85q78 0 144.5 43.5t160.5 156.5zM222 392h63q101 0 167.5 15.5t131.5 55.5q75 46 118 114.5t43 142.5q0 75 -39.5 118.5t-107.5 43.5q-120 0 -216 -125.5t-160 -364.5zM432 1291l289 -239l-36 -39l-285 237z" />
    <glyph glyph-name="eacute" unicode="&#xe9;" horiz-adv-x="795" 
d="M704 214l22 -16q-72 -89 -118 -129q-109 -93 -247 -93q-151 0 -239 109q-68 84 -68 221q0 188 102 352q75 122 181 189.5t222 67.5q99 0 160 -47q80 -62 80 -169q0 -99 -77 -190q-66 -78 -160.5 -112.5t-243.5 -34.5l-33 1h-66q-9 -63 -9 -105q0 -94 40 -159
q53 -85 149 -85q78 0 144.5 43.5t160.5 156.5zM222 392h63q101 0 167.5 15.5t131.5 55.5q75 46 118 114.5t43 142.5q0 75 -39.5 118.5t-107.5 43.5q-120 0 -216 -125.5t-160 -364.5zM355 1042l386 243l26 -37l-384 -245z" />
    <glyph glyph-name="ecircumflex" unicode="&#xea;" horiz-adv-x="795" 
d="M704 214l22 -16q-72 -89 -118 -129q-109 -93 -247 -93q-151 0 -239 109q-68 84 -68 221q0 188 102 352q75 122 181 189.5t222 67.5q99 0 160 -47q80 -62 80 -169q0 -99 -77 -190q-66 -78 -160.5 -112.5t-243.5 -34.5l-33 1h-66q-9 -63 -9 -105q0 -94 40 -159
q53 -85 149 -85q78 0 144.5 43.5t160.5 156.5zM222 392h63q101 0 167.5 15.5t131.5 55.5q75 46 118 114.5t43 142.5q0 75 -39.5 118.5t-107.5 43.5q-120 0 -216 -125.5t-160 -364.5zM574 1296l218 -245l-38 -37l-187 206l-255 -206l-38 37z" />
    <glyph glyph-name="edieresis" unicode="&#xeb;" horiz-adv-x="795" 
d="M704 214l22 -16q-72 -89 -118 -129q-109 -93 -247 -93q-151 0 -239 109q-68 84 -68 221q0 188 102 352q75 122 181 189.5t222 67.5q99 0 160 -47q80 -62 80 -169q0 -99 -77 -190q-66 -78 -160.5 -112.5t-243.5 -34.5l-33 1h-66q-9 -63 -9 -105q0 -94 40 -159
q53 -85 149 -85q78 0 144.5 43.5t160.5 156.5zM222 392h63q101 0 167.5 15.5t131.5 55.5q75 46 118 114.5t43 142.5q0 75 -39.5 118.5t-107.5 43.5q-120 0 -216 -125.5t-160 -364.5zM368 1258q39 0 67.5 -29t28.5 -69q0 -41 -28.5 -69.5t-69.5 -28.5t-69.5 28.5t-28.5 70.5
q0 40 29 68.5t71 28.5zM720 1258q39 0 67.5 -29t28.5 -69q0 -41 -28.5 -69.5t-69.5 -28.5t-69.5 29t-28.5 70q0 40 29 68.5t71 28.5z" />
    <glyph glyph-name="igrave" unicode="&#xec;" horiz-adv-x="495" 
d="M413 912q-51 -223 -140 -568q-51 -197 -51 -232q0 -81 61 -81q43 0 73.5 42.5t69.5 158.5l26 -7q-29 -95 -56 -145q-25 -46 -66 -73t-86 -27q-67 0 -114.5 48t-47.5 116q0 77 67 308q71 249 110 409l-177 -27v27zM228 1291l289 -239l-36 -39l-285 237z" />
    <glyph glyph-name="iacute" unicode="&#xed;" horiz-adv-x="495" 
d="M413 912q-51 -223 -140 -568q-51 -197 -51 -232q0 -81 61 -81q43 0 73.5 42.5t69.5 158.5l26 -7q-29 -95 -56 -145q-25 -46 -66 -73t-86 -27q-67 0 -114.5 48t-47.5 116q0 77 67 308q71 249 110 409l-177 -27v27zM151 1042l386 243l26 -37l-384 -245z" />
    <glyph glyph-name="icircumflex" unicode="&#xee;" horiz-adv-x="495" 
d="M413 912q-51 -223 -140 -568q-51 -197 -51 -232q0 -81 61 -81q43 0 73.5 42.5t69.5 158.5l26 -7q-29 -95 -56 -145q-25 -46 -66 -73t-86 -27q-67 0 -114.5 48t-47.5 116q0 77 67 308q71 249 110 409l-177 -27v27zM398 1296l218 -245l-38 -37l-187 206l-255 -206l-38 37z
" />
    <glyph glyph-name="idieresis" unicode="&#xef;" horiz-adv-x="495" 
d="M413 912q-51 -223 -140 -568q-51 -197 -51 -232q0 -81 61 -81q43 0 73.5 42.5t69.5 158.5l26 -7q-29 -95 -56 -145q-25 -46 -66 -73t-86 -27q-67 0 -114.5 48t-47.5 116q0 77 67 308q71 249 110 409l-177 -27v27zM231 1251q38 0 65 -27.5t27 -65.5q0 -39 -27.5 -66.5
t-65.5 -27.5q-40 0 -67 27.5t-27 66.5t27.5 66t67.5 27zM514 1251q38 0 65 -27.5t27 -65.5q0 -39 -27.5 -66.5t-65.5 -27.5q-40 0 -67 27.5t-27 66.5t27.5 66t67.5 27z" />
    <glyph glyph-name="eth" unicode="&#xf0;" horiz-adv-x="998" 
d="M548 1250l255 108l9 -37l-235 -100q193 -197 281 -353.5t88 -304.5q0 -159 -67 -299q-140 -288 -433 -288q-180 0 -285 104q-102 102 -102 265q0 166 88 320q141 250 419 250q83 0 156 -27q-64 107 -84.5 138t-121.5 169l-246 -104l-9 37l231 98q-69 94 -119 161l37 -3
q80 -76 138 -134zM577 886q-159 0 -252 -183q-40 -78 -72.5 -207.5t-37.5 -226.5q-5 -117 55 -191.5t159 -74.5q97 0 162 62t119 206q74 197 74 344q0 131 -53.5 201t-153.5 70z" />
    <glyph glyph-name="ntilde" unicode="&#xf1;" horiz-adv-x="1168" 
d="M422 912l-108 -506q125 267 219 376q105 123 250 123q108 0 175 -56t67 -146q0 -47 -9.5 -89t-60.5 -216q-60 -209 -60 -299q0 -31 15.5 -49.5t41.5 -18.5q59 0 94 73q20 39 50 128l26 -7q-29 -95 -56 -145q-25 -46 -66 -73t-85 -27q-69 0 -116 48t-47 117q0 47 5.5 75.5
t36.5 140.5q64 233 74.5 279t10.5 89q0 56 -26 90q-36 48 -98 48q-87 0 -163.5 -69t-164.5 -227q-106 -189 -199 -571h-143l183 862l-180 -25v27zM895 1199l40 -20q-59 -89 -127 -89q-36 0 -71 14t-111 60q-23 14 -54 14q-58 0 -105 -75l-44 10q71 114 147 114q39 0 118 -49
q71 -44 112 -44q27 0 43.5 11.5t51.5 53.5z" />
    <glyph glyph-name="ograve" unicode="&#xf2;" horiz-adv-x="998" 
d="M568 915q151 0 247 -83q60 -51 94 -134t34 -178q0 -124 -64 -256q-140 -289 -433 -289q-179 0 -285 105q-102 101 -102 265q0 165 88 320q140 247 421 250zM579 881q-160 0 -254 -181q-42 -83 -75.5 -219.5t-33.5 -229.5q0 -107 59.5 -174.5t153.5 -67.5q86 0 144 45
t108 149q47 99 76 211.5t29 195.5q0 132 -53 201t-154 70zM453 1291l289 -239l-36 -39l-285 237z" />
    <glyph glyph-name="oacute" unicode="&#xf3;" horiz-adv-x="998" 
d="M568 915q151 0 247 -83q60 -51 94 -134t34 -178q0 -124 -64 -256q-140 -289 -433 -289q-179 0 -285 105q-102 101 -102 265q0 165 88 320q140 247 421 250zM579 881q-160 0 -254 -181q-42 -83 -75.5 -219.5t-33.5 -229.5q0 -107 59.5 -174.5t153.5 -67.5q86 0 144 45
t108 149q47 99 76 211.5t29 195.5q0 132 -53 201t-154 70zM402 1042l386 243l26 -37l-384 -245z" />
    <glyph glyph-name="ocircumflex" unicode="&#xf4;" horiz-adv-x="998" 
d="M568 915q151 0 247 -83q60 -51 94 -134t34 -178q0 -124 -64 -256q-140 -289 -433 -289q-179 0 -285 105q-102 101 -102 265q0 165 88 320q140 247 421 250zM579 881q-160 0 -254 -181q-42 -83 -75.5 -219.5t-33.5 -229.5q0 -107 59.5 -174.5t153.5 -67.5q86 0 144 45
t108 149q47 99 76 211.5t29 195.5q0 132 -53 201t-154 70zM649 1296l218 -245l-38 -37l-187 206l-255 -206l-38 37z" />
    <glyph glyph-name="otilde" unicode="&#xf5;" horiz-adv-x="998" 
d="M568 915q151 0 247 -83q60 -51 94 -134t34 -178q0 -124 -64 -256q-140 -289 -433 -289q-179 0 -285 105q-102 101 -102 265q0 165 88 320q140 247 421 250zM579 881q-160 0 -254 -181q-42 -83 -75.5 -219.5t-33.5 -229.5q0 -107 59.5 -174.5t153.5 -67.5q86 0 144 45
t108 149q47 99 76 211.5t29 195.5q0 132 -53 201t-154 70zM824 1199l40 -20q-59 -89 -127 -89q-36 0 -71 14t-111 60q-23 14 -54 14q-58 0 -105 -75l-44 10q71 114 147 114q39 0 118 -49q71 -44 112 -44q27 0 43.5 11.5t51.5 53.5z" />
    <glyph glyph-name="odieresis" unicode="&#xf6;" horiz-adv-x="998" 
d="M568 915q151 0 247 -83q60 -51 94 -134t34 -178q0 -124 -64 -256q-140 -289 -433 -289q-179 0 -285 105q-102 101 -102 265q0 165 88 320q140 247 421 250zM579 881q-160 0 -254 -181q-42 -83 -75.5 -219.5t-33.5 -229.5q0 -107 59.5 -174.5t153.5 -67.5q86 0 144 45
t108 149q47 99 76 211.5t29 195.5q0 132 -53 201t-154 70zM470 1258q39 0 67.5 -29t28.5 -69q0 -41 -28.5 -69.5t-69.5 -28.5t-69.5 28.5t-28.5 70.5q0 40 29 68.5t71 28.5zM822 1258q39 0 67.5 -29t28.5 -69q0 -41 -28.5 -69.5t-69.5 -28.5t-69.5 29t-28.5 70q0 40 29 68.5
t71 28.5z" />
    <glyph glyph-name="divide" unicode="&#xf7;" 
d="M948 669l-17 -82h-765l17 82h765zM621 1013q45 0 77.5 -33t32.5 -79t-32.5 -79t-79.5 -33t-79.5 33t-32.5 80q0 46 33 78.5t81 32.5zM518 467q45 0 77.5 -33t32.5 -79t-33 -79t-79 -33q-47 0 -79.5 33t-32.5 80q0 46 33 78.5t81 32.5z" />
    <glyph glyph-name="oslash" unicode="&#xf8;" horiz-adv-x="998" 
d="M881 753q61 -106 61 -230q0 -127 -64 -259q-139 -289 -432 -289q-190 0 -301 123l-156 -139l-23 26l158 140q-65 93 -65 221q0 165 88 319q141 250 422 250q187 0 292 -133l151 134l23 -25zM783 666l-557 -496q48 -161 202 -161q86 0 144.5 45t107.5 150q49 103 77 215.5
t28 204.5q0 19 -2 42zM218 209l559 498q-39 174 -198 174q-161 0 -254 -182q-42 -83 -75.5 -219.5t-33.5 -226.5q0 -10 2 -44z" />
    <glyph glyph-name="ugrave" unicode="&#xf9;" horiz-adv-x="1152" 
d="M892 891h149l-117 -546q-39 -206 -39 -247q0 -30 15.5 -48.5t41.5 -18.5q59 0 94 73q19 39 50 128l26 -7q-29 -94 -56 -145q-54 -100 -156 -100q-64 0 -110 46q-48 46 -48 112q0 47 21 133q15 59 38 177q-101 -217 -171 -316q-108 -152 -264 -152q-95 0 -163 56
q-69 56 -69 143q0 55 10 110.5t72 331.5q32 145 46 242l-160 -26l5 25l316 50q-18 -117 -28.5 -169t-75.5 -331q-34 -149 -34 -212q0 -77 37.5 -121t103.5 -44t121.5 45.5t117.5 150.5q134 229 199 533zM529 1291l289 -239l-36 -39l-285 237z" />
    <glyph glyph-name="uacute" unicode="&#xfa;" horiz-adv-x="1152" 
d="M892 891h149l-117 -546q-39 -206 -39 -247q0 -30 15.5 -48.5t41.5 -18.5q59 0 94 73q19 39 50 128l26 -7q-29 -94 -56 -145q-54 -100 -156 -100q-64 0 -110 46q-48 46 -48 112q0 47 21 133q15 59 38 177q-101 -217 -171 -316q-108 -152 -264 -152q-95 0 -163 56
q-69 56 -69 143q0 55 10 110.5t72 331.5q32 145 46 242l-160 -26l5 25l316 50q-18 -117 -28.5 -169t-75.5 -331q-34 -149 -34 -212q0 -77 37.5 -121t103.5 -44t121.5 45.5t117.5 150.5q134 229 199 533zM479 1042l386 243l26 -37l-384 -245z" />
    <glyph glyph-name="ucircumflex" unicode="&#xfb;" horiz-adv-x="1152" 
d="M892 891h149l-117 -546q-39 -206 -39 -247q0 -30 15.5 -48.5t41.5 -18.5q59 0 94 73q19 39 50 128l26 -7q-29 -94 -56 -145q-54 -100 -156 -100q-64 0 -110 46q-48 46 -48 112q0 47 21 133q15 59 38 177q-101 -217 -171 -316q-108 -152 -264 -152q-95 0 -163 56
q-69 56 -69 143q0 55 10 110.5t72 331.5q32 145 46 242l-160 -26l5 25l316 50q-18 -117 -28.5 -169t-75.5 -331q-34 -149 -34 -212q0 -77 37.5 -121t103.5 -44t121.5 45.5t117.5 150.5q134 229 199 533zM726 1296l218 -245l-38 -37l-187 206l-255 -206l-38 37z" />
    <glyph glyph-name="udieresis" unicode="&#xfc;" horiz-adv-x="1152" 
d="M892 891h149l-117 -546q-39 -206 -39 -247q0 -30 15.5 -48.5t41.5 -18.5q59 0 94 73q19 39 50 128l26 -7q-29 -94 -56 -145q-54 -100 -156 -100q-64 0 -110 46q-48 46 -48 112q0 47 21 133q15 59 38 177q-101 -217 -171 -316q-108 -152 -264 -152q-95 0 -163 56
q-69 56 -69 143q0 55 10 110.5t72 331.5q32 145 46 242l-160 -26l5 25l316 50q-18 -117 -28.5 -169t-75.5 -331q-34 -149 -34 -212q0 -77 37.5 -121t103.5 -44t121.5 45.5t117.5 150.5q134 229 199 533zM519 1258q39 0 67.5 -29t28.5 -69q0 -41 -28.5 -69.5t-69.5 -28.5
t-69.5 28.5t-28.5 70.5q0 40 29 68.5t71 28.5zM871 1258q39 0 67.5 -29t28.5 -69q0 -41 -28.5 -69.5t-69.5 -28.5t-69.5 29t-28.5 70q0 40 29 68.5t71 28.5z" />
    <glyph glyph-name="yacute" unicode="&#xfd;" horiz-adv-x="1117" 
d="M416 912l-110 -515q-29 -138 -29 -204q0 -67 30 -106q39 -52 116 -52q138 0 258 208q55 96 110.5 241.5t74.5 243.5l30 152h151l-168 -788q-63 -299 -194 -463q-148 -186 -375 -186q-121 0 -202 55q-50 35 -80 88t-30 109q0 66 41.5 112.5t99.5 46.5q39 0 65.5 -26.5
t26.5 -65.5t-30.5 -69t-70.5 -30q-53 0 -87 76q-13 -22 -13 -47q0 -45 25.5 -91t66.5 -75q70 -51 165 -51q189 0 307 219q91 171 136 379l80 379q-70 -157 -107 -223t-90 -131q-98 -117 -248 -117q-107 0 -174 64q-64 62 -64 158q0 39 4 63.5t28 130.5l97 459l-172 -26v26z
M489 1042l386 243l26 -37l-384 -245z" />
    <glyph glyph-name="thorn" unicode="&#xfe;" horiz-adv-x="1075" 
d="M528 1413l-191 -904q92 167 119.5 210.5t64.5 80.5q98 101 228 101q125 0 199 -73q86 -85 86 -226q0 -166 -91 -326q-77 -137 -209 -217t-280 -80q-114 0 -222 38l-105 -495h-154l391 1840l-168 -25v25zM241 55q90 -42 180 -42q106 0 180.5 45t139.5 148q132 208 132 415
q0 97 -41 156q-52 73 -132 73q-72 0 -135 -53t-130 -171q-117 -207 -161 -415z" />
    <glyph glyph-name="ydieresis" unicode="&#xff;" horiz-adv-x="1117" 
d="M416 912l-110 -515q-29 -138 -29 -204q0 -67 30 -106q39 -52 116 -52q138 0 258 208q55 96 110.5 241.5t74.5 243.5l30 152h151l-168 -788q-63 -299 -194 -463q-148 -186 -375 -186q-121 0 -202 55q-50 35 -80 88t-30 109q0 66 41.5 112.5t99.5 46.5q39 0 65.5 -26.5
t26.5 -65.5t-30.5 -69t-70.5 -30q-53 0 -87 76q-13 -22 -13 -47q0 -45 25.5 -91t66.5 -75q70 -51 165 -51q189 0 307 219q91 171 136 379l80 379q-70 -157 -107 -223t-90 -131q-98 -117 -248 -117q-107 0 -174 64q-64 62 -64 158q0 39 4 63.5t28 130.5l97 459l-172 -26v26z
M529 1258q39 0 67.5 -29t28.5 -69q0 -41 -28.5 -69.5t-69.5 -28.5t-69.5 28.5t-28.5 70.5q0 40 29 68.5t71 28.5zM882 1258q39 0 67.5 -29t28.5 -69q0 -41 -28.5 -69.5t-69.5 -28.5t-69.5 29t-28.5 70q0 40 29 68.5t71 28.5z" />
    <glyph glyph-name="dotlessi" unicode="&#x131;" horiz-adv-x="495" 
d="M413 912q-51 -223 -140 -568q-51 -197 -51 -232q0 -81 61 -81q43 0 73.5 42.5t69.5 158.5l26 -7q-29 -95 -56 -145q-25 -46 -66 -73t-86 -27q-67 0 -114.5 48t-47.5 116q0 77 67 308q71 249 110 409l-177 -27v27z" />
    <glyph glyph-name="OE" unicode="&#x152;" horiz-adv-x="1892" 
d="M1772 789v-33q-42 1 -71 1q-230 0 -368 -83q-90 -54 -142 -155q-42 -82 -42 -174q0 -80 32.5 -150.5t88.5 -114.5q82 -63 195 -63q139 0 252 96q48 41 78 84.5t65 123.5l24 -12q-36 -86 -69 -133.5t-87 -92.5q-137 -114 -333 -114q-87 0 -152.5 19.5t-140.5 67.5
q-178 -90 -376 -90q-195 0 -337 75q-139 73 -219 208q-88 149 -88 323q0 261 150 489q137 210 368 294q134 49 281 49q132 0 224.5 -28t178.5 -94q73 65 138 90.5t155 25.5q112 0 193 -45q54 -30 86 -83t32 -112q0 -61 -35.5 -99t-91.5 -38q-45 0 -73.5 27.5t-28.5 71.5
q0 41 27 70t66 29t67.5 -29t28.5 -68q0 -10 -1 -25q15 30 15 57q0 49 -24 95q-59 110 -201 110q-114 0 -192 -80q-80 -82 -80 -206q0 -170 136 -246q68 -38 241 -38h30zM1463 782q-117 35 -167 75q-49 38 -77 97t-28 122q0 61 35 137q-71 80 -149 116t-180 36
q-164 0 -302 -106q-144 -111 -237 -336q-86 -209 -86 -428q0 -245 146 -383q118 -112 289 -112q84 0 159 28t170 96q-77 78 -77 219t88 251q69 85 163 127.5t253 60.5z" />
    <glyph glyph-name="oe" unicode="&#x153;" horiz-adv-x="1479" 
d="M1392 223l22 -16q-61 -78 -108 -123q-114 -108 -254 -108q-97 0 -161.5 42t-111.5 135q-60 -80 -121 -116q-103 -61 -223 -61q-77 0 -150.5 28t-124.5 76q-106 102 -106 264q0 168 90 327q141 251 416 251q121 0 196 -45t133 -153q72 91 137 132q104 66 220 66
q100 0 166 -60t66 -151q0 -151 -137 -253q-67 -50 -144.5 -71.5t-188.5 -21.5q-37 0 -106 2q-7 -53 -7 -83q0 -123 53 -192.5t147 -69.5q76 0 138.5 42t158.5 159zM908 395q52 -3 89 -3q176 0 304 105q121 100 121 220q0 75 -39 122t-102 47q-149 0 -270 -205
q-62 -106 -103 -286zM571 888q-137 0 -230 -152q-56 -91 -91.5 -222.5t-35.5 -245.5q0 -128 56 -193q56 -66 152 -66q163 0 264 212q37 78 63 195t26 207q0 127 -52 193q-56 71 -152 72z" />
    <glyph glyph-name="Scaron" unicode="&#x160;" horiz-adv-x="992" 
d="M1060 1371l-80 -377h-34l17 78q10 48 10 82q0 92 -82 158q-73 58 -172 58q-110 0 -180 -73q-67 -69 -67 -172q0 -75 37 -136t152 -173q152 -149 196 -214q71 -106 71 -223q0 -179 -150 -300q-139 -113 -336 -113q-172 0 -288 89q-123 95 -123 245q0 120 73 198
q64 68 159 68q64 0 107.5 -40.5t43.5 -100.5q0 -49 -30 -83.5t-73 -34.5q-42 0 -72 30t-30 72t29.5 72.5t70.5 30.5q8 0 25 -3q-33 23 -69 23q-81 0 -137 -59q-63 -67 -63 -171q0 -137 110 -224q98 -77 250 -77q149 0 239 87q101 99 101 237q0 90 -46 166.5t-173 195.5
q-116 109 -158 174q-62 99 -62 202q0 147 116 244q110 92 257 92q136 0 312 -100l15 72h34zM1033 1786l35 -33l-303 -255l-214 255l39 33l183 -215z" />
    <glyph glyph-name="scaron" unicode="&#x161;" horiz-adv-x="767" 
d="M46 164q46 -156 227 -156q97 0 164 54q72 59 72 139q0 76 -59 129q-23 21 -115 72q-114 64 -162 123.5t-48 138.5q0 98 80 168q96 83 234 83q103 0 181 -43q100 -56 100 -165q0 -50 -28 -81t-72 -31q-39 0 -67 28t-28 68t28 68t68 28q37 0 65 -30q-20 59 -73 91t-130 32
q-84 0 -139 -37q-35 -24 -56.5 -62t-21.5 -77q0 -61 40 -103.5t153 -101.5q110 -57 150 -106q50 -59 50 -143q0 -122 -98 -196q-104 -79 -259 -79q-126 0 -206 55q-86 60 -86 171q0 60 31 99.5t78 39.5q41 0 71 -30.5t30 -72.5q0 -40 -30 -71t-70 -31q-29 0 -74 29z
M480 1014l-219 245l39 37l184 -208l257 208l38 -37z" />
    <glyph glyph-name="Ydieresis" unicode="&#x178;" horiz-adv-x="1331" 
d="M657 2l-292 1329h-156l8 34h519l-8 -34h-193l259 -1184q289 328 422.5 552.5t133.5 384.5q0 129 -76 212q-74 81 -205 81q-110 0 -181 -59q-81 -67 -81 -174q0 -55 32 -137l-30 -16q-36 92 -36 152q0 129 98 205q80 63 199 63q131 0 215 -79q46 -44 72.5 -109.5
t26.5 -135.5q0 -117 -58.5 -250.5t-190.5 -319.5q-116 -162 -190.5 -251t-263.5 -288q-110 -117 -150 -154.5t-109 -87.5q-180 -129 -331 -129q-97 0 -161.5 54t-64.5 134q0 63 36.5 104.5t91.5 41.5q48 0 80 -31.5t32 -77.5q0 -45 -32 -77t-77 -32q-57 0 -94 52
q18 -134 179 -134q131 0 263 83t313 278zM710 1722q39 0 67.5 -29t28.5 -69q0 -41 -28.5 -69.5t-69.5 -28.5t-69.5 29t-28.5 70q0 40 29 68.5t71 28.5zM1062 1722q39 0 67.5 -29t28.5 -69q0 -41 -28.5 -69.5t-69.5 -28.5t-69.5 29t-28.5 70q0 40 29 68.5t71 28.5z" />
    <glyph glyph-name="florin" unicode="&#x192;" 
d="M524 856h-143l4 35h150l48 157q48 152 70 197q67 133 182 198q88 49 178 49q74 0 119.5 -32t45.5 -85q0 -46 -31 -79t-75 -33q-37 0 -62 24.5t-25 60.5q0 75 79 102q-29 10 -44 10q-72 0 -125 -42q-47 -37 -81 -125q-5 -13 -50 -150l-38 -116l-38 -136h170l-4 -35h-178
l-113 -391q-74 -257 -165 -455q-76 -169 -199 -265q-103 -81 -214 -81q-65 0 -105 32.5t-40 85.5q0 46 31 78.5t75 32.5q37 0 62 -24.5t25 -61.5q0 -78 -88 -103q21 -7 43 -7q117 0 183 103t170 447z" />
    <glyph glyph-name="circumflex" unicode="&#x2c6;" 
d="M662 1296l218 -245l-38 -37l-187 206l-255 -206l-38 37z" />
    <glyph glyph-name="caron" unicode="&#x2c7;" 
d="M608 1014l-219 245l39 37l184 -208l257 208l38 -37z" />
    <glyph glyph-name="ring" unicode="&#x2da;" 
d="M637 1283q50 0 86 -36.5t36 -87.5t-36.5 -87.5t-87.5 -36.5q-52 0 -88 36.5t-36 88.5q0 51 37 87t89 36zM636 1235q-34 0 -57.5 -23t-23.5 -56t23 -56.5t57 -23.5q32 0 55.5 23.5t23.5 56.5q0 32 -22.5 55t-55.5 24z" />
    <glyph glyph-name="tilde" unicode="&#x2dc;" 
d="M823 1199l40 -20q-59 -89 -127 -89q-36 0 -71 14t-111 60q-23 14 -54 14q-58 0 -105 -75l-44 10q71 114 147 114q39 0 118 -49q71 -44 112 -44q27 0 43.5 11.5t51.5 53.5z" />
    <glyph glyph-name="endash" unicode="&#x2013;" 
d="M85 587h915l-21 -100h-915z" />
    <glyph glyph-name="emdash" unicode="&#x2014;" horiz-adv-x="1359" 
d="M36 587h1359l-21 -100h-1359z" />
    <glyph glyph-name="quoteleft" unicode="&#x2018;" horiz-adv-x="374" 
d="M442 1427l27 -32q-84 -79 -115.5 -119t-61.5 -104q28 15 51 15q49 0 83.5 -34t34.5 -83q0 -46 -33 -78t-80 -32q-51 0 -83.5 39t-32.5 100q0 156 210 328z" />
    <glyph glyph-name="quoteright" unicode="&#x2019;" horiz-adv-x="374" 
d="M254 919l-27 32q83 78 115.5 118.5t61.5 103.5q-27 -14 -50 -14q-49 0 -84 34t-35 82q0 46 33 78t81 32q51 0 83.5 -39t32.5 -100q0 -156 -211 -327z" />
    <glyph glyph-name="quotesinglbase" unicode="&#x201a;" horiz-adv-x="374" 
d="M7 -246l-27 32q84 79 116 119t61 104q-27 -15 -50 -15q-49 0 -84 34t-35 83q0 46 33 78t81 32q51 0 83.5 -39t32.5 -100q0 -156 -211 -328z" />
    <glyph glyph-name="quotedblleft" unicode="&#x201c;" horiz-adv-x="737" 
d="M428 1427l27 -32q-84 -79 -115.5 -119t-61.5 -104q28 15 51 15q49 0 83.5 -34t34.5 -83q0 -46 -33 -78t-80 -32q-51 0 -83.5 39t-32.5 100q0 156 210 328zM791 1427l27 -32q-84 -79 -116 -119t-61 -104q27 15 50 15q50 0 84.5 -34t34.5 -83q0 -46 -33 -78t-81 -32
q-51 0 -83.5 39t-32.5 100q0 156 211 328z" />
    <glyph glyph-name="quotedblright" unicode="&#x201d;" horiz-adv-x="737" 
d="M622 926l-27 32q83 78 115 118.5t62 103.5q-27 -15 -51 -15q-49 0 -83.5 34.5t-34.5 82.5q0 46 33 78t80 32q51 0 83.5 -39t32.5 -100q0 -155 -210 -327zM259 926l-27 32q83 78 115.5 118.5t61.5 103.5q-27 -15 -50 -15q-49 0 -84 34.5t-35 82.5q0 46 33 78t81 32
q51 0 83.5 -39t32.5 -100q0 -155 -211 -327z" />
    <glyph glyph-name="quotedblbase" unicode="&#x201e;" horiz-adv-x="737" 
d="M370 -246l-27 32q84 79 115.5 119t61.5 104q-27 -15 -51 -15q-49 0 -83.5 34t-34.5 83q0 46 33 78t80 32q51 0 83.5 -39t32.5 -100q0 -156 -210 -328zM7 -246l-27 32q84 79 116 119t61 104q-27 -15 -50 -15q-49 0 -84 34t-35 83q0 46 33 78t81 32q51 0 83.5 -39
t32.5 -100q0 -156 -211 -328z" />
    <glyph glyph-name="dagger" unicode="&#x2020;" 
d="M345 -329q14 411 117 898q28 130 53 192t74 120q-192 -61 -310 -61q-72 0 -108 17q-45 22 -45 59q0 30 31.5 47.5t86.5 17.5q139 0 353 -46q3 97 4 171q2 164 35 231t79 67q57 0 57 -82q0 -159 -138 -387q235 46 321 46q146 0 146 -71q0 -67 -137 -67q-72 0 -183 25
q-62 14 -152 33q22 -72 22 -125q0 -72 -31.5 -225.5t-78.5 -314.5q-91 -311 -196 -545z" />
    <glyph glyph-name="daggerdbl" unicode="&#x2021;" 
d="M482 190l32 6q202 40 281 40q154 0 154 -71q0 -66 -139 -66q-75 0 -136.5 10.5t-198.5 46.5l-1 -46l-2 -51q-2 -145 -11 -207t-33 -106q-34 -64 -82 -64q-55 0 -55 78q0 62 25.5 136t110.5 260q-182 -61 -299 -61q-154 0 -154 77q0 30 32.5 47t89.5 17q135 0 338 -46
q-1 25 -1 33q-4 77 -4 80q0 100 13 203.5t33 161.5q18 52 70 147q23 41 37 67q-187 -60 -311 -60q-72 0 -112.5 19.5t-40.5 54.5q0 66 122 66q85 0 212 -21l137 -23q3 76 4 169q2 153 30 222q14 34 37 55.5t46 21.5q58 0 58 -87q0 -85 -46 -207q-9 -26 -56 -115
q-13 -25 -29 -59q225 44 306 44q72 0 113 -18t41 -50q0 -69 -136 -69q-56 0 -95 6.5t-183 38.5l-54 12q3 -35 12 -111q3 -29 3 -71q0 -121 -33.5 -229t-124.5 -281z" />
    <glyph glyph-name="bullet" unicode="&#x2022;" horiz-adv-x="1365" 
d="M744 978q113 0 196 -83q84 -83 84 -201t-83 -201t-201 -83q-116 0 -199 82q-85 84 -85 202q0 121 84 202q86 82 204 82z" />
    <glyph glyph-name="ellipsis" unicode="&#x2026;" horiz-adv-x="1081" 
d="M121 220q45 0 77.5 -33t32.5 -79t-33 -79t-79 -33q-47 0 -79.5 33t-32.5 80q0 46 33 78.5t81 32.5zM481 220q45 0 77.5 -33t32.5 -79t-33 -79t-79 -33q-47 0 -79.5 33t-32.5 80q0 46 33 78.5t81 32.5zM841 220q45 0 77.5 -33t32.5 -79t-33 -79t-79 -33t-79 33t-33 80
q0 46 33.5 78.5t80.5 32.5z" />
    <glyph glyph-name="perthousand" unicode="&#x2030;" horiz-adv-x="2173" 
d="M1114 1229h61l-684 -1229h-61zM457 1242q102 0 165 -79q53 -66 53 -188q0 -115 -31 -224.5t-85 -183.5q-38 -54 -100 -85.5t-127 -31.5q-114 0 -172 86q-44 65 -44 180q0 120 35.5 238t91.5 183q91 105 214 105zM452 1210q-81 0 -136 -130q-42 -101 -68.5 -226.5
t-26.5 -222.5q0 -69 27 -108q30 -42 85 -42q48 0 84 37.5t71 123.5q34 83 57.5 192.5t23.5 185.5q0 188 -117 190zM1276 779q102 0 165 -80q53 -66 53 -187q0 -115 -31 -225t-85 -184q-38 -53 -100 -85t-127 -32q-114 0 -172 86q-44 65 -44 180q0 121 35.5 239t91.5 183
q90 105 214 105zM1271 747q-82 0 -136 -130q-42 -101 -68.5 -227t-26.5 -222q0 -70 27 -108q30 -43 85 -43q48 0 84 37.5t71 124.5q34 82 57.5 192t23.5 186q0 188 -117 190zM1931 779q102 0 165 -80q53 -66 53 -187q0 -115 -31 -225t-85 -184q-38 -54 -100 -85.5
t-127 -31.5q-114 0 -172 86q-44 65 -44 180q0 121 35.5 239t91.5 183q90 105 214 105zM1926 747q-81 0 -136 -130q-42 -101 -68.5 -227t-26.5 -222q0 -72 29.5 -111.5t82.5 -39.5q48 0 84 37.5t71 124.5q34 82 57.5 192t23.5 186q0 188 -117 190z" />
    <glyph glyph-name="guilsinglleft" unicode="&#x2039;" horiz-adv-x="440" 
d="M325 218h-59l-173 294l256 256h64l-257 -259z" />
    <glyph glyph-name="guilsinglright" unicode="&#x203a;" horiz-adv-x="440" 
d="M156 768h59l173 -294l-256 -256h-64l257 259z" />
    <glyph glyph-name="trademark" unicode="&#x2122;" horiz-adv-x="1694" 
d="M936 1365h138l198 -404l406 404h235l-7 -33h-119l-151 -712h119l-7 -33h-352l7 33h118l147 691l-382 -379q38 -89 38 -158q0 -88 -41 -147q-42 -60 -110 -60q-42 0 -70.5 30t-28.5 74q0 91 123 212l-213 412l-144 -675h119l-7 -33h-279l7 33h119l151 712h-45
q-51 -36 -162 -36q-31 0 -99 5l-145 -683h145l-6 -31h-382l6 31h121l149 690q-36 2 -76 2q-134 0 -203 -41q-92 -56 -92 -147q0 -56 37 -96v11q0 24 20.5 42t47.5 18q28 0 48 -18t20 -44q0 -28 -22 -47t-55 -19q-53 0 -92 45t-39 106q0 64 45 119t123 87q101 41 293 41
q53 0 115 -1q47 -1 65 -1q82 0 120.5 21t54.5 73l32 -8q-19 -57 -38 -86zM1212 853q-104 -100 -104 -182q0 -29 19.5 -50t45.5 -21q34 0 57 29.5t23 72.5q0 66 -41 151z" />
    <glyph glyph-name="periodcentered" unicode="&#x2219;" horiz-adv-x="360" 
d="M199 589q45 0 77.5 -33t32.5 -79t-33 -79t-79 -33q-47 0 -79.5 33t-32.5 80q0 46 33 78.5t81 32.5z" />
    <glyph glyph-name="notequal" 
 />
    <glyph glyph-name="infinity" horiz-adv-x="1365" 
 />
    <glyph glyph-name="lessequal" 
 />
    <glyph glyph-name="greaterequal" 
 />
    <glyph glyph-name="partialdiff" 
 />
    <glyph glyph-name="summation" horiz-adv-x="1365" 
 />
    <glyph glyph-name="product" horiz-adv-x="1365" 
 />
    <glyph glyph-name="pi" 
 />
    <glyph glyph-name="integral" horiz-adv-x="1026" 
 />
    <glyph glyph-name="Omega" horiz-adv-x="1365" 
 />
    <glyph glyph-name="radical" horiz-adv-x="1365" 
 />
    <glyph glyph-name="approxequal" 
 />
    <glyph glyph-name="Delta" horiz-adv-x="1365" 
 />
    <glyph glyph-name="glyph172" 
 />
    <glyph glyph-name="lozenge" horiz-adv-x="1365" 
 />
    <glyph glyph-name="fraction" horiz-adv-x="211" 
 />
    <glyph glyph-name="fi" horiz-adv-x="1110" 
 />
    <glyph glyph-name="fl" horiz-adv-x="1136" 
 />
    <glyph glyph-name="apple" horiz-adv-x="1365" 
 />
    <glyph glyph-name="macron" 
 />
    <glyph glyph-name="breve" 
 />
    <glyph glyph-name="dotaccent" 
 />
    <glyph glyph-name="hungarumlaut" 
 />
    <glyph glyph-name="ogonek" 
 />
    <glyph glyph-name="glyph226" horiz-adv-x="512" 
 />
    <glyph glyph-name="glyph227" horiz-adv-x="512" 
 />
    <glyph glyph-name="glyph228" horiz-adv-x="512" 
 />
    <glyph glyph-name="glyph229" horiz-adv-x="512" 
 />
    <glyph glyph-name="glyph230" horiz-adv-x="512" 
 />
    <glyph glyph-name="glyph231" horiz-adv-x="512" 
 />
    <glyph glyph-name="glyph232" horiz-adv-x="512" 
 />
    <glyph glyph-name="glyph233" horiz-adv-x="512" 
 />
    <glyph glyph-name="glyph234" horiz-adv-x="512" 
 />
    <glyph glyph-name="glyph235" horiz-adv-x="512" 
 />
    <glyph glyph-name="glyph236" horiz-adv-x="512" 
 />
    <glyph glyph-name="glyph237" horiz-adv-x="512" 
 />
    <glyph glyph-name="glyph238" horiz-adv-x="512" 
 />
    <glyph glyph-name="glyph239" horiz-adv-x="512" 
 />
    <glyph glyph-name="glyph240" horiz-adv-x="512" 
 />
    <glyph glyph-name="glyph241" horiz-adv-x="512" 
 />
    <glyph glyph-name="glyph242" horiz-adv-x="512" 
 />
    <glyph glyph-name="glyph243" horiz-adv-x="512" 
 />
    <glyph glyph-name="glyph244" horiz-adv-x="512" 
 />
    <glyph glyph-name="glyph245" horiz-adv-x="512" 
 />
    <glyph glyph-name="glyph246" horiz-adv-x="512" 
 />
    <glyph glyph-name="glyph247" horiz-adv-x="512" 
 />
    <glyph glyph-name="glyph248" horiz-adv-x="512" 
 />
    <glyph glyph-name="glyph249" horiz-adv-x="512" 
 />
    <glyph glyph-name="glyph250" horiz-adv-x="512" 
 />
    <glyph glyph-name="glyph251" horiz-adv-x="512" 
 />
    <glyph glyph-name="glyph252" horiz-adv-x="512" 
 />
    <glyph glyph-name="glyph253" horiz-adv-x="512" 
 />
    <glyph glyph-name="glyph254" horiz-adv-x="512" 
 />
    <glyph glyph-name="glyph255" horiz-adv-x="512" 
 />
    <glyph glyph-name="glyph256" horiz-adv-x="512" 
 />
    <glyph glyph-name="glyph257" horiz-adv-x="512" 
 />
    <glyph glyph-name="Cacute" horiz-adv-x="1260" 
 />
    <glyph glyph-name="cacute" horiz-adv-x="807" 
 />
    <glyph glyph-name="Ccaron" horiz-adv-x="1260" 
 />
    <glyph glyph-name="ccaron" horiz-adv-x="807" 
 />
    <glyph glyph-name="dmacron" horiz-adv-x="1114" 
 />
    <glyph glyph-name="Gbreve" horiz-adv-x="1424" 
 />
    <glyph glyph-name="gbreve" horiz-adv-x="1063" 
 />
    <glyph glyph-name="Idot" horiz-adv-x="646" 
 />
    <glyph glyph-name="Lslash" horiz-adv-x="1019" 
 />
    <glyph glyph-name="lslash" horiz-adv-x="535" 
 />
    <glyph glyph-name="Scedilla" horiz-adv-x="992" 
 />
    <glyph glyph-name="scedilla" horiz-adv-x="767" 
 />
    <glyph glyph-name="Zcaron" horiz-adv-x="1563" 
 />
    <glyph glyph-name="zcaron" horiz-adv-x="899" 
 />
    <glyph glyph-name="franc" horiz-adv-x="1609" 
 />
    <glyph glyph-name="minus" 
 />
    <glyph glyph-name="glyph294" 
 />
    <glyph glyph-name="glyph295" 
 />
    <glyph glyph-name="glyph296" 
d="M548 1498l-35 33l304 255l213 -255l-39 -33l-183 215z" />
    <glyph glyph-name="glyph297" 
d="M609 1761l301 -222l-34 -41l-297 221z" />
    <glyph glyph-name="glyph298" 
d="M510 1557l422 173l19 -42l-420 -174z" />
    <glyph glyph-name="glyph299" 
d="M570 1722q39 0 67.5 -29t28.5 -69q0 -41 -28.5 -69.5t-69.5 -28.5t-69.5 29t-28.5 70q0 40 29 68.5t71 28.5zM922 1722q39 0 67.5 -29t28.5 -69q0 -41 -28.5 -69.5t-69.5 -28.5t-69.5 29t-28.5 70q0 40 29 68.5t71 28.5z" />
    <glyph glyph-name="glyph300" 
d="M495 1251q38 0 65 -27.5t27 -65.5q0 -39 -27.5 -66.5t-65.5 -27.5q-40 0 -67 27.5t-27 66.5t27.5 66t67.5 27zM778 1251q38 0 65 -27.5t27 -65.5q0 -39 -27.5 -66.5t-65.5 -27.5q-40 0 -67 27.5t-27 66.5t27.5 66t67.5 27z" />
    <glyph glyph-name="glyph301" 
d="M995 1786l35 -33l-303 -255l-214 255l39 33l183 -215z" />
    <glyph glyph-name="glyph302" 
d="M985 1670l40 -25q-61 -96 -133 -96q-44 0 -132 52q-85 50 -117 50q-58 0 -111 -86l-40 21q72 113 151 113q36 0 123 -51t117 -51q42 0 102 73z" />
    <glyph glyph-name="glyph303" horiz-adv-x="512" 
 />
    </font>
</defs>
</svg>
